<svg width="181" height="56" viewBox="0 0 181 56" fill="none" xmlns="http://www.w3.org/2000/svg">
<g opacity="0.6">
<rect x="0.720703" y="0.5" width="179" height="55" rx="27.5" fill="#121212"/>
<rect x="0.720703" y="0.5" width="179" height="55" rx="27.5" stroke="url(#paint0_linear_836_331)"/>
<path d="M25.7848 21.6294C24.6168 21.6294 22.8088 20.3014 20.9048 20.3494C18.3928 20.3814 16.0888 21.8054 14.7928 24.0614C12.1848 28.5894 14.1208 35.2774 16.6648 38.9574C17.9128 40.7494 19.3848 42.7654 21.3368 42.7014C23.2088 42.6214 23.9128 41.4854 26.1848 41.4854C28.4408 41.4854 29.0808 42.7014 31.0648 42.6534C33.0808 42.6214 34.3608 40.8294 35.5928 39.0214C37.0168 36.9414 37.6088 34.9254 37.6408 34.8134C37.5928 34.7974 33.7208 33.3094 33.6728 28.8294C33.6408 25.0854 36.7288 23.2934 36.8728 23.2134C35.1128 20.6374 32.4088 20.3494 31.4648 20.2854C29.0008 20.0934 26.9368 21.6294 25.7848 21.6294ZM29.9448 17.8534C30.9848 16.6054 31.6728 14.8614 31.4808 13.1334C29.9928 13.1974 28.2008 14.1254 27.1288 15.3734C26.1688 16.4774 25.3368 18.2534 25.5608 19.9494C27.2088 20.0774 28.9048 19.1014 29.9448 17.8534Z" fill="#D9D8D8"/>
<path d="M53.4279 20V12.272H56.5599C57.7039 12.272 58.5519 12.576 59.1039 13.184C59.6559 13.784 59.9319 14.784 59.9319 16.184C59.9319 17.504 59.6599 18.472 59.1159 19.088C58.5719 19.696 57.7199 20 56.5599 20H53.4279ZM54.7359 18.992H56.3559C56.8599 18.992 57.2799 18.92 57.6159 18.776C57.9519 18.624 58.2039 18.344 58.3719 17.936C58.5399 17.528 58.6239 16.944 58.6239 16.184C58.6239 15.424 58.5479 14.836 58.3959 14.42C58.2439 14.004 57.9999 13.712 57.6639 13.544C57.3359 13.376 56.8999 13.292 56.3559 13.292H54.7359V18.992ZM64.6408 20.12C63.4168 20.12 62.5008 19.8 61.8928 19.16C61.2848 18.512 60.9808 17.512 60.9808 16.16C60.9808 14.752 61.2848 13.732 61.8928 13.1C62.5008 12.468 63.4168 12.152 64.6408 12.152C65.8728 12.152 66.7888 12.468 67.3888 13.1C67.9968 13.732 68.3008 14.752 68.3008 16.16C68.3008 17.512 67.9968 18.512 67.3888 19.16C66.7888 19.8 65.8728 20.12 64.6408 20.12ZM64.6408 19.016C65.4488 19.016 66.0408 18.796 66.4168 18.356C66.8008 17.908 66.9928 17.176 66.9928 16.16C66.9928 15.088 66.8008 14.34 66.4168 13.916C66.0408 13.484 65.4488 13.268 64.6408 13.268C63.8408 13.268 63.2488 13.484 62.8648 13.916C62.4888 14.34 62.3008 15.088 62.3008 16.16C62.3008 17.176 62.4888 17.908 62.8648 18.356C63.2488 18.796 63.8408 19.016 64.6408 19.016ZM70.6678 20L68.8678 12.272H70.1518L71.4598 18.068L72.9238 13.208V12.272H73.9918L75.6358 18.068L76.9678 12.272H78.2398L76.4518 20H75.1678L73.6198 14.588L71.9758 20H70.6678ZM79.5255 20V12.272H80.6775L84.7095 17.96V12.272H86.0055V20H84.8535L80.8335 14.324V20H79.5255ZM87.5294 20V12.272H88.8374V18.992H92.7974V20H87.5294ZM96.8908 20.12C95.6668 20.12 94.7508 19.8 94.1428 19.16C93.5348 18.512 93.2308 17.512 93.2308 16.16C93.2308 14.752 93.5348 13.732 94.1428 13.1C94.7508 12.468 95.6668 12.152 96.8908 12.152C98.1228 12.152 99.0388 12.468 99.6388 13.1C100.247 13.732 100.551 14.752 100.551 16.16C100.551 17.512 100.247 18.512 99.6388 19.16C99.0388 19.8 98.1228 20.12 96.8908 20.12ZM96.8908 19.016C97.6988 19.016 98.2908 18.796 98.6668 18.356C99.0508 17.908 99.2428 17.176 99.2428 16.16C99.2428 15.088 99.0508 14.34 98.6668 13.916C98.2908 13.484 97.6988 13.268 96.8908 13.268C96.0908 13.268 95.4988 13.484 95.1148 13.916C94.7388 14.34 94.5508 15.088 94.5508 16.16C94.5508 17.176 94.7388 17.908 95.1148 18.356C95.4988 18.796 96.0908 19.016 96.8908 19.016ZM100.942 20L103.894 12.272H105.358L108.286 20H106.942L106.174 18.008H103.066L102.298 20H100.942ZM103.27 17H105.958L104.614 13.46L103.27 17ZM109.572 20V12.272H112.704C113.848 12.272 114.696 12.576 115.248 13.184C115.8 13.784 116.076 14.784 116.076 16.184C116.076 17.504 115.804 18.472 115.26 19.088C114.716 19.696 113.864 20 112.704 20H109.572ZM110.88 18.992H112.5C113.004 18.992 113.424 18.92 113.76 18.776C114.096 18.624 114.348 18.344 114.516 17.936C114.684 17.528 114.768 16.944 114.768 16.184C114.768 15.424 114.692 14.836 114.54 14.42C114.388 14.004 114.144 13.712 113.808 13.544C113.48 13.376 113.044 13.292 112.5 13.292H110.88V18.992ZM123.551 20.12C122.327 20.12 121.411 19.8 120.803 19.16C120.195 18.512 119.891 17.512 119.891 16.16C119.891 14.752 120.195 13.732 120.803 13.1C121.411 12.468 122.327 12.152 123.551 12.152C124.783 12.152 125.699 12.468 126.299 13.1C126.907 13.732 127.211 14.752 127.211 16.16C127.211 17.512 126.907 18.512 126.299 19.16C125.699 19.8 124.783 20.12 123.551 20.12ZM123.551 19.016C124.359 19.016 124.951 18.796 125.327 18.356C125.711 17.908 125.903 17.176 125.903 16.16C125.903 15.088 125.711 14.34 125.327 13.916C124.951 13.484 124.359 13.268 123.551 13.268C122.751 13.268 122.159 13.484 121.775 13.916C121.399 14.34 121.211 15.088 121.211 16.16C121.211 17.176 121.399 17.908 121.775 18.356C122.159 18.796 122.751 19.016 123.551 19.016ZM128.486 20V12.272H129.638L133.67 17.96V12.272H134.966V20H133.814L129.794 14.324V20H128.486ZM141.26 20V13.292H138.788V12.272H145.028V13.292H142.568V20H141.26ZM146.076 20V12.272H147.384V15.632H151.104V12.272H152.412V20H151.104V16.64H147.384V20H146.076ZM153.928 20V12.272H159.316V13.292H155.236V15.632H158.872V16.64H155.236V18.992H159.316V20H153.928Z" fill="#AAAAAA"/>
<path d="M54.5154 32.08C54.1207 32.08 53.7901 31.9573 53.5234 31.712C53.2674 31.456 53.1394 31.1413 53.1394 30.768C53.1394 30.3947 53.2674 30.0853 53.5234 29.84C53.7901 29.584 54.1207 29.456 54.5154 29.456C54.9101 29.456 55.2354 29.584 55.4914 29.84C55.7581 30.0853 55.8914 30.3947 55.8914 30.768C55.8914 31.1413 55.7581 31.456 55.4914 31.712C55.2354 31.9573 54.9101 32.08 54.5154 32.08ZM55.6194 33.136V42H53.3794V33.136H55.6194ZM63.0165 42.112C61.9712 42.112 61.0112 41.8667 60.1365 41.376C59.2618 40.8853 58.5685 40.208 58.0565 39.344C57.5445 38.4693 57.2885 37.4827 57.2885 36.384C57.2885 35.296 57.5445 34.32 58.0565 33.456C58.5685 32.5813 59.2618 31.8987 60.1365 31.408C61.0112 30.9173 61.9712 30.672 63.0165 30.672C64.0725 30.672 65.0325 30.9173 65.8965 31.408C66.7712 31.8987 67.4592 32.5813 67.9605 33.456C68.4725 34.32 68.7285 35.296 68.7285 36.384C68.7285 37.4827 68.4725 38.4693 67.9605 39.344C67.4592 40.208 66.7712 40.8853 65.8965 41.376C65.0218 41.8667 64.0618 42.112 63.0165 42.112ZM63.0165 40.112C63.6885 40.112 64.2805 39.9627 64.7925 39.664C65.3045 39.3547 65.7045 38.9173 65.9925 38.352C66.2805 37.7867 66.4245 37.1307 66.4245 36.384C66.4245 35.6373 66.2805 34.9867 65.9925 34.432C65.7045 33.8667 65.3045 33.4347 64.7925 33.136C64.2805 32.8373 63.6885 32.688 63.0165 32.688C62.3445 32.688 61.7472 32.8373 61.2245 33.136C60.7125 33.4347 60.3125 33.8667 60.0245 34.432C59.7365 34.9867 59.5925 35.6373 59.5925 36.384C59.5925 37.1307 59.7365 37.7867 60.0245 38.352C60.3125 38.9173 60.7125 39.3547 61.2245 39.664C61.7472 39.9627 62.3445 40.112 63.0165 40.112ZM74.251 42.112C73.4723 42.112 72.7683 41.9787 72.139 41.712C71.5203 41.4453 71.0297 41.0613 70.667 40.56C70.3043 40.0587 70.1177 39.4667 70.107 38.784H72.507C72.539 39.2427 72.699 39.6053 72.987 39.872C73.2857 40.1387 73.691 40.272 74.203 40.272C74.7257 40.272 75.1363 40.1493 75.435 39.904C75.7337 39.648 75.883 39.3173 75.883 38.912C75.883 38.5813 75.7817 38.3093 75.579 38.096C75.3763 37.8827 75.1203 37.7173 74.811 37.6C74.5123 37.472 74.0963 37.3333 73.563 37.184C72.8377 36.9707 72.2457 36.7627 71.787 36.56C71.339 36.3467 70.9497 36.032 70.619 35.616C70.299 35.1893 70.139 34.624 70.139 33.92C70.139 33.2587 70.3043 32.6827 70.635 32.192C70.9657 31.7013 71.4297 31.328 72.027 31.072C72.6243 30.8053 73.307 30.672 74.075 30.672C75.227 30.672 76.1603 30.9547 76.875 31.52C77.6003 32.0747 78.0003 32.8533 78.075 33.856H75.611C75.5897 33.472 75.4243 33.1573 75.115 32.912C74.8163 32.656 74.4163 32.528 73.915 32.528C73.4777 32.528 73.1257 32.64 72.859 32.864C72.603 33.088 72.475 33.4133 72.475 33.84C72.475 34.1387 72.571 34.3893 72.763 34.592C72.9657 34.784 73.211 34.944 73.499 35.072C73.7977 35.1893 74.2137 35.328 74.747 35.488C75.4723 35.7013 76.0643 35.9147 76.523 36.128C76.9817 36.3413 77.3763 36.6613 77.707 37.088C78.0377 37.5147 78.203 38.0747 78.203 38.768C78.203 39.3653 78.0483 39.92 77.739 40.432C77.4297 40.944 76.9763 41.3547 76.379 41.664C75.7817 41.9627 75.0723 42.112 74.251 42.112ZM87.8135 42.112C87.0348 42.112 86.3308 41.9787 85.7015 41.712C85.0828 41.4453 84.5922 41.0613 84.2295 40.56C83.8668 40.0587 83.6802 39.4667 83.6695 38.784H86.0695C86.1015 39.2427 86.2615 39.6053 86.5495 39.872C86.8482 40.1387 87.2535 40.272 87.7655 40.272C88.2882 40.272 88.6988 40.1493 88.9975 39.904C89.2962 39.648 89.4455 39.3173 89.4455 38.912C89.4455 38.5813 89.3442 38.3093 89.1415 38.096C88.9388 37.8827 88.6828 37.7173 88.3735 37.6C88.0748 37.472 87.6588 37.3333 87.1255 37.184C86.4002 36.9707 85.8082 36.7627 85.3495 36.56C84.9015 36.3467 84.5122 36.032 84.1815 35.616C83.8615 35.1893 83.7015 34.624 83.7015 33.92C83.7015 33.2587 83.8668 32.6827 84.1975 32.192C84.5282 31.7013 84.9922 31.328 85.5895 31.072C86.1868 30.8053 86.8695 30.672 87.6375 30.672C88.7895 30.672 89.7228 30.9547 90.4375 31.52C91.1628 32.0747 91.5628 32.8533 91.6375 33.856H89.1735C89.1522 33.472 88.9868 33.1573 88.6775 32.912C88.3788 32.656 87.9788 32.528 87.4775 32.528C87.0402 32.528 86.6882 32.64 86.4215 32.864C86.1655 33.088 86.0375 33.4133 86.0375 33.84C86.0375 34.1387 86.1335 34.3893 86.3255 34.592C86.5282 34.784 86.7735 34.944 87.0615 35.072C87.3602 35.1893 87.7762 35.328 88.3095 35.488C89.0348 35.7013 89.6268 35.9147 90.0855 36.128C90.5442 36.3413 90.9388 36.6613 91.2695 37.088C91.6002 37.5147 91.7655 38.0747 91.7655 38.768C91.7655 39.3653 91.6108 39.92 91.3015 40.432C90.9922 40.944 90.5388 41.3547 89.9415 41.664C89.3442 41.9627 88.6348 42.112 87.8135 42.112ZM101.308 30.832V32.64H98.3315V42H96.0915V32.64H93.1155V30.832H101.308ZM108.126 42.112C107.081 42.112 106.121 41.8667 105.246 41.376C104.371 40.8853 103.678 40.208 103.166 39.344C102.654 38.4693 102.398 37.4827 102.398 36.384C102.398 35.296 102.654 34.32 103.166 33.456C103.678 32.5813 104.371 31.8987 105.246 31.408C106.121 30.9173 107.081 30.672 108.126 30.672C109.182 30.672 110.142 30.9173 111.006 31.408C111.881 31.8987 112.569 32.5813 113.07 33.456C113.582 34.32 113.838 35.296 113.838 36.384C113.838 37.4827 113.582 38.4693 113.07 39.344C112.569 40.208 111.881 40.8853 111.006 41.376C110.131 41.8667 109.171 42.112 108.126 42.112ZM108.126 40.112C108.798 40.112 109.39 39.9627 109.902 39.664C110.414 39.3547 110.814 38.9173 111.102 38.352C111.39 37.7867 111.534 37.1307 111.534 36.384C111.534 35.6373 111.39 34.9867 111.102 34.432C110.814 33.8667 110.414 33.4347 109.902 33.136C109.39 32.8373 108.798 32.688 108.126 32.688C107.454 32.688 106.857 32.8373 106.334 33.136C105.822 33.4347 105.422 33.8667 105.134 34.432C104.846 34.9867 104.702 35.6373 104.702 36.384C104.702 37.1307 104.846 37.7867 105.134 38.352C105.422 38.9173 105.822 39.3547 106.334 39.664C106.857 39.9627 107.454 40.112 108.126 40.112ZM121.264 42L118.8 37.648H117.744V42H115.504V30.832H119.696C120.56 30.832 121.296 30.9867 121.904 31.296C122.512 31.5947 122.966 32.0053 123.264 32.528C123.574 33.04 123.728 33.616 123.728 34.256C123.728 34.992 123.515 35.6587 123.088 36.256C122.662 36.8427 122.027 37.248 121.184 37.472L123.856 42H121.264ZM117.744 35.968H119.616C120.224 35.968 120.678 35.824 120.976 35.536C121.275 35.2373 121.424 34.8267 121.424 34.304C121.424 33.792 121.275 33.3973 120.976 33.12C120.678 32.832 120.224 32.688 119.616 32.688H117.744V35.968ZM127.994 32.64V35.44H131.754V37.216H127.994V40.176H132.234V42H125.754V30.816H132.234V32.64H127.994Z" fill="#F2F2F2"/>
</g>
<defs>
<linearGradient id="paint0_linear_836_331" x1="-0.322035" y1="-1.98764e-06" x2="174.556" y2="68.9837" gradientUnits="userSpaceOnUse">
<stop stop-color="#D2F189"/>
<stop offset="1" stop-color="#798B4F"/>
</linearGradient>
</defs>
</svg>
