<svg width="61" height="40" viewBox="0 0 61 40" fill="none" xmlns="http://www.w3.org/2000/svg">
<path d="M21.2532 16.3513C21.2532 16.9001 21.3125 17.345 21.4163 17.6713C21.535 17.9976 21.6833 18.3536 21.8909 18.7392C21.9651 18.8578 21.9947 18.9765 21.9947 19.0803C21.9947 19.2286 21.9058 19.3769 21.7129 19.5252L20.7786 20.1482C20.6451 20.2371 20.5116 20.2816 20.393 20.2816C20.2446 20.2816 20.0963 20.2075 19.948 20.074C19.7404 19.8515 19.5624 19.6142 19.4141 19.3769C19.2658 19.1248 19.1175 18.843 18.9543 18.5019C17.7975 19.8664 16.344 20.5486 14.5939 20.5486C13.3481 20.5486 12.3544 20.1926 11.6277 19.4807C10.9009 18.7688 10.5302 17.8196 10.5302 16.6331C10.5302 15.3725 10.9751 14.3491 11.8798 13.5779C12.7845 12.8067 13.9858 12.421 15.5135 12.421C16.0177 12.421 16.5368 12.4655 17.0856 12.5397C17.6343 12.6139 18.1979 12.7325 18.7912 12.866V11.7833C18.7912 10.6561 18.5539 9.87006 18.0941 9.41029C17.6195 8.95052 16.8186 8.72805 15.6766 8.72805C15.1575 8.72805 14.6236 8.78738 14.0748 8.92086C13.5261 9.05434 12.9921 9.21749 12.4731 9.42512C12.2357 9.52894 12.0578 9.58827 11.954 9.61793C11.8501 9.64759 11.776 9.66243 11.7167 9.66243C11.509 9.66243 11.4052 9.51411 11.4052 9.20266V8.47592C11.4052 8.23862 11.4349 8.06065 11.509 7.95683C11.5832 7.85301 11.7167 7.74919 11.9243 7.64537C12.4434 7.37841 13.0663 7.15594 13.793 6.97796C14.5198 6.78515 15.291 6.69617 16.1067 6.69617C17.8716 6.69617 19.162 7.09661 19.9925 7.8975C20.8082 8.69839 21.2235 9.91456 21.2235 11.546V16.3513H21.2532ZM15.2317 18.6057C15.7211 18.6057 16.2254 18.5167 16.7593 18.3387C17.2932 18.1608 17.7678 17.8345 18.1683 17.3895C18.4056 17.1077 18.5835 16.7963 18.6725 16.4403C18.7615 16.0844 18.8208 15.6543 18.8208 15.15V14.5271C18.3907 14.4233 17.931 14.3343 17.4564 14.275C16.9818 14.2156 16.522 14.186 16.0622 14.186C15.0685 14.186 14.3418 14.3788 13.8524 14.7792C13.3629 15.1797 13.1256 15.7433 13.1256 16.4848C13.1256 17.1819 13.3036 17.701 13.6744 18.0569C14.0303 18.4277 14.5494 18.6057 15.2317 18.6057ZM27.1412 20.2075C26.8742 20.2075 26.6963 20.163 26.5776 20.0592C26.459 19.9702 26.3551 19.7625 26.2662 19.4807L22.7808 8.01615C22.6918 7.71953 22.6473 7.52672 22.6473 7.4229C22.6473 7.1856 22.766 7.05212 23.0033 7.05212H24.4567C24.7385 7.05212 24.9313 7.09661 25.0352 7.20043C25.1538 7.28942 25.2428 7.49706 25.3318 7.77885L27.8234 17.5972L30.1371 7.77885C30.2113 7.48223 30.3003 7.28942 30.4189 7.20043C30.5376 7.11144 30.7452 7.05212 31.0122 7.05212H32.1987C32.4805 7.05212 32.6733 7.09661 32.7919 7.20043C32.9106 7.28942 33.0144 7.49706 33.0737 7.77885L35.4171 17.7158L37.9829 7.77885C38.0719 7.48223 38.1757 7.28942 38.2795 7.20043C38.3981 7.11144 38.591 7.05212 38.8579 7.05212H40.2372C40.4745 7.05212 40.608 7.17077 40.608 7.4229C40.608 7.49706 40.5932 7.57121 40.5783 7.6602C40.5635 7.74919 40.5339 7.86784 40.4745 8.03098L36.9002 19.4956C36.8112 19.7922 36.7074 19.985 36.5887 20.074C36.4701 20.163 36.2773 20.2223 36.0251 20.2223H34.7496C34.4679 20.2223 34.275 20.1778 34.1564 20.074C34.0377 19.9702 33.9339 19.7774 33.8746 19.4807L31.5758 9.91456L29.2917 19.4659C29.2176 19.7625 29.1286 19.9553 29.0099 20.0592C28.8913 20.163 28.6837 20.2075 28.4167 20.2075H27.1412ZM46.1994 20.6079C45.4282 20.6079 44.657 20.5189 43.9154 20.341C43.1738 20.163 42.5954 19.9702 42.2098 19.7477C41.9725 19.6142 41.8093 19.4659 41.75 19.3324C41.6907 19.1989 41.661 19.0506 41.661 18.9172V18.1608C41.661 17.8493 41.7797 17.701 42.0022 17.701C42.0911 17.701 42.1801 17.7158 42.2691 17.7455C42.3581 17.7751 42.4916 17.8345 42.6399 17.8938C43.1442 18.1163 43.6929 18.2942 44.2713 18.4129C44.8646 18.5315 45.443 18.5909 46.0363 18.5909C46.9706 18.5909 47.6974 18.4277 48.2016 18.1014C48.7059 17.7751 48.9729 17.3005 48.9729 16.6925C48.9729 16.2772 48.8394 15.9361 48.5724 15.6543C48.3055 15.3725 47.8012 15.1203 47.0745 14.883L44.9239 14.2156C43.8412 13.8745 43.0403 13.3702 42.5509 12.7028C42.0615 12.0503 41.8093 11.3235 41.8093 10.5523C41.8093 9.92939 41.9428 9.38063 42.2098 8.90603C42.4768 8.43143 42.8327 8.01615 43.2776 7.68986C43.7226 7.34874 44.2268 7.09661 44.8201 6.91864C45.4133 6.74066 46.0363 6.6665 46.6888 6.6665C47.0151 6.6665 47.3562 6.68134 47.6825 6.72583C48.0237 6.77032 48.3351 6.82965 48.6466 6.88897C48.9432 6.96313 49.225 7.03729 49.492 7.12627C49.7589 7.21526 49.9666 7.30425 50.1149 7.39324C50.3225 7.51189 50.4708 7.63054 50.5598 7.76402C50.6488 7.88267 50.6933 8.04581 50.6933 8.25345V8.95052C50.6933 9.26198 50.5746 9.42512 50.3522 9.42512C50.2335 9.42512 50.0407 9.3658 49.7886 9.24715C48.9432 8.86154 47.994 8.66873 46.941 8.66873C46.0956 8.66873 45.4282 8.80221 44.9684 9.084C44.5086 9.3658 44.2713 9.79591 44.2713 10.404C44.2713 10.8193 44.4197 11.1752 44.7163 11.457C45.0129 11.7388 45.5617 12.0206 46.3477 12.2727L48.4538 12.9401C49.5216 13.2813 50.2928 13.7559 50.7526 14.3639C51.2124 14.972 51.4348 15.6691 51.4348 16.4403C51.4348 17.0781 51.3014 17.6565 51.0492 18.1608C50.7823 18.665 50.4263 19.11 49.9666 19.4659C49.5068 19.8367 48.958 20.1037 48.3203 20.2965C47.6529 20.5041 46.9558 20.6079 46.1994 20.6079Z" fill="white"/>
<path fill-rule="evenodd" clip-rule="evenodd" d="M49.0025 27.816C44.123 31.42 37.0336 33.3332 30.938 33.3332C22.3951 33.3332 14.6977 30.1741 8.88383 24.9239C8.42406 24.5086 8.83934 23.945 9.3881 24.2713C15.6766 27.9198 23.4333 30.1297 31.4571 30.1297C36.8705 30.1297 42.8178 29.0025 48.2906 26.6888C49.1063 26.318 49.8034 27.2227 49.0025 27.816Z" fill="#FF9900"/>
<path fill-rule="evenodd" clip-rule="evenodd" d="M51.0343 25.502C50.4114 24.7011 46.9112 25.1164 45.3243 25.3092C44.8497 25.3686 44.7755 24.9533 45.2057 24.6418C47.9939 22.6841 52.5768 23.2477 53.1107 23.9003C53.6446 24.5677 52.9624 29.1505 50.3521 31.3456C49.9517 31.6867 49.566 31.5087 49.744 31.0638C50.3373 29.5955 51.6572 26.2881 51.0343 25.502Z" fill="#FF9900"/>
</svg>
