<svg width="32" height="32" viewBox="0 0 32 32" fill="none" xmlns="http://www.w3.org/2000/svg">
<g filter="url(#filter0_b_804_2301)">
<rect width="32" height="32" rx="16" fill="#212D04" fill-opacity="0.6"/>
<rect x="0.25" y="0.25" width="31.5" height="31.5" rx="15.75" stroke="#757A6F" stroke-width="0.5"/>
<path d="M21.5447 10.7704C20.5249 10.3025 19.4313 9.95774 18.2879 9.76029C18.2671 9.75648 18.2463 9.766 18.2356 9.78505C18.0949 10.0352 17.9392 10.3615 17.8301 10.618C16.6003 10.4339 15.3768 10.4339 14.1722 10.618C14.0631 10.3558 13.9017 10.0352 13.7604 9.78505C13.7497 9.76664 13.7289 9.75711 13.708 9.76029C12.5653 9.95711 11.4717 10.3019 10.4513 10.7704C10.4425 10.7742 10.4349 10.7806 10.4299 10.7888C8.35559 13.8877 7.78737 16.9105 8.06612 19.8957C8.06738 19.9103 8.07558 19.9243 8.08693 19.9332C9.45547 20.9382 10.7811 21.5483 12.0822 21.9528C12.103 21.9591 12.1251 21.9515 12.1383 21.9343C12.4461 21.5141 12.7204 21.0709 12.9557 20.6049C12.9695 20.5776 12.9563 20.5452 12.9279 20.5344C12.4928 20.3693 12.0784 20.1681 11.6798 19.9395C11.6483 19.9211 11.6458 19.876 11.6748 19.8544C11.7586 19.7916 11.8425 19.7262 11.9226 19.6602C11.9371 19.6481 11.9573 19.6456 11.9744 19.6532C14.5929 20.8487 17.4277 20.8487 20.0153 19.6532C20.0323 19.6449 20.0525 19.6475 20.0677 19.6595C20.1478 19.7256 20.2316 19.7916 20.3161 19.8544C20.3451 19.876 20.3433 19.9211 20.3117 19.9395C19.9131 20.1725 19.4988 20.3693 19.063 20.5338C19.0346 20.5446 19.022 20.5776 19.0359 20.6049C19.2762 21.0703 19.5505 21.5134 19.8526 21.9337C19.8652 21.9515 19.8879 21.9591 19.9087 21.9528C21.2161 21.5483 22.5417 20.9382 23.9103 19.9332C23.9223 19.9243 23.9298 19.911 23.9311 19.8964C24.2647 16.4451 23.3723 13.4471 21.5655 10.7894C21.5611 10.7806 21.5535 10.7742 21.5447 10.7704ZM13.3467 18.078C12.5583 18.078 11.9088 17.3542 11.9088 16.4654C11.9088 15.5765 12.5457 14.8528 13.3467 14.8528C14.1539 14.8528 14.7972 15.5829 14.7846 16.4654C14.7846 17.3542 14.1476 18.078 13.3467 18.078ZM18.6632 18.078C17.8748 18.078 17.2253 17.3542 17.2253 16.4654C17.2253 15.5765 17.8622 14.8528 18.6632 14.8528C19.4704 14.8528 20.1137 15.5829 20.1011 16.4654C20.1011 17.3542 19.4704 18.078 18.6632 18.078Z" fill="#E1F6B1"/>
</g>
<defs>
<filter id="filter0_b_804_2301" x="-20" y="-20" width="72" height="72" filterUnits="userSpaceOnUse" color-interpolation-filters="sRGB">
<feFlood flood-opacity="0" result="BackgroundImageFix"/>
<feGaussianBlur in="BackgroundImageFix" stdDeviation="10"/>
<feComposite in2="SourceAlpha" operator="in" result="effect1_backgroundBlur_804_2301"/>
<feBlend mode="normal" in="SourceGraphic" in2="effect1_backgroundBlur_804_2301" result="shape"/>
</filter>
</defs>
</svg>
