<svg width="172" height="176" viewBox="0 0 172 176" fill="none" xmlns="http://www.w3.org/2000/svg">
<g filter="url(#filter0_d_804_1797)">
<path d="M68.983 68C68.983 65.7909 70.7739 64 72.983 64H99.279C101.488 64 103.279 65.7909 103.279 68V94.0705C103.279 95.6754 102.32 97.1249 100.843 97.7522L87.6946 103.336C86.6954 103.76 85.5666 103.76 84.5674 103.336L71.4194 97.7522C69.9422 97.1249 68.983 95.6754 68.983 94.0705V68Z" fill="white"/>
</g>
<path d="M86.0951 98.2603C84.8469 98.2603 84.563 100.01 85.7471 100.404C85.973 100.48 86.2172 100.48 86.443 100.404C87.6271 100.01 87.3433 98.2603 86.0951 98.2603Z" fill="#343434"/>
<path d="M95.8955 80.6018C95.8955 82.0624 95.9606 82.6187 94.8485 82.6187C93.7364 82.6187 93.8081 82.0704 93.8081 80.6097V73.2275C93.8081 71.7669 93.6291 71.2249 94.7881 71.2518C96.1041 71.2824 95.8889 71.7669 95.8889 73.2275V73.9159C95.8889 74.5698 96.4189 75.0998 97.0727 75.0998C97.7265 75.0998 98.2566 74.5698 98.2566 73.9159V72.9069C98.2566 70.431 98.1271 69.0558 94.8044 69.094C91.4818 69.1323 91.4404 70.431 91.4404 72.9069V80.9937C91.4404 83.3984 91.5481 84.7385 94.8844 84.6635C98.2207 84.5886 98.2566 83.3984 98.2566 80.9937V79.3574C98.2566 78.7054 97.728 78.1768 97.076 78.1768C96.4241 78.1768 95.8955 78.7054 95.8955 79.3574V80.6018Z" fill="#343434"/>
<path d="M90.2925 70.457C90.2925 69.7834 89.7464 69.2373 89.0728 69.2373C88.3991 69.2373 87.853 69.7834 87.853 70.457V83.3718C87.853 84.0455 88.3991 84.5916 89.0728 84.5916C89.7464 84.5916 90.2925 84.0455 90.2925 83.3718V70.457Z" fill="#343434"/>
<path d="M82.7605 80.3546C82.7605 79.6131 83.3616 79.0119 84.1032 79.0119C85.6338 78.9585 86.5071 78.2449 86.774 77.266C86.9876 76.5541 86.9203 75.8126 86.9203 74.8337V72.9682C86.9203 71.9893 86.9159 71.4799 86.7023 70.7858C86.6133 70.4298 86.3814 70.145 86.1856 69.9492C85.8118 69.5399 85.0999 69.2373 84.1032 69.2373C82.0531 69.2373 80.3911 70.8993 80.3911 72.9494V83.4069C80.3911 84.0612 80.9215 84.5916 81.5758 84.5916C82.2301 84.5916 82.7605 84.0612 82.7605 83.4069V80.3546ZM84.4925 74.4569C84.4925 74.5014 84.4932 74.5447 84.4945 74.5892C84.5036 74.915 84.5361 76.3478 84.4091 76.5557C84.2133 76.8761 83.8896 76.9095 83.2667 76.9095C82.9871 76.9095 82.7605 76.6829 82.7605 76.4033V71.8998C82.7605 71.6203 82.9871 71.3937 83.2667 71.3937C83.8896 71.3937 84.1579 71.318 84.4052 71.659C84.5662 71.8809 84.4925 72.4232 84.4925 73.2775C84.4925 73.9301 84.4925 74.3126 84.4925 74.4569Z" fill="#343434"/>
<path d="M79.3149 83.4757C79.3149 82.8595 78.8153 82.3599 78.1991 82.3599H77.862C77.0596 82.3599 76.4091 81.7094 76.4091 80.907V79.2822C76.4091 78.5017 77.0418 77.869 77.8223 77.869H78.1555C78.7519 77.869 79.2354 77.3855 79.2354 76.789C79.2354 76.1926 78.7519 75.7091 78.1555 75.7091H77.8223C77.0418 75.7091 76.4091 75.0764 76.4091 74.2959V72.8786C76.4091 72.0761 77.0596 71.4256 77.862 71.4256H78.2207C78.825 71.4256 79.3149 70.9358 79.3149 70.3315C79.3149 69.7272 78.825 69.2373 78.2207 69.2373H76.6602C75.194 69.2373 74.0055 70.4259 74.0055 71.892V81.9369C74.0055 83.403 75.194 84.5916 76.6602 84.5916H78.1991C78.8153 84.5916 79.3149 84.092 79.3149 83.4757Z" fill="#343434"/>
<path d="M98.2566 89.7074C98.2566 88.036 95.7623 88.5382 95.7454 87.749C95.7416 87.5712 96.0683 87.462 96.3194 87.462C96.5789 87.462 96.8291 87.5581 97.0409 87.6662C97.3151 87.8062 97.6386 87.7502 97.8249 87.5051C98.0276 87.2384 98.0033 86.8375 97.7094 86.6769C97.4171 86.5174 96.9879 86.3857 96.2835 86.3857C95.1714 86.3857 94.5257 87.0251 94.5257 87.9283C94.5615 89.6862 97.0199 88.9642 97.0369 89.7579C97.0407 89.9357 96.8575 90.1884 96.3194 90.1884C95.9994 90.1884 95.6954 90.0131 95.4543 89.847C95.2224 89.6872 94.9306 89.7177 94.736 89.9212C94.4845 90.1841 94.4962 90.6162 94.81 90.8005C95.1749 91.0147 95.6986 91.2142 96.427 91.2142C97.5391 91.2142 98.2566 90.6107 98.2566 89.7074Z" fill="#343434"/>
<path d="M93.9516 90.5712C93.9516 90.875 93.7054 91.1212 93.4017 91.1212H92.0862C91.0559 91.1212 90.2207 90.286 90.2207 89.2557V88.2871C90.2207 87.2767 91.0398 86.4575 92.0503 86.4575H93.3265C93.6321 86.4575 93.8799 86.7053 93.8799 87.0109C93.8799 87.3166 93.6321 87.5644 93.3265 87.5644H91.8512C91.6672 87.5644 91.518 87.7135 91.518 87.8975C91.518 88.0815 91.6672 88.2307 91.8512 88.2307H93.1234C93.4215 88.2307 93.6631 88.4723 93.6631 88.7704C93.6631 89.0684 93.4215 89.3101 93.1234 89.3101H91.8736C91.6772 89.3101 91.518 89.4693 91.518 89.6656C91.518 89.862 91.6772 90.0212 91.8736 90.0212H93.4017C93.7054 90.0212 93.9516 90.2675 93.9516 90.5712Z" fill="#343434"/>
<path d="M88.6777 91.1212C88.3445 91.1212 88.0744 90.8511 88.0744 90.5179V89.9145C88.0744 89.4847 87.5124 89.3221 87.2829 89.6857C87.1147 89.9523 86.7259 89.9523 86.5577 89.6857C86.3282 89.3221 85.7662 89.4847 85.7662 89.9145V90.5179C85.7662 90.8511 85.496 91.1212 85.1628 91.1212H85.1235C84.7686 91.1212 84.4808 90.8335 84.4808 90.4785V87.3055C84.4808 86.8372 84.8605 86.4575 85.3289 86.4575C85.6202 86.4575 85.8911 86.6071 86.0464 86.8536L86.0865 86.9172C86.4718 87.5288 87.363 87.5303 87.7503 86.9199L87.7935 86.8517C87.9493 86.6063 88.2198 86.4575 88.5106 86.4575C88.9796 86.4575 89.3598 86.8377 89.3598 87.3067V90.4785C89.3598 90.8335 89.072 91.1212 88.7171 91.1212H88.6777Z" fill="#343434"/>
<path d="M79.8481 91.1212C79.4077 91.1212 79.1098 90.6721 79.2811 90.2664L80.6565 87.0074C80.7972 86.6741 81.1238 86.4575 81.4855 86.4575C81.8497 86.4575 82.1779 86.6771 82.317 87.0136L83.662 90.2683C83.8299 90.6746 83.5313 91.1212 83.0916 91.1212C82.8337 91.1212 82.603 90.9608 82.5132 90.7191L82.5064 90.701C82.4125 90.4484 82.1715 90.2808 81.902 90.2808H81.0424C80.7716 90.2808 80.5289 90.448 80.4324 90.701L80.4232 90.7251C80.3322 90.9636 80.1034 91.1212 79.8481 91.1212ZM81.7931 88.7641C81.6742 88.4616 81.2442 88.467 81.1329 88.7724C81.0491 89.0027 81.2196 89.2462 81.4646 89.2462C81.7134 89.2462 81.8841 88.9957 81.7931 88.7641Z" fill="#343434"/>
<path d="M77.8776 86.7032C78.165 86.8801 78.1992 87.2859 77.9826 87.5447C77.79 87.7747 77.4608 87.8108 77.1939 87.6739C76.9766 87.5623 76.766 87.4978 76.5167 87.4978C76.0597 87.4978 75.9807 87.5643 75.7275 87.8207C75.4797 88.0771 75.3328 88.3292 75.3328 88.7962C75.3328 89.2769 75.4797 89.5466 75.7275 89.7938C75.9752 90.0365 76.2059 90.1167 76.6243 90.1167C76.8742 90.1167 77.0187 90.0893 77.1646 90.0243C77.2707 89.9771 77.3307 89.8659 77.3307 89.7497C77.3307 89.5695 77.1847 89.4235 77.0045 89.4235H76.8367C76.5639 89.4235 76.3428 89.2023 76.3428 88.9295V88.8935C76.3428 88.6008 76.58 88.3636 76.8727 88.3636H77.4701C78.0927 88.3636 78.5974 88.8683 78.5974 89.4909V89.847C78.5974 90.3406 78.3524 90.8138 77.8841 90.9698C77.8163 90.9923 77.7458 91.0141 77.6724 91.035C77.287 91.1403 76.9126 91.1929 76.5492 91.1929C75.8224 91.1929 75.2168 90.9777 74.7323 90.5474C74.2478 90.1124 74.0055 89.5287 74.0055 88.7962C74.0055 88.0591 74.2478 87.4731 74.7323 87.0381C75.2168 86.6032 75.7899 86.3857 76.5167 86.3857C77.2022 86.3857 77.5724 86.5155 77.8776 86.7032Z" fill="#343434"/>
<defs>
<filter id="filter0_d_804_1797" x="0.983032" y="0" width="170.296" height="175.654" filterUnits="userSpaceOnUse" color-interpolation-filters="sRGB">
<feFlood flood-opacity="0" result="BackgroundImageFix"/>
<feColorMatrix in="SourceAlpha" type="matrix" values="0 0 0 0 0 0 0 0 0 0 0 0 0 0 0 0 0 0 127 0" result="hardAlpha"/>
<feOffset dy="4"/>
<feGaussianBlur stdDeviation="34"/>
<feColorMatrix type="matrix" values="0 0 0 0 0 0 0 0 0 0 0 0 0 0 0 0 0 0 0.25 0"/>
<feBlend mode="normal" in2="BackgroundImageFix" result="effect1_dropShadow_804_1797"/>
<feBlend mode="normal" in="SourceGraphic" in2="effect1_dropShadow_804_1797" result="shape"/>
</filter>
</defs>
</svg>
