<svg width="24" height="24" viewBox="0 0 24 24" fill="none" xmlns="http://www.w3.org/2000/svg">
<rect x="8.16003" y="10.56" width="7.68" height="6.24" fill="#20251A"/>
<path d="M17.2954 9.03592C17.3175 9.1393 17.3229 9.24397 17.3208 9.34936C17.3205 9.3643 17.3221 9.38483 17.3314 9.39336C17.3605 9.41996 17.354 9.45283 17.3561 9.48525C17.3627 9.588 17.3707 9.69065 17.3775 9.79338C17.3792 9.81868 17.3781 9.84415 17.3793 9.86949C17.3828 9.94141 17.3865 10.0133 17.3908 10.0852C17.3913 10.0946 17.3924 10.1072 17.3985 10.1125C17.4312 10.1413 17.4254 10.1792 17.4257 10.2158C17.4261 10.2568 17.4258 10.2978 17.4261 10.3388C17.4262 10.3524 17.4227 10.3683 17.4283 10.3794C17.4598 10.4424 17.4465 10.5096 17.4487 10.5751C17.4508 10.6375 17.4486 10.7001 17.4505 10.7626C17.451 10.7812 17.4532 10.8104 17.4644 10.8163C17.5014 10.8357 17.496 10.8664 17.4952 10.8966C17.493 10.9904 17.507 11.0826 17.5161 11.1755C17.524 11.2549 17.5188 11.3355 17.5195 11.4155C17.5197 11.4426 17.5169 11.4692 17.544 11.4895C17.5532 11.4963 17.5542 11.5175 17.5547 11.5322C17.5588 11.6529 17.5601 11.7738 17.566 11.8944C17.5708 11.9931 17.5813 12.0916 17.5884 12.1902C17.59 12.2121 17.5923 12.2311 17.6107 12.2477C17.6202 12.2562 17.6229 12.2751 17.6239 12.2896C17.6278 12.3473 17.6202 12.4051 17.6451 12.4619C17.6566 12.4883 17.6506 12.5237 17.6481 12.5547C17.6402 12.655 17.6689 12.7473 17.7045 12.8387C17.7114 12.8564 17.7155 12.8759 17.7176 12.8949C17.7231 12.947 17.7267 12.9994 17.7313 13.0516C17.7348 13.0923 17.7381 13.1329 17.7423 13.1735C17.7439 13.1887 17.7427 13.2103 17.7518 13.2174C17.7818 13.241 17.7763 13.2716 17.7783 13.3022C17.7805 13.3371 17.7863 13.3717 17.7895 13.4065C17.7939 13.4529 17.7979 13.4993 17.801 13.5458C17.8052 13.6099 17.8083 13.674 17.8124 13.7381C17.813 13.7475 17.8135 13.7612 17.8195 13.7654C17.8544 13.7906 17.8471 13.827 17.8472 13.8612C17.8476 13.9784 17.8456 14.0956 17.8481 14.2127C17.8501 14.3049 17.84 14.3952 17.8217 14.4852C17.8164 14.5117 17.8138 14.5389 17.8121 14.566C17.8031 14.7095 17.8031 14.8532 17.7817 14.9964C17.7721 15.0604 17.7415 15.1174 17.7373 15.1819C17.7346 15.2223 17.7264 15.2626 17.7176 15.3024C17.7069 15.3515 17.6938 15.4002 17.6803 15.4487C17.6672 15.4954 17.6543 15.5424 17.6375 15.5879C17.6112 15.6591 17.5835 15.7299 17.553 15.7994C17.5116 15.8937 17.4719 15.9894 17.4219 16.0792C17.3913 16.1341 17.3632 16.1907 17.3221 16.2419C17.2806 16.2936 17.2433 16.3513 17.2025 16.4051C17.1379 16.4901 17.0669 16.569 16.9826 16.6355C16.9552 16.6572 16.935 16.689 16.906 16.7074C16.8507 16.7424 16.8243 16.8097 16.7576 16.8323C16.738 16.8389 16.7261 16.8657 16.7086 16.8808C16.6357 16.9433 16.563 17.0062 16.4882 17.0664C16.4201 17.1212 16.3496 17.1729 16.2797 17.2254C16.1446 17.3268 16.0053 17.4221 15.8599 17.5078C15.773 17.559 15.6818 17.603 15.593 17.651C15.5245 17.6881 15.4575 17.728 15.3883 17.7639C15.3365 17.7908 15.2827 17.8141 15.2292 17.8377C15.1545 17.8706 15.0793 17.9022 15.0043 17.9343C14.8917 17.9826 14.7795 18.0317 14.6664 18.0787C14.6111 18.1017 14.5535 18.1195 14.4979 18.142C14.4083 18.1783 14.3221 18.2256 14.2297 18.2513C14.1349 18.2778 14.0508 18.3272 13.9584 18.3575C13.8738 18.3852 13.7922 18.4221 13.7077 18.4502C13.6476 18.4702 13.585 18.4828 13.5234 18.4982C13.4177 18.5245 13.3117 18.5498 13.2062 18.5767C13.0967 18.6045 12.9858 18.623 12.8734 18.6336C12.8135 18.6392 12.7513 18.6405 12.6949 18.6584C12.5984 18.689 12.5006 18.69 12.4019 18.6924C12.332 18.6942 12.2621 18.7031 12.1923 18.7025C12.099 18.7016 12.0057 18.6949 11.9125 18.69C11.8991 18.6893 11.8848 18.6871 11.8727 18.6815C11.7912 18.6441 11.7022 18.6466 11.6163 18.6331C11.555 18.6235 11.4916 18.6251 11.4314 18.6117C11.2589 18.5732 11.0861 18.5349 10.9165 18.4861C10.8058 18.4542 10.6916 18.4299 10.5886 18.3736C10.5618 18.359 10.5291 18.3556 10.5 18.3448C10.3752 18.2985 10.2534 18.2444 10.1306 18.1933C10.0838 18.1738 10.0358 18.1607 9.98896 18.143C9.90421 18.1109 9.82196 18.0719 9.73635 18.0425C9.67104 18.0201 9.61446 17.9727 9.5407 17.9737C9.53269 17.9738 9.52472 17.9636 9.51643 17.9586C9.49638 17.9467 9.47744 17.9312 9.45578 17.9241C9.37486 17.8975 9.30092 17.8575 9.22646 17.8169C9.15513 17.778 9.07786 17.7501 9.00516 17.7135C8.94845 17.6849 8.8947 17.6505 8.83974 17.6185C8.80368 17.5975 8.7682 17.5754 8.73175 17.5551C8.69458 17.5344 8.65576 17.5167 8.61905 17.4952C8.54 17.4491 8.46178 17.4016 8.38345 17.3543C8.37726 17.3506 8.37218 17.3444 8.36775 17.3385C8.36318 17.3325 8.36001 17.3195 8.35627 17.3195C8.29382 17.3197 8.27504 17.2575 8.23016 17.2312C8.15195 17.1854 8.07521 17.1328 8.01006 17.0703C7.96235 17.0246 7.90765 16.9899 7.85882 16.947C7.82237 16.915 7.78462 16.8844 7.74804 16.8525C7.70171 16.8122 7.65558 16.7715 7.61016 16.7301C7.59032 16.712 7.57281 16.6914 7.55361 16.6726C7.48941 16.6096 7.42498 16.5468 7.36051 16.4841C7.35075 16.4746 7.34047 16.4656 7.33005 16.4569C7.32263 16.4506 7.30896 16.4462 7.30768 16.4392C7.29502 16.3702 7.23336 16.3368 7.1963 16.2859C7.14432 16.2147 7.10112 16.1398 7.06643 16.0591C7.04511 16.0095 7.01902 15.9619 6.99632 15.9129C6.94598 15.8041 6.88579 15.6991 6.86522 15.5787C6.80808 15.4979 6.81015 15.3978 6.77913 15.3083C6.74623 15.2134 6.7299 15.1126 6.707 15.0143C6.70395 15.0012 6.70373 14.9871 6.70402 14.9736C6.7053 14.913 6.69883 14.8542 6.68583 14.7944C6.67272 14.7342 6.67137 14.6709 6.66925 14.6088C6.66362 14.4432 6.65967 14.2776 6.65643 14.112C6.65487 14.0319 6.65397 13.9517 6.6573 13.8718C6.66013 13.804 6.66977 13.7365 6.67577 13.6689C6.678 13.6437 6.67851 13.6183 6.67972 13.593C6.68139 13.5584 6.67539 13.5229 6.69856 13.4915C6.70458 13.4833 6.70437 13.4688 6.70335 13.4575C6.69315 13.3451 6.72741 13.2381 6.74308 13.1289C6.75327 13.0579 6.76332 12.9868 6.77354 12.9158C6.77491 12.9062 6.77343 12.893 6.77908 12.8879C6.8145 12.8558 6.80714 12.8137 6.80973 12.7733C6.8112 12.7502 6.81709 12.7274 6.8214 12.7046C6.82463 12.6875 6.83154 12.6705 6.83151 12.6534C6.83143 12.604 6.83831 12.5582 6.86484 12.5139C6.87772 12.4924 6.87745 12.4612 6.87781 12.4343C6.87903 12.3428 6.8779 12.2514 6.90005 12.1614C6.90507 12.141 6.90167 12.1186 6.90247 12.0972C6.90381 12.0609 6.89853 12.0242 6.92549 11.9921C6.93547 11.9802 6.93699 11.959 6.93772 11.9419C6.94212 11.8388 6.94442 11.7356 6.94895 11.6324C6.9521 11.5607 6.95799 11.489 6.96214 11.4173C6.96597 11.3512 6.96923 11.2852 6.97247 11.2191C6.97351 11.1979 6.9735 11.1788 6.98996 11.1597C7.00229 11.1454 7.00605 11.1207 7.0071 11.1003C7.00961 11.0516 7.00711 11.0027 7.00884 10.9539C7.01027 10.9132 7.01518 10.8726 7.01794 10.8319C7.02294 10.7582 7.028 10.6846 7.03199 10.6109C7.03376 10.578 7.03552 10.5488 7.05648 10.5179C7.07434 10.4916 7.07476 10.4513 7.07681 10.4169C7.08006 10.3624 7.07579 10.3074 7.07915 10.2529C7.08344 10.1833 7.09395 10.114 7.0984 10.0444C7.10213 9.98601 7.09968 9.92726 7.10274 9.86882C7.1039 9.84673 7.11296 9.82508 7.1182 9.80318C7.12088 9.79201 7.12386 9.78083 7.12525 9.76947C7.12642 9.75985 7.12525 9.74997 7.12553 9.74021C7.12791 9.65742 7.12269 9.57556 7.14639 9.4927C7.18034 9.37398 7.17185 9.24942 7.17102 9.12681C7.17082 9.09649 7.17487 9.06885 7.19791 9.03907C7.21203 9.02948 7.22181 9.02599 7.22819 9.01927C7.29258 8.95149 7.36136 8.88709 7.41915 8.81402C7.49204 8.72188 7.57147 8.63636 7.65752 8.55749C7.70874 8.51054 7.76632 8.46833 7.82683 8.43426C7.90989 8.38749 7.9981 8.34974 8.08473 8.30946C8.16759 8.27093 8.24908 8.22786 8.33508 8.19806C8.45416 8.1568 8.57614 8.12319 8.69825 8.09155C8.88065 8.04429 9.06363 7.99893 9.2475 7.95785C9.38937 7.92616 9.53279 7.90119 9.6759 7.8754C9.75405 7.86131 9.83282 7.85029 9.91164 7.84048C9.99244 7.83042 10.0739 7.82536 10.1546 7.81478C10.2544 7.80169 10.3538 7.78446 10.4535 7.7703C10.6012 7.74932 10.7501 7.7349 10.8966 7.70725C10.9959 7.6885 11.0966 7.68892 11.196 7.6676C11.2841 7.6487 11.378 7.65321 11.4693 7.65301C11.9868 7.65191 12.5043 7.65249 13.0218 7.65254C13.0375 7.65254 13.0532 7.65196 13.0687 7.65331C13.1517 7.66051 13.2347 7.66862 13.3178 7.67564C13.3758 7.68055 13.4343 7.68185 13.492 7.68893C13.6055 7.70286 13.7186 7.71929 13.8318 7.73545C13.9373 7.7505 14.0425 7.7675 14.1481 7.78192C14.2959 7.80212 14.4439 7.82081 14.5919 7.83997C14.688 7.85241 14.7853 7.85892 14.8801 7.87797C15.0798 7.91812 15.2787 7.96291 15.4771 8.00935C15.6245 8.04386 15.7712 8.08197 15.9171 8.1223C16.0127 8.14872 16.1092 8.17528 16.2003 8.2137C16.3419 8.27342 16.4802 8.34121 16.6179 8.40954C16.7251 8.46271 16.8184 8.537 16.901 8.62298C16.9711 8.69583 17.037 8.77267 17.1039 8.8486C17.1462 8.89672 17.1862 8.94689 17.2284 8.99515C17.2461 9.01534 17.2631 9.03882 17.2954 9.03592ZM10.7272 10.138C10.7218 10.1388 10.7164 10.1396 10.7002 10.1383C10.5659 10.1444 10.4315 10.1504 10.2972 10.1568C10.2485 10.1592 10.1999 10.163 10.1513 10.1658C9.99371 10.1749 9.83623 10.1894 9.67859 10.1914C9.47922 10.1939 9.28268 10.2038 9.08785 10.2551C8.80178 10.3304 8.52633 10.4308 8.26404 10.5672C8.2384 10.5805 8.21553 10.5992 8.18329 10.6172C8.09912 10.6635 8.0259 10.7245 7.9576 10.7911C7.85716 10.8891 7.76987 10.9986 7.68766 11.112C7.65019 11.1637 7.61652 11.2181 7.57486 11.2741C7.5709 11.2818 7.56694 11.2895 7.55709 11.3031C7.53765 11.3391 7.51821 11.375 7.49205 11.4146C7.48429 11.4301 7.47654 11.4457 7.46365 11.4668C7.45935 11.4784 7.45505 11.4901 7.44397 11.507C7.43153 11.5392 7.4156 11.5705 7.4077 11.6037C7.40105 11.6317 7.40476 11.662 7.40201 11.691C7.3985 11.7281 7.4125 11.7552 7.44355 11.775C7.47317 11.7939 7.50394 11.8114 7.53125 11.8333C7.67419 11.9477 7.79192 12.0849 7.89381 12.2364C7.94498 12.3125 7.99327 12.391 8.05004 12.4627C8.09925 12.5248 8.15859 12.5789 8.21523 12.6426C8.22147 12.6477 8.22771 12.6528 8.23695 12.6656C8.28384 12.7176 8.32841 12.772 8.3781 12.8212C8.46805 12.9103 8.5622 12.9951 8.65254 13.0838C8.82403 13.2521 9.02318 13.3724 9.25465 13.4389C9.32724 13.4598 9.39888 13.484 9.48234 13.5079C9.58119 13.5132 9.67564 13.5443 9.77511 13.5521C9.90619 13.5625 10.0356 13.5568 10.164 13.5408C10.2804 13.5263 10.3969 13.5058 10.5087 13.4658C10.5939 13.4353 10.682 13.4127 10.767 13.3817C10.8234 13.3611 10.877 13.3326 10.9313 13.3064C10.9694 13.2879 11.0095 13.2725 11.0354 13.2344C11.0444 13.2212 11.0639 13.2152 11.0856 13.2026C11.1129 13.1877 11.1404 13.173 11.1676 13.1581C11.2066 13.1367 11.2441 13.1123 11.2845 13.0942C11.468 13.0121 11.6604 12.9627 11.8613 12.9548C12.0329 12.948 12.2048 12.9482 12.3765 12.9471C12.5346 12.9461 12.6917 12.9499 12.8484 12.9812C13.0483 13.0211 13.2342 13.0901 13.4118 13.2047C13.4783 13.2413 13.5433 13.2807 13.6115 13.3138C13.7443 13.3782 13.8784 13.4401 14.0216 13.4794C14.189 13.5253 14.3594 13.552 14.5327 13.5569C14.6043 13.5589 14.6763 13.5468 14.7481 13.5476C14.8393 13.5486 14.9233 13.5161 15.0204 13.4992C15.1213 13.4697 15.2224 13.4412 15.3229 13.4104C15.4705 13.3653 15.6018 13.289 15.7199 13.1908C15.7888 13.1335 15.8537 13.0714 15.9198 13.0108C15.9802 12.9554 16.042 12.9014 16.0992 12.8429C16.1713 12.7691 16.2367 12.6887 16.3099 12.6162C16.4104 12.5165 16.4916 12.4026 16.5691 12.2855C16.6958 12.0941 16.8342 11.9135 17.0323 11.789C17.0867 11.7548 17.1033 11.7098 17.0848 11.6409C17.084 11.6318 17.0832 11.6227 17.0849 11.6043C17.0841 11.5927 17.0866 11.5796 17.082 11.5697C17.0529 11.506 17.0284 11.439 16.9909 11.3805C16.912 11.2576 16.8293 11.137 16.7423 11.0197C16.5855 10.8083 16.3927 10.6384 16.1526 10.5253C15.8943 10.4036 15.6274 10.3075 15.3491 10.2425C15.1982 10.2072 15.045 10.196 14.8909 10.1902C14.6982 10.183 14.5054 10.176 14.3127 10.1683C14.1705 10.1626 14.0284 10.1559 13.8771 10.1477C13.8644 10.1475 13.8518 10.1474 13.83 10.1444C13.7785 10.1424 13.7269 10.1403 13.665 10.1362C13.6333 10.1362 13.6015 10.1361 13.56 10.1338C13.4852 10.1314 13.4103 10.1291 13.3253 10.1249C13.3012 10.1245 13.2771 10.1241 13.2437 10.1211C13.1884 10.119 13.1331 10.1169 13.0692 10.1127C13.0603 10.1129 13.0515 10.113 13.0337 10.1097C12.9188 10.104 12.8038 10.0984 12.6889 10.0926C12.5914 10.0877 12.4937 10.086 12.3966 10.0767C12.2931 10.0668 12.1906 10.0644 12.0872 10.0781C12.0274 10.0861 11.9668 10.0894 11.9064 10.0908C11.8088 10.0931 11.711 10.0896 11.6135 10.0934C11.5359 10.0964 11.4585 10.1066 11.3716 10.1127C11.3623 10.1136 11.3529 10.1146 11.333 10.1139C11.2822 10.1172 11.2314 10.1205 11.1699 10.1226C11.1343 10.1241 11.0987 10.1256 11.0522 10.1254C10.9775 10.129 10.9028 10.1326 10.8182 10.1349C10.8017 10.136 10.7852 10.1371 10.7641 10.1346C10.7545 10.1362 10.745 10.1378 10.7272 10.138Z" fill="#212D04"/>
<path d="M7.68591 8.30922C7.73685 8.22931 7.77572 8.14349 7.80488 8.05373C7.81735 8.01535 7.83009 7.97851 7.85122 7.94357C7.86472 7.92123 7.86948 7.89305 7.87533 7.86686C7.87877 7.85148 7.88439 7.84256 7.89632 7.83053C7.91485 7.81183 7.92126 7.78123 7.93317 7.75584C7.96279 7.69269 7.99376 7.63014 8.02192 7.56634C8.03906 7.52752 8.04894 7.48569 8.08335 7.45587C8.09232 7.4481 8.09641 7.43142 8.09735 7.41845C8.09875 7.39913 8.1017 7.38369 8.12372 7.37943C8.12545 7.37909 8.12796 7.3775 8.12832 7.37605C8.1469 7.30086 8.2274 7.26014 8.23739 7.18019C8.23786 7.17642 8.23808 7.17084 8.24047 7.16933C8.3049 7.12851 8.32395 7.05061 8.37805 7.00101C8.39291 6.98739 8.39918 6.96483 8.41131 6.94773C8.45705 6.88321 8.50486 6.82013 8.54945 6.75483C8.59299 6.69108 8.6461 6.63563 8.69895 6.58041C8.79697 6.478 8.8976 6.37804 8.99924 6.27921C9.0195 6.25951 9.05071 6.25161 9.07416 6.23454C9.1569 6.17431 9.23879 6.11288 9.32023 6.0509C9.34002 6.03584 9.35603 6.0159 9.37532 6.00009C9.39314 5.98549 9.41174 5.97067 9.43236 5.96098C9.45356 5.95102 9.47673 5.94629 9.4869 5.92137C9.48889 5.91649 9.49468 5.9126 9.49954 5.90955C9.54856 5.87878 9.59878 5.8498 9.64667 5.81736C9.74082 5.7536 9.84362 5.70411 9.93536 5.63588C9.98728 5.59727 10.0491 5.5721 10.1058 5.5397C10.1546 5.51178 10.2022 5.48171 10.2508 5.45347C10.3008 5.42444 10.3509 5.39553 10.402 5.36836C10.4425 5.34681 10.4886 5.33354 10.5247 5.30649C10.5682 5.27382 10.6191 5.26225 10.6661 5.24004C10.6779 5.23448 10.6893 5.22809 10.701 5.22245C10.7303 5.20836 10.7585 5.1901 10.7894 5.18177C10.8194 5.17368 10.8502 5.1716 10.8742 5.14814C10.8806 5.14192 10.8918 5.13967 10.9013 5.13776C10.9692 5.124 11.0294 5.09025 11.093 5.06537C11.1792 5.03172 11.2532 4.97926 11.3295 4.92966C11.386 4.89292 11.4436 4.85777 11.4993 4.81989C11.5197 4.80603 11.5357 4.78586 11.5544 4.76939C11.6341 4.69937 11.7124 4.6276 11.7946 4.56067C11.839 4.5245 11.8902 4.49666 11.9386 4.46545C11.9433 4.46245 11.9521 4.46406 11.955 4.46039C11.9944 4.41026 12.0486 4.40354 12.1072 4.40398C12.1252 4.40411 12.149 4.39663 12.16 4.38389C12.1781 4.36295 12.198 4.35777 12.222 4.36006C12.2578 4.36346 12.2947 4.35037 12.3292 4.3762C12.3497 4.39156 12.378 4.40269 12.4034 4.40387C12.4404 4.40558 12.4714 4.41913 12.5028 4.43458C12.5942 4.47943 12.6787 4.53279 12.7495 4.60832C12.7902 4.65172 12.8415 4.68494 12.8865 4.72452C12.9665 4.795 13.0503 4.86092 13.1399 4.91832C13.2313 4.97689 13.3255 5.03045 13.4245 5.07694C13.5284 5.1257 13.6403 5.15113 13.7433 5.2004C13.7905 5.22299 13.8389 5.2431 13.8855 5.2669C14.0432 5.34746 14.2055 5.41962 14.3515 5.52175C14.3546 5.52397 14.3578 5.52659 14.3614 5.52781C14.4617 5.56188 14.5448 5.62614 14.6331 5.68145C14.707 5.72776 14.7842 5.76925 14.8559 5.81879C14.9548 5.88719 15.0545 5.95434 15.1466 6.03278C15.2158 6.09167 15.2967 6.13669 15.3715 6.18919C15.4384 6.23619 15.4993 6.28995 15.5566 6.34887C15.6161 6.41015 15.688 6.46027 15.7424 6.5254C15.8113 6.60789 15.9076 6.66612 15.9545 6.76824C15.9668 6.79491 15.9813 6.8251 16.0167 6.83438C16.0236 6.83619 16.0273 6.85254 16.0314 6.86261C16.0454 6.89684 16.0562 6.93289 16.0928 6.95176C16.0993 6.9551 16.1063 6.96157 16.1087 6.96817C16.1324 7.03522 16.1862 7.08192 16.2225 7.13985C16.2474 7.17972 16.2884 7.21308 16.2915 7.26594C16.2919 7.27268 16.2982 7.28003 16.3035 7.2854C16.3567 7.33909 16.3859 7.40718 16.4193 7.47321C16.4513 7.53679 16.4889 7.59758 16.5209 7.66124C16.5449 7.70919 16.5641 7.75958 16.5848 7.80919C16.5986 7.84241 16.6065 7.87879 16.6406 7.89987C16.6453 7.9028 16.6466 7.91192 16.6486 7.91844C16.6528 7.932 16.6558 7.94593 16.6605 7.9593C16.6624 7.96454 16.6707 7.96889 16.6704 7.9733C16.6661 8.04375 16.7239 8.09061 16.738 8.15382C16.74 8.16282 16.7388 8.17254 16.739 8.18193C16.7392 8.19137 16.7361 8.20718 16.7401 8.20925C16.7737 8.22665 16.7699 8.2612 16.7766 8.29299C16.7453 8.29116 16.7151 8.29046 16.6893 8.27936C16.5913 8.23716 16.4968 8.18608 16.3972 8.14863C16.2554 8.09537 16.111 8.04864 15.9663 8.00411C15.8812 7.97793 15.793 7.96169 15.7064 7.9405C15.4991 7.88981 15.292 7.83829 15.0845 7.78827C15.0185 7.77236 14.952 7.75846 14.8852 7.74661C14.8184 7.73477 14.751 7.72696 14.684 7.71683C14.5959 7.70351 14.5079 7.68888 14.4197 7.67629C14.3584 7.66754 14.2966 7.66181 14.2352 7.65373C14.1775 7.64616 14.1201 7.6372 14.0625 7.629C13.9916 7.61889 13.9206 7.60909 13.8496 7.59885C13.7576 7.58557 13.6658 7.57058 13.5735 7.55894C13.4928 7.54875 13.4116 7.54135 13.3305 7.5342C13.2359 7.52586 13.1411 7.51313 13.0464 7.51269C12.5681 7.51049 12.0898 7.51077 11.6115 7.5122C11.4675 7.51263 11.3235 7.51955 11.1795 7.52354C11.1737 7.5237 11.1678 7.52389 11.162 7.52467C11.0795 7.53585 10.9969 7.54663 10.9145 7.5585C10.8168 7.57257 10.7191 7.58749 10.6215 7.60223C10.564 7.61091 10.5067 7.62116 10.449 7.62851C10.3721 7.6383 10.2947 7.64418 10.2179 7.65493C10.0952 7.67212 9.97279 7.69177 9.85029 7.71066C9.71815 7.73105 9.58517 7.74729 9.45421 7.77354C9.31349 7.80175 9.17452 7.83883 9.03511 7.87338C8.98042 7.88693 8.92698 7.90546 8.87236 7.91935C8.73515 7.95424 8.59658 7.98419 8.46041 8.02268C8.24503 8.08357 8.03866 8.16946 7.83333 8.25799C7.78591 8.27844 7.74159 8.3113 7.68591 8.30922Z" fill="#212D04"/>
<path d="M7.68363 8.31223C7.74168 8.31139 7.78599 8.27852 7.83341 8.25808C8.03874 8.16954 8.24511 8.08366 8.46049 8.02277C8.59666 7.98427 8.73523 7.95433 8.87245 7.91944C8.92706 7.90555 8.98051 7.88702 9.0352 7.87346C9.1746 7.83892 9.31357 7.80183 9.45429 7.77363C9.58526 7.74738 9.71824 7.73113 9.85037 7.71075C9.97287 7.69186 10.0953 7.6722 10.218 7.65502C10.2948 7.64427 10.3722 7.63839 10.4491 7.62859C10.5068 7.62125 10.5641 7.611 10.6216 7.60232C10.7192 7.58758 10.8169 7.57266 10.9146 7.55858C10.997 7.54672 11.0796 7.53593 11.1621 7.52476C11.1679 7.52398 11.1738 7.52379 11.1796 7.52363C11.3236 7.51964 11.4676 7.51272 11.6116 7.51229C12.0899 7.51086 12.5682 7.51058 13.0465 7.51278C13.1412 7.51322 13.236 7.52595 13.3306 7.53429C13.4117 7.54144 13.4929 7.54883 13.5736 7.55903C13.6659 7.57067 13.7577 7.58565 13.8497 7.59894C13.9207 7.60918 13.9917 7.61897 14.0626 7.62909C14.1202 7.63729 14.1776 7.64625 14.2353 7.65382C14.2967 7.66189 14.3585 7.66762 14.4198 7.67637C14.508 7.68897 14.5959 7.7036 14.6841 7.71691C14.7511 7.72705 14.8185 7.73486 14.8852 7.7467C14.9521 7.75855 15.0186 7.77244 15.0846 7.78835C15.2921 7.83838 15.4992 7.88989 15.7065 7.94059C15.7931 7.96178 15.8813 7.97802 15.9663 8.00419C16.1111 8.04873 16.2555 8.09545 16.3972 8.14872C16.4969 8.18617 16.5914 8.23725 16.6894 8.27944C16.7152 8.29054 16.7454 8.29125 16.7789 8.29653C16.8896 8.35575 16.9804 8.43278 17.0572 8.52605C17.1151 8.59644 17.1737 8.66653 17.2277 8.73989C17.2715 8.79932 17.309 8.86289 17.2974 8.94312C17.2935 8.96985 17.2966 8.99758 17.296 9.03038C17.2631 9.0388 17.2461 9.01533 17.2284 8.99513C17.1862 8.94687 17.1462 8.89671 17.1039 8.84858C17.0371 8.77266 16.9711 8.69582 16.9011 8.62296C16.8184 8.53698 16.7251 8.46269 16.6179 8.40953C16.4802 8.34119 16.3419 8.27341 16.2003 8.21369C16.1092 8.17526 16.0127 8.1487 15.9171 8.12228C15.7712 8.08195 15.6245 8.04385 15.4771 8.00934C15.2787 7.96289 15.0799 7.9181 14.8801 7.87795C14.7853 7.8589 14.688 7.8524 14.5919 7.83995C14.444 7.8208 14.2959 7.8021 14.1481 7.78191C14.0426 7.76748 13.9373 7.75049 13.8318 7.73543C13.7187 7.71928 13.6055 7.70284 13.492 7.68892C13.4343 7.68183 13.3759 7.68053 13.3178 7.67563C13.2348 7.66861 13.1518 7.66049 13.0687 7.65329C13.0532 7.65195 13.0375 7.65252 13.0219 7.65252C12.5044 7.65248 11.9868 7.65189 11.4693 7.653C11.378 7.65319 11.2842 7.64869 11.196 7.66759C11.0967 7.6889 10.9959 7.68849 10.8966 7.70723C10.7502 7.73488 10.6012 7.7493 10.4535 7.77028C10.3538 7.78444 10.2545 7.80168 10.1546 7.81477C10.0739 7.82535 9.99246 7.83041 9.91166 7.84047C9.83285 7.85028 9.75407 7.86129 9.67593 7.87538C9.53281 7.90118 9.38939 7.92614 9.24753 7.95784C9.06365 7.99891 8.88067 8.04428 8.69828 8.09154C8.57617 8.12317 8.45418 8.15679 8.3351 8.19805C8.2491 8.22785 8.16761 8.27092 8.08475 8.30944C7.99813 8.34972 7.90992 8.38748 7.82685 8.43425C7.76635 8.46832 7.70876 8.51053 7.65754 8.55747C7.57149 8.63634 7.49207 8.72186 7.41918 8.81401C7.36138 8.88707 7.2926 8.95147 7.22821 9.01926C7.22183 9.02597 7.21205 9.02946 7.19988 9.03497C7.19565 9.00826 7.19572 8.98102 7.19505 8.95381C7.19273 8.86013 7.22908 8.7813 7.28628 8.70962C7.31866 8.66905 7.3477 8.62582 7.38006 8.58523C7.39435 8.5673 7.41341 8.55323 7.42981 8.53692C7.47503 8.49196 7.5182 8.44475 7.56561 8.40226C7.60142 8.37017 7.64252 8.34398 7.68363 8.31223Z" fill="#A5E314"/>
<path d="M7.4987 11.411C7.51814 11.375 7.53758 11.3391 7.56338 11.2992C7.57352 11.2873 7.57729 11.2793 7.58106 11.2713C7.61645 11.2181 7.65012 11.1637 7.68759 11.112C7.76981 10.9986 7.85709 10.8891 7.95753 10.7911C8.02584 10.7245 8.09905 10.6635 8.18724 10.6207C8.18973 10.6402 8.1882 10.6562 8.18583 10.6809C8.21127 10.6696 8.22878 10.6623 8.24589 10.6541C8.33724 10.6106 8.42788 10.5656 8.52 10.5238C8.57132 10.5006 8.62475 10.4818 8.67773 10.4623C8.78884 10.4215 8.89817 10.3756 9.01612 10.3556C9.07714 10.3452 9.13719 10.329 9.19751 10.3147C9.27341 10.2966 9.34958 10.2813 9.4282 10.2893C9.45517 10.292 9.48189 10.2996 9.5088 10.3C9.65666 10.3023 9.80431 10.3025 9.95138 10.2803C9.99804 10.2732 10.0468 10.2793 10.0946 10.2809C10.1196 10.2818 10.1448 10.2901 10.1695 10.2884C10.2546 10.2824 10.3396 10.2747 10.4243 10.2653C10.5071 10.2562 10.5894 10.2437 10.6721 10.2337C10.7411 10.2252 10.8085 10.2166 10.8802 10.226C10.9597 10.2363 11.0423 10.2414 11.1237 10.2281C11.1752 10.2197 11.227 10.2117 11.2791 10.2078C11.3198 10.2048 11.3611 10.2064 11.4019 10.2095C11.4733 10.2151 11.5444 10.2268 11.6159 10.2297C11.7443 10.235 11.8723 10.2253 11.9997 10.2077C12.0362 10.2027 12.0729 10.1967 12.1095 10.1964C12.154 10.1961 12.1985 10.2031 12.243 10.2037C12.2795 10.2043 12.3166 10.1953 12.3526 10.199C12.494 10.2134 12.6355 10.221 12.7777 10.2191C12.8948 10.2175 13.0121 10.2165 13.1292 10.2197C13.1929 10.2214 13.2562 10.2355 13.3199 10.238C13.4016 10.2412 13.4834 10.239 13.5652 10.2378C13.6195 10.237 13.6742 10.2287 13.7281 10.2327C13.8265 10.2401 13.9242 10.2578 14.0227 10.2645C14.1391 10.2725 14.256 10.2732 14.3727 10.2775C14.4053 10.2787 14.4387 10.2873 14.4704 10.283C14.5837 10.2677 14.6953 10.2836 14.8076 10.2926C14.8574 10.2965 14.9077 10.2932 14.9579 10.2934C15.0258 10.2936 15.0954 10.285 15.1614 10.2968C15.2235 10.3079 15.2846 10.3135 15.3468 10.3121C15.3807 10.3113 15.4116 10.3033 15.4435 10.3311C15.4648 10.3497 15.5011 10.3557 15.5315 10.3582C15.6468 10.3678 15.7565 10.398 15.8625 10.4421C15.9521 10.4795 16.042 10.517 16.1282 10.5613C16.223 10.61 16.3156 10.664 16.4015 10.7276C16.4435 10.7587 16.4823 10.7948 16.5197 10.8315C16.554 10.8653 16.5851 10.9024 16.6164 10.9391C16.6591 10.9894 16.7033 11.0389 16.7421 11.0922C16.8002 11.1723 16.853 11.2562 16.9102 11.337C16.9696 11.4209 17.0219 11.5079 17.0483 11.6103C17.0594 11.6114 17.0709 11.6125 17.0824 11.6136C17.0832 11.6227 17.084 11.6318 17.0812 11.6482C17.0752 11.6855 17.045 11.6853 17.0283 11.6995C16.9292 11.7834 16.8283 11.8654 16.742 11.9633C16.7098 11.9997 16.6749 12.0341 16.6467 12.0734C16.5991 12.1395 16.5547 12.208 16.511 12.2768C16.4028 12.4472 16.2578 12.5864 16.1223 12.7334C16.0499 12.8119 15.9682 12.8819 15.8899 12.9549C15.8804 12.9638 15.8657 12.967 15.8535 12.9729C15.8495 12.9699 15.8455 12.9668 15.8415 12.9638C15.8465 12.9361 15.8473 12.9068 15.8572 12.881C15.8862 12.8047 15.92 12.7302 15.9497 12.6541C15.9757 12.5872 15.9994 12.5194 16.0227 12.4515C16.0562 12.3542 16.0879 12.2563 16.1212 12.1589C16.1329 12.125 16.1426 12.0932 16.1204 12.0586C16.1088 12.0404 16.1087 12.0188 16.1259 11.9993C16.1708 11.9483 16.1798 11.8853 16.1838 11.8205C16.1854 11.7955 16.1905 11.7707 16.1922 11.7457C16.1928 11.7371 16.1879 11.7281 16.1851 11.7148C16.2085 11.6607 16.2155 11.6087 16.2121 11.5523C16.2364 11.5062 16.2268 11.477 16.1855 11.4742C16.1361 11.4709 16.0882 11.4603 16.0361 11.4708C15.8924 11.4997 15.7476 11.5229 15.6072 11.5666C15.5651 11.5797 15.5223 11.5906 15.481 11.6059C15.3943 11.6379 15.3088 11.6733 15.222 11.7051C15.1748 11.7225 15.1255 11.7339 15.0782 11.7508C15.0258 11.7695 14.975 11.7923 14.9229 11.8117C14.816 11.8515 14.7068 11.8859 14.602 11.9307C14.4648 11.9894 14.3242 12.0414 14.1962 12.1202C14.1913 12.1232 14.1856 12.1249 14.1802 12.1273C14.1002 12.162 14.0201 12.1966 13.9402 12.2316C13.9314 12.2355 13.9239 12.2423 13.9154 12.2469C13.8534 12.2807 13.7865 12.3059 13.7307 12.3509C13.7293 12.352 13.727 12.352 13.7251 12.3525C13.6791 12.3631 13.636 12.378 13.6029 12.4152C13.5937 12.4255 13.5751 12.4277 13.5606 12.4331C13.5429 12.4398 13.5236 12.4436 13.5073 12.4528C13.4396 12.4911 13.3703 12.5239 13.2916 12.533C13.2769 12.5347 13.263 12.5444 13.2489 12.5507C13.2263 12.5606 13.2045 12.5734 13.1811 12.5803C13.1408 12.5923 13.0999 12.6028 13.0586 12.61C13.0014 12.6198 12.9418 12.6196 12.8865 12.6352C12.7897 12.6624 12.6991 12.6349 12.6143 12.6024C12.4984 12.5579 12.3986 12.4852 12.3505 12.3613C12.3349 12.321 12.3057 12.2923 12.2657 12.2685C12.2554 12.2659 12.2496 12.2641 12.2402 12.2607C12.2015 12.2546 12.1832 12.2711 12.1755 12.3048C12.1714 12.3228 12.1648 12.3411 12.1553 12.357C12.1191 12.4177 12.0806 12.4772 12.0444 12.538C12.038 12.5486 12.0385 12.5634 12.0342 12.58C11.9818 12.6144 11.9313 12.646 11.8692 12.6546C11.8401 12.6521 11.81 12.6618 11.788 12.6524C11.712 12.62 11.6293 12.6159 11.5522 12.5903C11.457 12.5587 11.3622 12.5256 11.2689 12.4888C11.1388 12.4375 11.0075 12.388 10.8819 12.3271C10.6857 12.232 10.494 12.1275 10.2999 12.0279C10.2344 11.9943 10.1688 11.9604 10.101 11.932C10.006 11.8923 9.9088 11.8576 9.81264 11.8206C9.73658 11.7913 9.6611 11.7605 9.58457 11.7325C9.48438 11.6958 9.38254 11.6636 9.28299 11.6253C9.1326 11.5675 8.98211 11.5107 8.8227 11.4824C8.75413 11.4702 8.68569 11.4551 8.61652 11.4489C8.5395 11.442 8.4617 11.4438 8.38426 11.4413C8.36947 11.4408 8.35308 11.4413 8.34036 11.4353C8.31591 11.4236 8.29443 11.4317 8.28338 11.4492C8.26355 11.4805 8.23819 11.5122 8.26473 11.5555C8.27979 11.5801 8.28392 11.613 8.25949 11.6363C8.22626 11.6679 8.23421 11.7054 8.24444 11.7393C8.27361 11.8361 8.3071 11.9316 8.33962 12.0273C8.37777 12.1396 8.41514 12.2522 8.45567 12.3636C8.50466 12.4983 8.54056 12.6378 8.60834 12.7656C8.64835 12.8409 8.68462 12.9183 8.72175 12.9952C8.72605 13.0041 8.72513 13.0155 8.72879 13.0405C8.69864 13.0231 8.67678 13.0151 8.66107 13.0005C8.60308 12.9466 8.53232 12.9076 8.48507 12.8405C8.4517 12.7932 8.40671 12.7542 8.37073 12.7084C8.31988 12.6438 8.30832 12.6377 8.23389 12.6579C8.22765 12.6528 8.2214 12.6477 8.21502 12.6351C8.22938 12.597 8.22916 12.5718 8.19287 12.5561C8.17382 12.5479 8.15552 12.5374 8.13814 12.5261C8.12768 12.5192 8.11791 12.5098 8.11093 12.4995C8.09936 12.4824 8.08929 12.464 8.08037 12.4453C8.06346 12.4099 8.03232 12.3866 8.0087 12.357C7.97171 12.3107 7.93999 12.2603 7.90526 12.2121C7.8621 12.1523 7.81175 12.0967 7.77602 12.0328C7.72096 11.9344 7.65306 11.8504 7.56203 11.7836C7.49898 11.7374 7.46542 11.6738 7.46408 11.5935C7.46357 11.5629 7.45538 11.5323 7.45068 11.5017C7.45498 11.4901 7.45928 11.4784 7.46984 11.463C7.48363 11.4432 7.49116 11.4271 7.4987 11.411Z" fill="#A5E314"/>
<path d="M17.0837 11.6088C17.071 11.6123 17.0594 11.6112 17.0484 11.6102C17.022 11.5078 16.9697 11.4208 16.9103 11.3369C16.8531 11.2561 16.8003 11.1722 16.7421 11.0921C16.7034 11.0388 16.6592 10.9893 16.6164 10.939C16.5852 10.9022 16.5541 10.8652 16.5198 10.8314C16.4824 10.7946 16.4436 10.7586 16.4016 10.7275C16.3157 10.6639 16.2231 10.6099 16.1283 10.5612C16.042 10.5169 15.9522 10.4794 15.8626 10.442C15.7566 10.3978 15.6468 10.3677 15.5316 10.3581C15.5012 10.3556 15.4649 10.3495 15.4436 10.331C15.4117 10.3032 15.3808 10.3112 15.3469 10.312C15.2847 10.3134 15.2236 10.3078 15.1614 10.2967C15.0955 10.2849 15.0259 10.2934 14.9579 10.2932C14.9078 10.2931 14.8575 10.2964 14.8077 10.2924C14.6954 10.2835 14.5837 10.2676 14.4705 10.2829C14.4387 10.2871 14.4054 10.2786 14.3728 10.2774C14.2561 10.273 14.1392 10.2723 14.0228 10.2644C13.9243 10.2577 13.8266 10.24 13.7282 10.2326C13.6743 10.2286 13.6196 10.2369 13.5653 10.2377C13.4835 10.2389 13.4017 10.2411 13.32 10.2379C13.2563 10.2354 13.193 10.2212 13.1293 10.2195C13.0122 10.2164 12.8949 10.2174 12.7778 10.219C12.6356 10.2209 12.4941 10.2133 12.3527 10.1988C12.3167 10.1952 12.2796 10.2041 12.2431 10.2036C12.1986 10.203 12.1541 10.196 12.1096 10.1963C12.073 10.1966 12.0362 10.2026 11.9998 10.2076C11.8724 10.2252 11.7444 10.2348 11.616 10.2296C11.5445 10.2267 11.4734 10.2149 11.402 10.2094C11.3612 10.2063 11.3199 10.2047 11.2792 10.2077C11.2271 10.2116 11.1753 10.2196 11.1238 10.228C11.0424 10.2413 10.9598 10.2362 10.8803 10.2259C10.8086 10.2165 10.7412 10.2251 10.6722 10.2335C10.5895 10.2436 10.5072 10.2561 10.4244 10.2652C10.3396 10.2746 10.2546 10.2823 10.1696 10.2883C10.1449 10.29 10.1197 10.2817 10.0947 10.2808C10.0469 10.2791 9.99812 10.2731 9.95146 10.2802C9.80439 10.3024 9.65675 10.3022 9.50888 10.2999C9.48197 10.2995 9.45525 10.2919 9.42829 10.2892C9.34966 10.2812 9.27349 10.2965 9.19759 10.3145C9.13728 10.3289 9.07722 10.3451 9.0162 10.3554C8.89826 10.3754 8.78892 10.4214 8.67782 10.4622C8.62484 10.4816 8.57141 10.5004 8.52008 10.5237C8.42797 10.5655 8.33732 10.6105 8.24598 10.654C8.22886 10.6622 8.21136 10.6695 8.18591 10.6808C8.18828 10.6561 8.18981 10.6401 8.19137 10.6197C8.21554 10.5991 8.23842 10.5804 8.26405 10.5671C8.52635 10.4307 8.80179 10.3303 9.08787 10.255C9.2827 10.2037 9.47924 10.1938 9.67861 10.1913C9.83625 10.1893 9.99373 10.1747 10.1513 10.1656C10.1999 10.1628 10.2485 10.159 10.2972 10.1567C10.4315 10.1502 10.5659 10.1443 10.7058 10.1437C10.7133 10.1773 10.7318 10.1848 10.7556 10.1834C10.8172 10.1796 10.8788 10.1758 10.9402 10.1698C10.9492 10.1689 10.9571 10.1562 10.9655 10.1489C10.9639 10.1446 10.9623 10.1403 10.9607 10.1361C10.9165 10.1361 10.8724 10.1361 10.8282 10.1361C10.9029 10.1324 10.9775 10.1288 11.0613 10.129C11.1075 10.1354 11.1456 10.1481 11.1806 10.1237C11.2314 10.1204 11.2822 10.1171 11.3385 10.1189C11.3447 10.1445 11.3542 10.1591 11.3752 10.159C11.4009 10.1589 11.4239 10.1512 11.4362 10.1173C11.4146 10.1158 11.3979 10.1147 11.3811 10.1135C11.4586 10.1065 11.5359 10.0963 11.6135 10.0933C11.7111 10.0895 11.8088 10.093 11.9064 10.0907C11.9668 10.0893 12.0274 10.086 12.0872 10.078C12.1906 10.0642 12.2931 10.0667 12.3966 10.0766C12.4937 10.0859 12.5915 10.0875 12.6889 10.0925C12.8039 10.0982 12.9188 10.1039 13.0403 10.1142C13.0572 10.1174 13.0675 10.116 13.0778 10.1147C13.1331 10.1168 13.1884 10.1189 13.2513 10.1257C13.2844 10.1292 13.3099 10.1279 13.3355 10.1266C13.4103 10.129 13.4852 10.1313 13.5681 10.1382C13.6096 10.1496 13.6431 10.1556 13.6754 10.1382C13.7269 10.1402 13.7785 10.1423 13.837 10.1489C13.8581 10.1522 13.8722 10.1509 13.8863 10.1496C14.0285 10.1558 14.1706 10.1625 14.3127 10.1682C14.5054 10.1759 14.6982 10.1829 14.891 10.1901C15.045 10.1959 15.1982 10.207 15.3491 10.2423C15.6274 10.3074 15.8943 10.4035 16.1526 10.5252C16.3927 10.6383 16.5856 10.8082 16.7423 11.0196C16.8293 11.1369 16.912 11.2575 16.9909 11.3804C17.0284 11.4389 17.0529 11.5059 17.0821 11.5696C17.0866 11.5795 17.0841 11.5926 17.0837 11.6088Z" fill="#A5E314"/>
<path d="M11.8693 12.6545C11.8308 12.6774 11.7891 12.6921 11.743 12.6749C11.7377 12.6729 11.7315 12.6731 11.7256 12.673C11.4563 12.6686 11.2079 12.5811 10.9682 12.4702C10.7241 12.3572 10.4855 12.2324 10.245 12.1118C10.0791 12.0287 9.90947 11.9549 9.73452 11.8928C9.47179 11.7995 9.21112 11.7003 8.94743 11.6098C8.76841 11.5484 8.58223 11.5136 8.39454 11.489C8.32767 11.4802 8.30535 11.496 8.29703 11.5644C8.29267 11.6003 8.29955 11.6375 8.30208 11.674C8.3026 11.6816 8.30767 11.6889 8.30835 11.6965C8.31657 11.7883 8.3575 11.8712 8.38255 11.9583C8.41631 12.0756 8.461 12.1898 8.50229 12.3049C8.55933 12.4639 8.61422 12.6238 8.67635 12.7808C8.72856 12.9127 8.81408 13.0241 8.91339 13.125C9.00148 13.2145 9.09985 13.2903 9.20882 13.3527C9.23686 13.3688 9.26198 13.3904 9.29093 13.4042C9.34262 13.429 9.39642 13.4493 9.44885 13.4726C9.46108 13.4781 9.48242 13.4771 9.47409 13.5037C9.3989 13.4838 9.32727 13.4596 9.25467 13.4388C9.0232 13.3723 8.82405 13.252 8.65256 13.0836C8.56222 12.9949 8.46807 12.9101 8.37812 12.8211C8.32843 12.7718 8.28385 12.7175 8.23547 12.6616C8.30841 12.6376 8.31997 12.6436 8.37082 12.7083C8.4068 12.754 8.45178 12.793 8.48516 12.8404C8.53241 12.9075 8.60316 12.9464 8.66116 13.0003C8.67686 13.0149 8.69873 13.0229 8.72888 13.0404C8.72522 13.0154 8.72614 13.0039 8.72184 12.995C8.6847 12.9182 8.64844 12.8408 8.60843 12.7654C8.54065 12.6377 8.50475 12.4981 8.45576 12.3634C8.41523 12.252 8.37786 12.1395 8.33971 12.0272C8.30719 11.9314 8.2737 11.836 8.24452 11.7392C8.2343 11.7053 8.22635 11.6677 8.25957 11.6361C8.284 11.6129 8.27987 11.5799 8.26482 11.5554C8.23827 11.5121 8.26363 11.4804 8.28347 11.449C8.29451 11.4315 8.31599 11.4234 8.34044 11.4351C8.35317 11.4412 8.36956 11.4407 8.38435 11.4411C8.46179 11.4437 8.53959 11.4418 8.61661 11.4488C8.68578 11.455 8.75421 11.47 8.82279 11.4822C8.9822 11.5105 9.13268 11.5674 9.28308 11.6252C9.38263 11.6634 9.48447 11.6957 9.58466 11.7323C9.66118 11.7603 9.73667 11.7911 9.81272 11.8204C9.90889 11.8575 10.0061 11.8921 10.1011 11.9319C10.1689 11.9603 10.2345 11.9941 10.3 12.0277C10.4941 12.1273 10.6858 12.2318 10.882 12.3269C11.0076 12.3878 11.1389 12.4373 11.269 12.4887C11.3622 12.5255 11.4571 12.5585 11.5523 12.5902C11.6293 12.6158 11.712 12.6199 11.7881 12.6522C11.8101 12.6616 11.8402 12.6519 11.8693 12.6545Z" fill="#A5E314"/>
<path d="M11.082 13.2042C11.0895 13.1927 11.0986 13.1772 11.1117 13.1667C11.2295 13.073 11.3197 12.9569 11.3912 12.8254C11.3977 12.8136 11.4055 12.8025 11.414 12.7888C11.4819 12.7976 11.5491 12.8055 11.6162 12.815C11.7086 12.8281 11.7993 12.8167 11.8883 12.7935C11.9136 12.787 11.9358 12.7679 11.9589 12.7537C12.073 12.6835 12.1594 12.588 12.2192 12.4681C12.2267 12.453 12.2363 12.439 12.2496 12.4166C12.2618 12.4361 12.271 12.4475 12.2767 12.4605C12.3385 12.6021 12.4451 12.7037 12.5755 12.7788C12.617 12.8027 12.6728 12.8044 12.7228 12.8105C12.8225 12.8226 12.9211 12.8062 13.0195 12.7922C13.0797 12.7837 13.0827 12.782 13.1112 12.8375C13.17 12.9518 13.2578 13.0431 13.3418 13.1377C13.3607 13.1589 13.3826 13.1775 13.403 13.201C13.2341 13.09 13.0482 13.021 12.8484 12.9811C12.6917 12.9498 12.5345 12.946 12.3765 12.947C12.2047 12.9481 12.0328 12.9479 11.8613 12.9547C11.6603 12.9626 11.4679 13.012 11.2845 13.0941C11.2441 13.1122 11.2065 13.1366 11.1676 13.158C11.1403 13.1729 11.1129 13.1877 11.082 13.2042Z" fill="#A5E314"/>
<path d="M15.0156 13.4996C15.018 13.4925 15.0239 13.4818 15.0328 13.4778C15.1513 13.4243 15.2695 13.3702 15.3776 13.2967C15.6038 13.1428 15.7653 12.9385 15.8585 12.6806C15.9153 12.5233 15.9751 12.367 16.03 12.209C16.0623 12.116 16.0873 12.0204 16.1165 11.9262C16.1372 11.8593 16.1592 11.7929 16.1832 11.7228C16.188 11.7281 16.1929 11.7371 16.1923 11.7457C16.1906 11.7707 16.1855 11.7955 16.184 11.8205C16.1799 11.8853 16.1709 11.9483 16.126 11.9993C16.1089 12.0188 16.1089 12.0404 16.1206 12.0586C16.1427 12.0932 16.133 12.125 16.1214 12.1589C16.088 12.2563 16.0563 12.3542 16.0229 12.4515C15.9995 12.5194 15.9758 12.5872 15.9498 12.6541C15.9202 12.7302 15.8864 12.8047 15.8573 12.881C15.8475 12.9068 15.8466 12.9361 15.8416 12.9638C15.8456 12.9668 15.8496 12.9698 15.8536 12.9729C15.8659 12.967 15.8805 12.9638 15.89 12.9549C15.9683 12.8819 16.05 12.8119 16.1224 12.7334C16.2579 12.5864 16.4029 12.4472 16.5111 12.2768C16.5548 12.208 16.5992 12.1395 16.6468 12.0734C16.675 12.0341 16.71 11.9997 16.7421 11.9633C16.8284 11.8654 16.9293 11.7834 17.0285 11.6995C17.0452 11.6853 17.0753 11.6855 17.0803 11.6526C17.1034 11.7098 17.0867 11.7548 17.0324 11.789C16.8343 11.9135 16.6959 12.0941 16.5692 12.2855C16.4916 12.4026 16.4105 12.5165 16.3099 12.6162C16.2367 12.6887 16.1714 12.7691 16.0992 12.8429C16.042 12.9014 15.9802 12.9554 15.9198 13.0108C15.8537 13.0714 15.7888 13.1335 15.7199 13.1908C15.6018 13.289 15.4706 13.3653 15.3229 13.4104C15.2225 13.4412 15.1213 13.4697 15.0156 13.4996Z" fill="#A5E314"/>
<path d="M7.44737 11.5043C7.45545 11.5323 7.46365 11.5628 7.46416 11.5935C7.4655 11.6737 7.49906 11.7373 7.56211 11.7836C7.65313 11.8504 7.72104 11.9344 7.77609 12.0328C7.81183 12.0967 7.86218 12.1523 7.90533 12.2121C7.94007 12.2602 7.97178 12.3107 8.00877 12.357C8.03239 12.3865 8.06354 12.4099 8.08044 12.4453C8.08936 12.464 8.09943 12.4823 8.11101 12.4995C8.11798 12.5098 8.12776 12.5192 8.13821 12.526C8.15559 12.5374 8.1739 12.5478 8.19295 12.556C8.22923 12.5717 8.22946 12.597 8.2142 12.632C8.15859 12.5789 8.09926 12.5248 8.05005 12.4626C7.99328 12.3909 7.94499 12.3124 7.89382 12.2364C7.79192 12.0849 7.6742 11.9476 7.53126 11.8332C7.50395 11.8114 7.47318 11.7938 7.44355 11.7749C7.41251 11.7552 7.39851 11.7281 7.40202 11.691C7.40477 11.6619 7.40106 11.6316 7.40771 11.6036C7.41561 11.5704 7.43153 11.5391 7.44737 11.5043Z" fill="#A5E314"/>
<path d="M10.8232 10.1354C10.8724 10.1361 10.9166 10.1361 10.9607 10.1361C10.9623 10.1403 10.9639 10.1446 10.9655 10.1489C10.9571 10.1562 10.9492 10.1689 10.9402 10.1698C10.8788 10.1758 10.8172 10.1796 10.7557 10.1834C10.7318 10.1848 10.7133 10.1773 10.7112 10.1448C10.7164 10.1395 10.7218 10.1387 10.7336 10.141C10.7496 10.1421 10.7592 10.14 10.7688 10.138C10.7853 10.1369 10.8018 10.1359 10.8232 10.1354Z" fill="#A5E314"/>
<path d="M11.3764 10.1131C11.3979 10.1147 11.4147 10.1159 11.4362 10.1173C11.4239 10.1512 11.4009 10.159 11.3753 10.1591C11.3542 10.1591 11.3447 10.1446 11.3438 10.1198C11.3529 10.1145 11.3623 10.1136 11.3764 10.1131Z" fill="#A5E314"/>
<path d="M11.1752 10.1232C11.1455 10.1481 11.1075 10.1355 11.0667 10.1299C11.0987 10.1255 11.1342 10.124 11.1752 10.1232Z" fill="#A5E314"/>
<path d="M13.6702 10.1372C13.643 10.1557 13.6096 10.1496 13.5729 10.1394C13.6014 10.136 13.6332 10.1361 13.6702 10.1372Z" fill="#A5E314"/>
<path d="M7.49535 11.4128C7.49117 11.427 7.48364 11.4431 7.47241 11.4602C7.47648 11.4456 7.48423 11.4301 7.49535 11.4128Z" fill="#A5E314"/>
<path d="M13.3303 10.1258C13.3099 10.128 13.2844 10.1293 13.2559 10.1271C13.277 10.1241 13.3011 10.1245 13.3303 10.1258Z" fill="#A5E314"/>
<path d="M10.7664 10.1362C10.7591 10.14 10.7495 10.1421 10.7377 10.1417C10.745 10.1377 10.7546 10.136 10.7664 10.1362Z" fill="#A5E314"/>
<path d="M7.57801 11.2725C7.57737 11.2791 7.5736 11.2872 7.56641 11.2961C7.56695 11.2893 7.57091 11.2816 7.57801 11.2725Z" fill="#A5E314"/>
<path d="M13.8817 10.1487C13.8722 10.151 13.8581 10.1522 13.8416 10.1504C13.8518 10.1473 13.8644 10.1475 13.8817 10.1487Z" fill="#A5E314"/>
<path d="M13.0734 10.1138C13.0675 10.1162 13.0572 10.1175 13.0448 10.116C13.0515 10.113 13.0603 10.1129 13.0734 10.1138Z" fill="#A5E314"/>
<path d="M16.2121 11.5523C16.1995 11.5418 16.1903 11.5293 16.1814 11.5166C16.1653 11.4938 16.1433 11.4823 16.1158 11.487C16.0161 11.5042 15.9165 11.5218 15.8171 11.5406C15.7675 11.5499 15.7181 11.5607 15.6693 11.5736C15.5335 11.6095 15.4026 11.6595 15.2715 11.7099C15.0626 11.7904 14.85 11.8613 14.64 11.9391C14.4442 12.0117 14.2594 12.108 14.0743 12.2041C13.9014 12.2939 13.726 12.3793 13.5482 12.4587C13.4151 12.5181 13.2784 12.5711 13.1397 12.6153C13.0325 12.6495 12.9205 12.671 12.8062 12.6723C12.7814 12.6726 12.7566 12.6788 12.7317 12.6818C12.7203 12.6831 12.7079 12.6862 12.6973 12.6833C12.6107 12.6599 12.5244 12.6364 12.45 12.5821C12.3463 12.5063 12.2896 12.4041 12.271 12.2739C12.3058 12.2923 12.3349 12.3209 12.3505 12.3613C12.3986 12.4852 12.4984 12.5579 12.6143 12.6023C12.6991 12.6348 12.7897 12.6624 12.8865 12.6351C12.9418 12.6196 13.0014 12.6198 13.0586 12.6099C13.0999 12.6028 13.1408 12.5922 13.1811 12.5803C13.2045 12.5733 13.2263 12.5606 13.2489 12.5506C13.263 12.5444 13.2769 12.5347 13.2916 12.533C13.3703 12.5239 13.4396 12.491 13.5073 12.4527C13.5236 12.4435 13.5429 12.4397 13.5606 12.4331C13.5751 12.4276 13.5937 12.4255 13.6029 12.4151C13.6361 12.378 13.6791 12.363 13.7251 12.3524C13.727 12.352 13.7293 12.3519 13.7307 12.3508C13.7865 12.3059 13.8534 12.2807 13.9154 12.2469C13.924 12.2423 13.9314 12.2354 13.9402 12.2316C14.0201 12.1966 14.1002 12.162 14.1802 12.1272C14.1856 12.1249 14.1913 12.1232 14.1963 12.1201C14.3242 12.0414 14.4648 11.9893 14.602 11.9307C14.7068 11.8859 14.816 11.8515 14.9229 11.8116C14.975 11.7922 15.0259 11.7695 15.0782 11.7508C15.1255 11.7339 15.1748 11.7224 15.222 11.7051C15.3088 11.6732 15.3943 11.6379 15.481 11.6058C15.5223 11.5906 15.5651 11.5796 15.6072 11.5665C15.7476 11.5228 15.8924 11.4996 16.0361 11.4708C16.0883 11.4603 16.1361 11.4709 16.1856 11.4742C16.2268 11.4769 16.2364 11.5062 16.2121 11.5523Z" fill="#A5E314"/>
<path d="M12.2403 12.2607C12.2343 12.2687 12.2247 12.2751 12.2201 12.2782C12.2018 12.4046 12.1563 12.5089 12.0399 12.5751C12.0386 12.5634 12.0381 12.5486 12.0445 12.538C12.0807 12.4772 12.1191 12.4177 12.1554 12.357C12.1648 12.3411 12.1715 12.3228 12.1756 12.3048C12.1832 12.271 12.2016 12.2546 12.2403 12.2607Z" fill="#A5E314"/>
<path d="M14.024 13.1937C14.2239 13.16 14.3827 13.065 14.5077 12.913C14.573 12.8335 14.6101 12.7392 14.6493 12.6454C14.6805 12.5707 14.6839 12.4944 14.6827 12.4163C14.6814 12.3362 14.68 12.2562 14.6787 12.1762C14.6778 12.1237 14.6795 12.1197 14.7283 12.1065C14.839 12.0764 14.9487 12.0377 15.0615 12.0207C15.2236 11.9961 15.3882 11.9944 15.552 12.0126C15.5647 12.014 15.582 12.0178 15.5882 12.0267C15.6133 12.063 15.6397 12.0976 15.6601 12.1385C15.7003 12.2189 15.6866 12.3013 15.6889 12.3833C15.6913 12.4652 15.6847 12.546 15.6672 12.6272C15.6225 12.8352 15.5102 12.9993 15.348 13.1296C15.1914 13.2554 15.0155 13.3467 14.8168 13.3872C14.7673 13.3973 14.7164 13.4037 14.6659 13.4049C14.455 13.4099 14.2444 13.4037 14.0343 13.3827C13.9223 13.3716 13.819 13.3333 13.7159 13.2903C13.573 13.2308 13.45 13.1446 13.3401 13.0367C13.2613 12.9594 13.202 12.8695 13.1487 12.7697C13.1815 12.7568 13.2098 12.7456 13.2391 12.7341C13.2509 12.769 13.2562 12.808 13.2759 12.8371C13.3095 12.8866 13.3469 12.9365 13.3924 12.9743C13.4641 13.0339 13.5409 13.0887 13.6214 13.1355C13.6667 13.1619 13.7236 13.1686 13.7755 13.1835C13.7885 13.1872 13.8025 13.1876 13.8158 13.1905C13.8833 13.2053 13.951 13.2086 14.024 13.1937Z" fill="#FCFCFC"/>
<path d="M10.0312 13.4067C9.92208 13.4032 9.81794 13.4068 9.71568 13.3946C9.58687 13.3792 9.46936 13.3255 9.35378 13.2668C9.24082 13.2093 9.14354 13.1321 9.05401 13.0452C9.00978 13.0023 8.9767 12.9477 8.94032 12.8971C8.88002 12.8132 8.85339 12.7166 8.82996 12.6171C8.80818 12.5248 8.80519 12.4321 8.80084 12.3385C8.79661 12.2474 8.8243 12.1658 8.86068 12.0853C8.88167 12.0388 8.91399 12.0095 8.96772 12.0082C9.03009 12.0066 9.09251 12.0005 9.15474 12.0023C9.24835 12.005 9.34224 12.0091 9.43516 12.0199C9.49053 12.0264 9.54436 12.0464 9.59875 12.0609C9.65329 12.0754 9.70811 12.0891 9.76198 12.1058C9.82197 12.1245 9.82358 12.1294 9.82057 12.194C9.81685 12.274 9.81406 12.354 9.81049 12.434C9.80732 12.5052 9.81914 12.5737 9.84197 12.6411C9.91755 12.8643 10.0548 13.0359 10.2697 13.1364C10.395 13.195 10.5282 13.2143 10.6684 13.1939C10.8751 13.1638 11.0321 13.0521 11.1697 12.9057C11.2223 12.8498 11.2376 12.808 11.2432 12.735C11.2763 12.7456 11.3086 12.756 11.3463 12.7681C11.2834 12.8758 11.2266 12.9798 11.1309 13.0557C11.0713 13.1029 11.0177 13.1593 10.9534 13.1983C10.7693 13.3099 10.5712 13.3836 10.353 13.3929C10.2477 13.3974 10.1424 13.4021 10.0312 13.4067Z" fill="#FCFCFC"/>
<path d="M14.6135 12.234C14.6145 12.3003 14.614 12.3667 14.617 12.4329C14.6292 12.7003 14.4166 13.0258 14.1072 13.1152C13.865 13.1853 13.6621 13.1184 13.4775 12.9664C13.4271 12.9249 13.3777 12.8812 13.3383 12.8263C13.3114 12.7889 13.3151 12.756 13.3232 12.7083C13.3565 12.7322 13.3832 12.7534 13.4119 12.7715C13.4743 12.8108 13.5345 12.856 13.6015 12.8851C13.6775 12.918 13.761 12.9331 13.8393 12.9613C13.8959 12.9818 13.953 12.9841 14.0115 12.9873C14.138 12.9942 14.2416 12.9421 14.3361 12.8661C14.4044 12.8112 14.4479 12.7368 14.4856 12.6595C14.5024 12.625 14.5272 12.5924 14.5215 12.5502C14.5812 12.4556 14.5811 12.3479 14.5928 12.2343C14.6021 12.2291 14.6078 12.2316 14.6135 12.234Z" fill="#EDF9D0"/>
<path d="M9.87244 12.4763C9.87446 12.4001 9.87675 12.3293 9.87903 12.2585C9.88386 12.2582 9.88869 12.2578 9.89352 12.2574C9.89686 12.2733 9.89952 12.2894 9.90364 12.3051C9.92983 12.4048 9.95066 12.5065 9.98422 12.6037C10.0235 12.7176 10.088 12.8183 10.1869 12.8914C10.2652 12.9493 10.352 12.9823 10.4516 12.9869C10.584 12.9931 10.7062 12.9519 10.8281 12.9131C10.9398 12.8776 11.0351 12.8081 11.1277 12.737C11.1354 12.731 11.1431 12.725 11.1514 12.7199C11.1543 12.7181 11.1588 12.7189 11.1643 12.7183C11.1834 12.7563 11.1809 12.7917 11.1542 12.8264C11.0488 12.9631 10.9153 13.0565 10.7511 13.1141C10.4328 13.2256 10.0751 13.0122 9.94947 12.7373C9.91222 12.6558 9.87258 12.5746 9.87244 12.4763Z" fill="#EDF9D0"/>
<path d="M14.6147 12.2292C14.6079 12.2316 14.6022 12.2292 14.5925 12.2292C14.5885 12.204 14.5885 12.1764 14.5885 12.1404C14.6257 12.168 14.6116 12.1986 14.6147 12.2292Z" fill="#212D04"/>
</svg>
