<svg width="69" height="69" viewBox="0 0 69 69" fill="none" xmlns="http://www.w3.org/2000/svg">
<circle cx="35" cy="35" r="12" fill="#979B93"/>
<circle cx="35" cy="35" r="12" fill="#979B93"/>
<circle cx="35" cy="35" r="12" fill="#979B93"/>
<path d="M45.5728 27.7634C45.6203 27.9863 45.632 28.212 45.6274 28.4392C45.6268 28.4714 45.6302 28.5157 45.6503 28.5341C45.713 28.5915 45.699 28.6623 45.7035 28.7322C45.7178 28.9538 45.735 29.1751 45.7498 29.3966C45.7534 29.4512 45.7511 29.5061 45.7537 29.5607C45.7611 29.7158 45.7692 29.8709 45.7783 30.0259C45.7795 30.0461 45.782 30.0734 45.7949 30.0848C45.8656 30.1468 45.8529 30.2286 45.8537 30.3074C45.8546 30.3958 45.8539 30.4842 45.8545 30.5727C45.8547 30.6021 45.8472 30.6362 45.8592 30.6602C45.9272 30.7961 45.8985 30.9409 45.9032 31.0823C45.9077 31.2169 45.903 31.3518 45.907 31.4864C45.9083 31.5267 45.913 31.5897 45.937 31.6023C46.0168 31.6442 46.0052 31.7104 46.0036 31.7755C45.9988 31.9776 46.029 32.1766 46.0487 32.3769C46.0655 32.548 46.0544 32.7218 46.0558 32.8944C46.0563 32.9528 46.0502 33.0101 46.1087 33.0538C46.1285 33.0686 46.1307 33.1142 46.1318 33.146C46.1407 33.4063 46.1433 33.6668 46.1561 33.9269C46.1666 34.1398 46.1891 34.3521 46.2045 34.5648C46.2079 34.6121 46.2129 34.6529 46.2527 34.6887C46.273 34.7071 46.2789 34.7478 46.281 34.7791C46.2894 34.9036 46.273 35.0283 46.3267 35.1507C46.3516 35.2076 46.3386 35.284 46.3333 35.3508C46.3161 35.5669 46.3781 35.766 46.4549 35.9631C46.4698 36.0014 46.4786 36.0432 46.483 36.0842C46.4949 36.1967 46.5028 36.3096 46.5125 36.4223C46.5201 36.5099 46.5272 36.5976 46.5364 36.685C46.5398 36.7178 46.5372 36.7644 46.5568 36.7798C46.6214 36.8305 46.6097 36.8965 46.6139 36.9626C46.6188 37.0377 46.6312 37.1123 46.6382 37.1873C46.6476 37.2874 46.6563 37.3876 46.6629 37.4878C46.672 37.626 46.6785 37.7642 46.6874 37.9024C46.6887 37.9228 46.6899 37.9522 46.7027 37.9614C46.7781 38.0157 46.7623 38.094 46.7625 38.1679C46.7634 38.4205 46.7592 38.6732 46.7645 38.9258C46.7687 39.1245 46.747 39.3193 46.7076 39.5133C46.696 39.5705 46.6906 39.6292 46.6869 39.6876C46.6675 39.997 46.6674 40.3068 46.6212 40.6156C46.6006 40.7537 46.5346 40.8765 46.5254 41.0156C46.5197 41.1028 46.5019 41.1897 46.4832 41.2754C46.4599 41.3814 46.4318 41.4864 46.4026 41.591C46.3744 41.6917 46.3466 41.793 46.3104 41.891C46.2536 42.0445 46.194 42.1972 46.1282 42.3471C46.0389 42.5505 45.9533 42.7569 45.8454 42.9504C45.7795 43.0688 45.7189 43.1908 45.6302 43.3013C45.5408 43.4127 45.4604 43.5372 45.3723 43.6532C45.2331 43.8364 45.08 44.0066 44.8982 44.15C44.8391 44.1966 44.7956 44.2654 44.733 44.305C44.6138 44.3804 44.5568 44.5256 44.413 44.5742C44.3709 44.5884 44.3452 44.6464 44.3073 44.6788C44.1502 44.8137 43.9935 44.9494 43.8322 45.0791C43.6854 45.1972 43.5332 45.3088 43.3825 45.4219C43.0914 45.6405 42.791 45.846 42.4774 46.0308C42.29 46.1412 42.0935 46.2361 41.902 46.3397C41.7542 46.4197 41.6097 46.5057 41.4606 46.5831C41.3488 46.6411 41.2328 46.6914 41.1174 46.7422C40.9564 46.8131 40.7942 46.8812 40.6325 46.9505C40.3898 47.0545 40.1478 47.1605 39.904 47.2619C39.7846 47.3115 39.6605 47.3498 39.5407 47.3984C39.3475 47.4766 39.1615 47.5786 38.9623 47.6341C38.7578 47.6911 38.5766 47.7977 38.3772 47.8631C38.1948 47.9228 38.0189 48.0022 37.8368 48.0629C37.7072 48.1061 37.5721 48.1333 37.4392 48.1664C37.2114 48.2232 36.9829 48.2777 36.7553 48.3356C36.5193 48.3957 36.2802 48.4356 36.0377 48.4583C35.9086 48.4704 35.7746 48.4732 35.6528 48.5118C35.4447 48.5778 35.234 48.58 35.021 48.5852C34.8703 48.589 34.7197 48.6082 34.5692 48.6068C34.3679 48.605 34.1668 48.5906 33.9657 48.58C33.9368 48.5785 33.9061 48.5736 33.8801 48.5617C33.7042 48.4811 33.5123 48.4863 33.3271 48.4573C33.195 48.4365 33.0582 48.44 32.9283 48.411C32.5565 48.3281 32.1839 48.2456 31.8181 48.1402C31.5796 48.0715 31.3332 48.0192 31.1111 47.8977C31.0534 47.8662 30.9829 47.8589 30.9201 47.8357C30.6509 47.7358 30.3885 47.6191 30.1236 47.5089C30.0227 47.4669 29.9191 47.4387 29.8182 47.4005C29.6354 47.3313 29.4581 47.2472 29.2735 47.1839C29.1327 47.1356 29.0107 47.0332 28.8516 47.0354C28.8344 47.0357 28.8172 47.0136 28.7993 47.003C28.7561 46.9773 28.7152 46.9438 28.6685 46.9284C28.494 46.8711 28.3346 46.7848 28.1741 46.6973C28.0202 46.6134 27.8536 46.5533 27.6969 46.4744C27.5746 46.4128 27.4587 46.3385 27.3402 46.2695C27.2624 46.2242 27.1859 46.1767 27.1073 46.1329C27.0272 46.0883 26.9435 46.05 26.8643 46.0038C26.6939 45.9044 26.5252 45.8019 26.3563 45.6999C26.343 45.6918 26.332 45.6786 26.3225 45.6659C26.3126 45.6528 26.3058 45.6248 26.2977 45.6248C26.163 45.6253 26.1225 45.4912 26.0258 45.4345C25.8571 45.3357 25.6917 45.2223 25.5512 45.0876C25.4483 44.9889 25.3304 44.9142 25.2251 44.8217C25.1465 44.7526 25.0651 44.6867 24.9862 44.618C24.8863 44.5309 24.7868 44.4432 24.6889 44.354C24.6461 44.315 24.6083 44.2705 24.567 44.2299C24.4285 44.094 24.2896 43.9587 24.1506 43.8235C24.1296 43.803 24.1074 43.7837 24.0849 43.7648C24.0689 43.7513 24.0394 43.7417 24.0367 43.7266C24.0094 43.5779 23.8764 43.5058 23.7965 43.3962C23.6844 43.2425 23.5913 43.0812 23.5165 42.9071C23.4705 42.8001 23.4143 42.6975 23.3653 42.5917C23.2568 42.3572 23.127 42.1309 23.0826 41.8711C22.9594 41.6969 22.9639 41.4813 22.897 41.2882C22.8261 41.0835 22.7908 40.8663 22.7415 40.6541C22.7349 40.6259 22.7344 40.5956 22.735 40.5664C22.7378 40.4359 22.7238 40.3089 22.6958 40.1801C22.6675 40.0502 22.6646 39.9137 22.6601 39.7798C22.6479 39.4228 22.6394 39.0657 22.6324 38.7086C22.629 38.536 22.6271 38.3631 22.6343 38.1907C22.6404 38.0446 22.6612 37.8991 22.6741 37.7531C22.6789 37.6988 22.68 37.6441 22.6826 37.5896C22.6862 37.5149 22.6733 37.4383 22.7233 37.3707C22.7362 37.3531 22.7358 37.3217 22.7336 37.2974C22.7116 37.0549 22.7855 36.8243 22.8192 36.5888C22.8412 36.4357 22.8629 36.2825 22.8849 36.1293C22.8879 36.1087 22.8847 36.0803 22.8969 36.0692C22.9733 35.9999 22.9574 35.9093 22.963 35.8221C22.9661 35.7724 22.9788 35.7232 22.9881 35.6739C22.9951 35.637 23.01 35.6004 23.0099 35.5636C23.0098 35.457 23.0246 35.3582 23.0818 35.2627C23.1096 35.2164 23.109 35.1491 23.1098 35.0912C23.1124 34.8938 23.11 34.6967 23.1577 34.5027C23.1685 34.4588 23.1612 34.4105 23.1629 34.3642C23.1658 34.286 23.1544 34.2069 23.2126 34.1376C23.2341 34.1119 23.2374 34.0663 23.239 34.0294C23.2484 33.807 23.2534 33.5844 23.2632 33.3621C23.27 33.2073 23.2827 33.0528 23.2916 32.8981C23.2999 32.7558 23.3069 32.6133 23.3139 32.4709C23.3161 32.4251 23.3161 32.3839 23.3516 32.3428C23.3782 32.312 23.3863 32.2587 23.3886 32.2147C23.394 32.1097 23.3886 32.0042 23.3923 31.899C23.3954 31.8112 23.406 31.7237 23.4119 31.6359C23.4227 31.4771 23.4336 31.3183 23.4422 31.1594C23.446 31.0885 23.4498 31.0255 23.495 30.9589C23.5335 30.9021 23.5344 30.8154 23.5389 30.7411C23.5459 30.6236 23.5367 30.5051 23.5439 30.3876C23.5532 30.2374 23.5758 30.088 23.5854 29.9379C23.5935 29.812 23.5882 29.6853 23.5948 29.5593C23.5973 29.5117 23.6168 29.465 23.6281 29.4178C23.6339 29.3937 23.6403 29.3696 23.6433 29.3451C23.6458 29.3243 23.6433 29.303 23.6439 29.282C23.649 29.1035 23.6378 28.927 23.6889 28.7483C23.7621 28.4923 23.7438 28.2237 23.742 27.9593C23.7416 27.894 23.7503 27.8344 23.8 27.7702C23.8304 27.7495 23.8515 27.742 23.8653 27.7275C24.0041 27.5813 24.1524 27.4424 24.277 27.2849C24.4342 27.0862 24.6055 26.9018 24.791 26.7317C24.9014 26.6305 25.0256 26.5395 25.1561 26.466C25.3352 26.3652 25.5254 26.2838 25.7122 26.1969C25.8908 26.1139 26.0666 26.021 26.252 25.9567C26.5088 25.8678 26.7718 25.7953 27.0351 25.7271C27.4284 25.6252 27.8229 25.5273 28.2194 25.4388C28.5253 25.3704 28.8346 25.3166 29.1432 25.261C29.3117 25.2306 29.4815 25.2069 29.6515 25.1857C29.8257 25.164 30.0013 25.1531 30.1753 25.1303C30.3906 25.1021 30.6048 25.0649 30.8198 25.0344C31.1384 24.9891 31.4595 24.958 31.7752 24.8984C31.9893 24.858 32.2066 24.8589 32.4209 24.8129C32.6109 24.7722 32.8132 24.7819 33.0101 24.7815C34.126 24.7791 35.2419 24.7803 36.3578 24.7804C36.3915 24.7804 36.4254 24.7792 36.4589 24.7821C36.6379 24.7976 36.8169 24.8151 36.996 24.8303C37.1211 24.8408 37.2471 24.8436 37.3716 24.8589C37.6163 24.889 37.8603 24.9244 38.1044 24.9592C38.3318 24.9917 38.5587 25.0283 38.7863 25.0594C39.1051 25.103 39.4242 25.1433 39.7433 25.1846C39.9505 25.2114 40.1603 25.2254 40.3647 25.2665C40.7954 25.3531 41.2242 25.4497 41.652 25.5498C41.9698 25.6242 42.286 25.7064 42.6007 25.7934C42.8068 25.8503 43.015 25.9076 43.2114 25.9905C43.5166 26.1192 43.8149 26.2654 44.1119 26.4127C44.3429 26.5274 44.5441 26.6876 44.7223 26.873C44.8734 27.0301 45.0156 27.1957 45.1597 27.3595C45.251 27.4632 45.3372 27.5714 45.4282 27.6755C45.4663 27.719 45.5031 27.7696 45.5728 27.7634ZM31.4101 30.1397C31.3984 30.1415 31.3867 30.1432 31.3519 30.1404C31.0622 30.1536 30.7725 30.1664 30.4828 30.1803C30.3779 30.1853 30.273 30.1935 30.1681 30.1996C29.8284 30.2192 29.4889 30.2506 29.149 30.2549C28.7191 30.2603 28.2953 30.2817 27.8752 30.3922C27.2583 30.5546 26.6644 30.7711 26.0988 31.0652C26.0435 31.0939 25.9942 31.1341 25.9247 31.173C25.7432 31.2729 25.5853 31.4043 25.4381 31.548C25.2215 31.7593 25.0333 31.9954 24.856 32.2399C24.7752 32.3513 24.7026 32.4687 24.6128 32.5894C24.6042 32.606 24.5957 32.6226 24.5745 32.652C24.5325 32.7295 24.4906 32.8071 24.4342 32.8925C24.4175 32.9259 24.4008 32.9594 24.373 33.0048C24.3637 33.03 24.3544 33.0551 24.3306 33.0917C24.3037 33.161 24.2694 33.2285 24.2523 33.3001C24.238 33.3604 24.246 33.4257 24.2401 33.4885C24.2325 33.5685 24.2627 33.6269 24.3296 33.6695C24.3935 33.7102 24.4599 33.7481 24.5187 33.7952C24.827 34.0418 25.0808 34.3378 25.3005 34.6644C25.4109 34.8285 25.515 34.9977 25.6374 35.1523C25.7435 35.2863 25.8714 35.403 25.9936 35.5403C26.007 35.5513 26.0205 35.5623 26.0404 35.5898C26.1415 35.702 26.2376 35.8193 26.3448 35.9254C26.5387 36.1174 26.7417 36.3003 26.9365 36.4916C27.3063 36.8546 27.7357 37.1139 28.2348 37.2573C28.3914 37.3023 28.5458 37.3545 28.7258 37.406C28.9389 37.4174 29.1426 37.4845 29.3571 37.5015C29.6397 37.5239 29.9187 37.5115 30.1957 37.477C30.4465 37.4457 30.6977 37.4016 30.9389 37.3153C31.1227 37.2496 31.3125 37.2008 31.4958 37.134C31.6175 37.0896 31.7331 37.0282 31.85 36.9715C31.9324 36.9316 32.0186 36.8985 32.0746 36.8164C32.094 36.7879 32.136 36.775 32.1828 36.7477C32.2418 36.7157 32.3009 36.684 32.3597 36.6517C32.4436 36.6057 32.5246 36.5531 32.6117 36.5141C33.0074 36.3369 33.4222 36.2305 33.8555 36.2134C34.2254 36.1989 34.596 36.1992 34.9664 36.1968C35.3072 36.1946 35.646 36.2029 35.9839 36.2703C36.4148 36.3564 36.8157 36.5053 37.1986 36.7524C37.342 36.8312 37.4823 36.9163 37.6293 36.9875C37.9157 37.1264 38.2047 37.2598 38.5135 37.3445C38.8745 37.4435 39.242 37.5012 39.6156 37.5117C39.7701 37.516 39.9253 37.49 40.08 37.4917C40.2767 37.4938 40.4578 37.4239 40.6672 37.3873C40.8847 37.3237 41.1028 37.2622 41.3194 37.1959C41.6378 37.0985 41.9208 36.934 42.1754 36.7224C42.324 36.5989 42.4639 36.4648 42.6065 36.3341C42.7367 36.2148 42.87 36.0982 42.9934 35.9721C43.1489 35.8131 43.2898 35.6397 43.4476 35.4833C43.6645 35.2684 43.8394 35.0229 44.0067 34.7702C44.2798 34.3576 44.5783 33.9681 45.0054 33.6996C45.1227 33.626 45.1585 33.5289 45.1186 33.3803C45.1169 33.3607 45.1152 33.3411 45.1187 33.3014C45.1171 33.2764 45.1224 33.2482 45.1126 33.2268C45.0499 33.0894 44.997 32.945 44.9161 32.8189C44.746 32.554 44.5676 32.2938 44.3801 32.0409C44.0421 31.5851 43.6263 31.2188 43.1085 30.9749C42.5516 30.7125 41.976 30.5053 41.376 30.365C41.0506 30.2889 40.7203 30.2648 40.3881 30.2523C39.9725 30.2368 39.5568 30.2217 39.1412 30.2051C38.8347 30.1929 38.5283 30.1784 38.2019 30.1607C38.1747 30.1603 38.1474 30.16 38.1004 30.1536C37.9893 30.1492 37.8782 30.1448 37.7447 30.1359C37.6762 30.1358 37.6076 30.1356 37.5183 30.1306C37.3569 30.1256 37.1955 30.1205 37.0122 30.1114C36.9602 30.1106 36.9081 30.1098 36.8362 30.1033C36.7169 30.0988 36.5977 30.0943 36.4598 30.0852C36.4408 30.0855 36.4218 30.0858 36.3834 30.0788C36.1356 30.0665 35.8878 30.0543 35.6399 30.0418C35.4298 30.0312 35.219 30.0276 35.0097 30.0076C34.7865 29.9862 34.5654 29.9809 34.3425 30.0106C34.2136 30.0278 34.0828 30.0349 33.9527 30.038C33.7422 30.043 33.5314 30.0354 33.3212 30.0436C33.1538 30.05 32.987 30.0721 32.7996 30.0851C32.7794 30.0872 32.7592 30.0893 32.7163 30.0877C32.6067 30.0949 32.4972 30.1021 32.3645 30.1066C32.2878 30.1097 32.2111 30.1129 32.1108 30.1125C31.9498 30.1202 31.7887 30.128 31.6063 30.1331C31.5707 30.1354 31.5351 30.1377 31.4896 30.1323C31.469 30.1358 31.4483 30.1394 31.4101 30.1397Z" fill="#A5E314"/>
<path d="M24.8525 26.1969C24.9624 26.0246 25.0462 25.8395 25.1091 25.646C25.136 25.5632 25.1634 25.4838 25.209 25.4084C25.2381 25.3603 25.2484 25.2995 25.261 25.243C25.2684 25.2099 25.2805 25.1907 25.3062 25.1647C25.3462 25.1244 25.36 25.0584 25.3857 25.0037C25.4496 24.8675 25.5163 24.7326 25.5771 24.5951C25.614 24.5113 25.6353 24.4211 25.7095 24.3569C25.7288 24.3401 25.7377 24.3041 25.7397 24.2761C25.7427 24.2345 25.7491 24.2012 25.7966 24.192C25.8003 24.1913 25.8057 24.1879 25.8065 24.1847C25.8465 24.0226 26.0201 23.9348 26.0417 23.7624C26.0427 23.7543 26.0432 23.7423 26.0483 23.739C26.1872 23.651 26.2283 23.483 26.345 23.376C26.377 23.3467 26.3905 23.298 26.4167 23.2612C26.5153 23.122 26.6184 22.986 26.7145 22.8452C26.8084 22.7078 26.9229 22.5882 27.0369 22.4691C27.2483 22.2483 27.4652 22.0328 27.6844 21.8197C27.7281 21.7772 27.7954 21.7602 27.8459 21.7234C28.0244 21.5935 28.2009 21.461 28.3765 21.3274C28.4192 21.2949 28.4537 21.2519 28.4953 21.2178C28.5337 21.1863 28.5739 21.1544 28.6183 21.1335C28.664 21.112 28.714 21.1018 28.7359 21.0481C28.7402 21.0376 28.7527 21.0292 28.7632 21.0226C28.8689 20.9562 28.9772 20.8937 29.0804 20.8238C29.2834 20.6863 29.5051 20.5796 29.7029 20.4325C29.8149 20.3492 29.9481 20.295 30.0703 20.2251C30.1756 20.1649 30.2782 20.1 30.3831 20.0392C30.4909 19.9766 30.599 19.9142 30.7091 19.8557C30.7964 19.8092 30.8959 19.7806 30.9736 19.7222C31.0675 19.6518 31.1772 19.6268 31.2785 19.579C31.3039 19.567 31.3285 19.5532 31.3538 19.541C31.417 19.5107 31.4778 19.4713 31.5444 19.4533C31.6091 19.4359 31.6755 19.4314 31.7273 19.3808C31.741 19.3674 31.7653 19.3625 31.7856 19.3584C31.9322 19.3288 32.0619 19.256 32.1992 19.2023C32.3849 19.1298 32.5445 19.0166 32.709 18.9097C32.8308 18.8305 32.955 18.7547 33.0751 18.673C33.1191 18.6431 33.1536 18.5996 33.194 18.5641C33.3658 18.4131 33.5346 18.2584 33.7118 18.1141C33.8076 18.0361 33.9181 17.9761 34.0225 17.9088C34.0325 17.9023 34.0514 17.9057 34.0577 17.8978C34.1427 17.7897 34.2596 17.7752 34.386 17.7762C34.4248 17.7765 34.4761 17.7604 34.4999 17.7329C34.5389 17.6877 34.5817 17.6766 34.6335 17.6815C34.7106 17.6888 34.7902 17.6606 34.8646 17.7163C34.9088 17.7494 34.97 17.7734 35.0247 17.776C35.1045 17.7797 35.1711 17.8089 35.239 17.8422C35.4361 17.9389 35.6183 18.0539 35.7709 18.2168C35.8586 18.3104 35.9693 18.382 36.0663 18.4674C36.2389 18.6193 36.4195 18.7615 36.6127 18.8853C36.8098 19.0115 37.0129 19.127 37.2264 19.2273C37.4504 19.3324 37.6916 19.3873 37.9137 19.4935C38.0155 19.5422 38.12 19.5856 38.2205 19.6369C38.5605 19.8106 38.9105 19.9662 39.2251 20.1864C39.232 20.1912 39.2388 20.1968 39.2465 20.1995C39.4628 20.2729 39.6421 20.4115 39.8324 20.5307C39.9919 20.6306 40.1583 20.7201 40.3128 20.8269C40.526 20.9744 40.741 21.1192 40.9397 21.2883C41.0889 21.4153 41.2633 21.5124 41.4245 21.6256C41.5688 21.7269 41.7002 21.8428 41.8236 21.9699C41.952 22.102 42.1071 22.2101 42.2244 22.3505C42.3729 22.5284 42.5805 22.6539 42.6817 22.8741C42.7082 22.9316 42.7394 22.9968 42.8159 23.0167C42.8308 23.0206 42.8387 23.0559 42.8475 23.0776C42.8776 23.1514 42.9009 23.2292 42.9799 23.2698C42.9939 23.2771 43.0091 23.291 43.0141 23.3052C43.0653 23.4498 43.1813 23.5505 43.2595 23.6754C43.3133 23.7614 43.4017 23.8333 43.4083 23.9473C43.4091 23.9618 43.4228 23.9777 43.4343 23.9893C43.5489 24.105 43.612 24.2519 43.6838 24.3942C43.753 24.5313 43.8341 24.6624 43.9029 24.7997C43.9547 24.9031 43.9962 25.0117 44.0408 25.1187C44.0706 25.1903 44.0876 25.2688 44.1611 25.3142C44.1713 25.3205 44.174 25.3402 44.1784 25.3543C44.1874 25.3835 44.1939 25.4135 44.204 25.4424C44.208 25.4537 44.226 25.463 44.2254 25.4725C44.216 25.6245 44.3408 25.7255 44.3711 25.8618C44.3754 25.8812 44.3728 25.9022 44.3733 25.9224C44.3738 25.9428 44.367 25.9769 44.3756 25.9813C44.448 26.0188 44.4398 26.0933 44.4544 26.1619C44.3869 26.1579 44.3217 26.1564 44.2661 26.1325C44.0548 26.0415 43.8511 25.9314 43.6362 25.8506C43.3305 25.7358 43.0192 25.635 42.707 25.539C42.5236 25.4825 42.3335 25.4475 42.1467 25.4018C41.6997 25.2925 41.2531 25.1814 40.8058 25.0736C40.6635 25.0393 40.52 25.0093 40.3759 24.9837C40.232 24.9582 40.0867 24.9414 39.9421 24.9195C39.7521 24.8908 39.5625 24.8593 39.3723 24.8321C39.24 24.8132 39.1069 24.8009 38.9744 24.7835C38.8501 24.7672 38.7262 24.7478 38.6021 24.7302C38.4491 24.7083 38.296 24.6872 38.1431 24.6651C37.9446 24.6365 37.7466 24.6042 37.5477 24.5791C37.3736 24.5571 37.1986 24.5412 37.0238 24.5257C36.8197 24.5078 36.6154 24.4803 36.4111 24.4794C35.3798 24.4746 34.3484 24.4752 33.3171 24.4783C33.0066 24.4792 32.6962 24.4942 32.3857 24.5028C32.3731 24.5031 32.3604 24.5035 32.3479 24.5052C32.17 24.5293 31.992 24.5526 31.8142 24.5781C31.6035 24.6085 31.3929 24.6407 31.1824 24.6724C31.0584 24.6911 30.9348 24.7133 30.8105 24.7291C30.6447 24.7502 30.4777 24.7629 30.3122 24.7861C30.0475 24.8231 29.7836 24.8655 29.5195 24.9062C29.2346 24.9502 28.9478 24.9852 28.6654 25.0418C28.362 25.1026 28.0623 25.1826 27.7617 25.2571C27.6438 25.2863 27.5286 25.3263 27.4108 25.3562C27.115 25.4315 26.8162 25.496 26.5225 25.579C26.0581 25.7103 25.6131 25.8955 25.1704 26.0864C25.0681 26.1305 24.9726 26.2014 24.8525 26.1969Z" fill="#A5E314"/>
<path d="M24.8477 26.2031C24.9728 26.2013 25.0684 26.1304 25.1706 26.0863C25.6134 25.8955 26.0584 25.7103 26.5228 25.579C26.8164 25.496 27.1152 25.4314 27.4111 25.3562C27.5288 25.3262 27.6441 25.2863 27.762 25.257C28.0626 25.1825 28.3622 25.1026 28.6657 25.0418C28.9481 24.9852 29.2348 24.9501 29.5197 24.9062C29.7838 24.8654 30.0478 24.8231 30.3124 24.786C30.4779 24.7628 30.6449 24.7501 30.8107 24.729C30.9351 24.7132 31.0586 24.6911 31.1826 24.6724C31.3932 24.6406 31.6037 24.6084 31.8145 24.5781C31.9922 24.5525 32.1702 24.5292 32.3482 24.5051C32.3606 24.5035 32.3733 24.503 32.3859 24.5027C32.6964 24.4941 33.0069 24.4792 33.3174 24.4782C34.3487 24.4752 35.38 24.4746 36.4113 24.4793C36.6156 24.4802 36.8199 24.5077 37.024 24.5257C37.1989 24.5411 37.3738 24.557 37.548 24.579C37.7469 24.6041 37.9449 24.6364 38.1433 24.6651C38.2963 24.6872 38.4493 24.7083 38.6023 24.7301C38.7265 24.7478 38.8504 24.7671 38.9747 24.7834C39.1071 24.8008 39.2403 24.8132 39.3725 24.8321C39.5627 24.8592 39.7523 24.8907 39.9423 24.9195C40.0869 24.9413 40.2323 24.9582 40.3762 24.9837C40.5202 25.0092 40.6638 25.0392 40.806 25.0735C41.2534 25.1814 41.6999 25.2925 42.1469 25.4018C42.3338 25.4475 42.5238 25.4825 42.7073 25.5389C43.0195 25.6349 43.3308 25.7357 43.6364 25.8505C43.8513 25.9313 44.055 26.0414 44.2663 26.1324C44.3219 26.1564 44.3872 26.1579 44.4593 26.1693C44.698 26.297 44.8939 26.463 45.0594 26.6642C45.1844 26.8159 45.3106 26.9671 45.4271 27.1253C45.5214 27.2534 45.6023 27.3905 45.5774 27.5635C45.5691 27.6211 45.5757 27.6809 45.5744 27.7516C45.5035 27.7698 45.4667 27.7192 45.4286 27.6756C45.3377 27.5716 45.2514 27.4634 45.1601 27.3596C45.016 27.1959 44.8738 27.0302 44.7228 26.8731C44.5445 26.6877 44.3434 26.5276 44.1123 26.4129C43.8153 26.2656 43.517 26.1194 43.2118 25.9906C43.0154 25.9078 42.8072 25.8505 42.6011 25.7935C42.2864 25.7066 41.9702 25.6244 41.6524 25.55C41.2246 25.4499 40.7958 25.3533 40.3651 25.2667C40.1607 25.2256 39.951 25.2116 39.7437 25.1848C39.4247 25.1435 39.1055 25.1032 38.7867 25.0596C38.5591 25.0285 38.3322 24.9919 38.1048 24.9594C37.8607 24.9246 37.6167 24.8891 37.3721 24.8591C37.2476 24.8438 37.1216 24.841 36.9964 24.8304C36.8173 24.8153 36.6384 24.7978 36.4593 24.7823C36.4258 24.7794 36.3919 24.7806 36.3583 24.7806C35.2423 24.7805 34.1264 24.7793 33.0105 24.7817C32.8136 24.7821 32.6113 24.7724 32.4213 24.8131C32.207 24.8591 31.9897 24.8582 31.7756 24.8986C31.4599 24.9582 31.1388 24.9893 30.8202 25.0345C30.6052 25.0651 30.3911 25.1022 30.1757 25.1305C30.0017 25.1533 29.8261 25.1642 29.6519 25.1859C29.4819 25.207 29.3121 25.2308 29.1436 25.2612C28.835 25.3168 28.5257 25.3706 28.2198 25.439C27.8233 25.5275 27.4288 25.6253 27.0355 25.7272C26.7722 25.7955 26.5092 25.8679 26.2524 25.9569C26.067 26.0212 25.8913 26.114 25.7126 26.1971C25.5258 26.284 25.3356 26.3654 25.1565 26.4662C25.026 26.5397 24.9019 26.6307 24.7914 26.7319C24.6059 26.902 24.4346 27.0864 24.2774 27.2851C24.1528 27.4426 24.0045 27.5815 23.8657 27.7276C23.8519 27.7421 23.8308 27.7496 23.8046 27.7615C23.7955 27.7039 23.7956 27.6452 23.7942 27.5865C23.7892 27.3845 23.8676 27.2146 23.9909 27.06C24.0607 26.9725 24.1233 26.8793 24.1931 26.7918C24.2239 26.7531 24.265 26.7228 24.3004 26.6876C24.3979 26.5907 24.491 26.4889 24.5932 26.3972C24.6704 26.328 24.759 26.2716 24.8477 26.2031Z" fill="#EDF9D0"/>
<path d="M24.4487 32.8845C24.4907 32.807 24.5326 32.7295 24.5882 32.6436C24.6101 32.6179 24.6182 32.6006 24.6263 32.5833C24.7027 32.4687 24.7753 32.3513 24.856 32.2399C25.0333 31.9954 25.2215 31.7593 25.4381 31.5479C25.5854 31.4042 25.7433 31.2729 25.9334 31.1806C25.9388 31.2226 25.9355 31.2571 25.9304 31.3104C25.9852 31.286 26.023 31.2702 26.0599 31.2526C26.2568 31.1588 26.4523 31.0617 26.6509 30.9716C26.7616 30.9214 26.8768 30.8809 26.991 30.839C27.2306 30.751 27.4664 30.6519 27.7207 30.6088C27.8523 30.5865 27.9818 30.5515 28.1118 30.5206C28.2755 30.4818 28.4397 30.4488 28.6092 30.4659C28.6674 30.4717 28.725 30.4881 28.783 30.489C29.1019 30.494 29.4202 30.4944 29.7373 30.4465C29.8379 30.4313 29.9431 30.4443 30.0461 30.4479C30.1001 30.4498 30.1544 30.4677 30.2076 30.4639C30.3911 30.451 30.5743 30.4344 30.7571 30.4142C30.9356 30.3945 31.1132 30.3676 31.2914 30.3459C31.4402 30.3278 31.5855 30.3092 31.7402 30.3294C31.9115 30.3517 32.0897 30.3627 32.2651 30.334C32.3762 30.3159 32.488 30.2986 32.6002 30.2902C32.6879 30.2837 32.7771 30.2872 32.865 30.2939C33.0191 30.3059 33.1724 30.3312 33.3265 30.3375C33.6034 30.3487 33.8794 30.3279 34.154 30.2901C34.2326 30.2792 34.3118 30.2662 34.3908 30.2656C34.4867 30.265 34.5826 30.28 34.6786 30.2814C34.7574 30.2826 34.8374 30.2632 34.915 30.2711C35.2199 30.3023 35.525 30.3187 35.8315 30.3145C36.0842 30.3111 36.337 30.309 36.5895 30.3157C36.7268 30.3194 36.8634 30.3499 37.0008 30.3553C37.1768 30.3622 37.3534 30.3575 37.5296 30.3549C37.6468 30.3531 37.7647 30.3353 37.8809 30.344C38.0931 30.3599 38.3038 30.398 38.5161 30.4125C38.7671 30.4296 39.0192 30.4311 39.2708 30.4405C39.3412 30.4432 39.413 30.4615 39.4815 30.4523C39.7257 30.4194 39.9664 30.4537 40.2086 30.473C40.3159 30.4815 40.4245 30.4743 40.5325 30.4747C40.6792 30.4751 40.8292 30.4566 40.9714 30.4821C41.1053 30.5061 41.237 30.5181 41.3712 30.5151C41.4443 30.5134 41.511 30.4962 41.5797 30.5561C41.6256 30.5961 41.704 30.6091 41.7694 30.6145C42.018 30.6352 42.2547 30.7002 42.4832 30.7955C42.6763 30.8761 42.8701 30.957 43.0561 31.0525C43.2606 31.1575 43.4602 31.2738 43.6454 31.411C43.7361 31.4781 43.8197 31.5558 43.9003 31.6351C43.9743 31.7079 44.0414 31.7878 44.1087 31.867C44.2009 31.9756 44.2962 32.0822 44.3797 32.1972C44.5051 32.3699 44.619 32.5508 44.7423 32.725C44.8704 32.9059 44.9831 33.0935 45.0401 33.3143C45.0639 33.3166 45.0887 33.319 45.1136 33.3214C45.1153 33.341 45.117 33.3606 45.111 33.396C45.0981 33.4765 45.0331 33.4761 44.9971 33.5066C44.7833 33.6876 44.5657 33.8644 44.3796 34.0754C44.3103 34.1539 44.235 34.2282 44.1741 34.3129C44.0715 34.4554 43.9757 34.603 43.8815 34.7514C43.6482 35.1189 43.3356 35.4191 43.0434 35.736C42.8872 35.9053 42.7111 36.0563 42.5422 36.2137C42.5218 36.2327 42.4902 36.2398 42.4638 36.2524C42.4551 36.2459 42.4465 36.2393 42.4379 36.2328C42.4486 36.173 42.4505 36.1099 42.4717 36.0542C42.5344 35.8897 42.6073 35.7291 42.6712 35.565C42.7273 35.4208 42.7784 35.2745 42.8287 35.1281C42.9008 34.9183 42.9692 34.7072 43.0411 34.4973C43.0662 34.4241 43.0871 34.3556 43.0394 34.281C43.0143 34.2418 43.0141 34.1951 43.051 34.1532C43.148 34.0432 43.1674 33.9072 43.1761 33.7676C43.1794 33.7137 43.1904 33.6603 43.194 33.6063C43.1953 33.5878 43.1849 33.5684 43.1788 33.5396C43.2294 33.4231 43.2444 33.3108 43.237 33.1893C43.2894 33.0899 43.2687 33.0269 43.1798 33.0209C43.0732 33.0138 42.97 32.9909 42.8575 33.0135C42.5476 33.0758 42.2354 33.1258 41.9327 33.2201C41.842 33.2483 41.7496 33.2719 41.6606 33.3048C41.4736 33.3739 41.2892 33.4501 41.1021 33.5188C41.0004 33.5562 40.8941 33.5809 40.792 33.6174C40.6792 33.6576 40.5695 33.7067 40.4571 33.7485C40.2266 33.8345 39.9912 33.9087 39.7653 34.0052C39.4694 34.1317 39.1662 34.2439 38.8903 34.4138C38.8797 34.4203 38.8674 34.424 38.8558 34.429C38.6832 34.5039 38.5105 34.5785 38.3382 34.6541C38.3192 34.6624 38.3032 34.6771 38.2848 34.6871C38.151 34.7599 38.0068 34.8142 37.8864 34.9112C37.8834 34.9136 37.8785 34.9136 37.8744 34.9146C37.7753 34.9375 37.6824 34.9697 37.6109 35.0498C37.591 35.0721 37.551 35.0768 37.5198 35.0885C37.4815 35.1029 37.4399 35.111 37.4048 35.1309C37.2588 35.2135 37.1094 35.2844 36.9396 35.3039C36.9079 35.3076 36.8781 35.3285 36.8476 35.342C36.7989 35.3635 36.752 35.3909 36.7013 35.4059C36.6146 35.4317 36.5263 35.4545 36.4372 35.4699C36.314 35.4912 36.1855 35.4906 36.0663 35.5242C35.8576 35.583 35.662 35.5236 35.4793 35.4535C35.2294 35.3576 35.0141 35.2009 34.9105 34.9337C34.8768 34.8467 34.8139 34.7849 34.7276 34.7335C34.7053 34.7279 34.6928 34.7241 34.6726 34.7168C34.5892 34.7036 34.5497 34.7391 34.5332 34.8118C34.5244 34.8507 34.51 34.8902 34.4896 34.9243C34.4114 35.0553 34.3285 35.1836 34.2504 35.3146C34.2367 35.3376 34.2377 35.3694 34.2285 35.4053C34.1154 35.4795 34.0066 35.5475 33.8726 35.5661C33.8099 35.5607 33.745 35.5815 33.6976 35.5613C33.5336 35.4916 33.3553 35.4827 33.1891 35.4275C32.9839 35.3593 32.7793 35.288 32.5782 35.2086C32.2978 35.0979 32.0146 34.9912 31.7438 34.8599C31.3207 34.6548 30.9074 34.4295 30.4889 34.2147C30.3477 34.1423 30.2062 34.0692 30.06 34.008C29.8551 33.9223 29.6455 33.8476 29.4382 33.7678C29.2742 33.7046 29.1114 33.6381 28.9464 33.5778C28.7304 33.4988 28.5108 33.4292 28.2961 33.3467C27.9718 33.2221 27.6474 33.0995 27.3036 33.0385C27.1558 33.0122 27.0082 32.9798 26.859 32.9663C26.693 32.9514 26.5252 32.9553 26.3582 32.9499C26.3263 32.9489 26.291 32.95 26.2636 32.9369C26.2109 32.9117 26.1645 32.9292 26.1407 32.9669C26.098 33.0345 26.0433 33.1028 26.1005 33.1962C26.133 33.2491 26.1419 33.3202 26.0892 33.3703C26.0175 33.4385 26.0347 33.5194 26.0567 33.5926C26.1197 33.8012 26.1919 34.0071 26.262 34.2136C26.3442 34.4556 26.4248 34.6984 26.5122 34.9386C26.6179 35.229 26.6953 35.5299 26.8414 35.8053C26.9277 35.9679 27.0059 36.1347 27.0859 36.3005C27.0952 36.3197 27.0932 36.3443 27.1011 36.3982C27.0361 36.3606 26.989 36.3434 26.9551 36.3119C26.8301 36.1957 26.6775 36.1116 26.5756 35.967C26.5036 35.8649 26.4066 35.7808 26.3291 35.6822C26.2194 35.5428 26.1945 35.5297 26.034 35.5733C26.0205 35.5623 26.0071 35.5513 25.9933 35.524C26.0243 35.442 26.0238 35.3875 25.9456 35.3537C25.9045 35.336 25.865 35.3134 25.8275 35.2889C25.805 35.2742 25.7839 35.254 25.7689 35.2317C25.7439 35.1947 25.7222 35.1552 25.703 35.1149C25.6665 35.0385 25.5994 34.9881 25.5484 34.9244C25.4687 34.8246 25.4003 34.7158 25.3254 34.612C25.2323 34.4831 25.1238 34.3632 25.0467 34.2254C24.928 34.0133 24.7816 33.8321 24.5853 33.6881C24.4494 33.5883 24.377 33.4512 24.3741 33.2781C24.373 33.212 24.3553 33.1462 24.3452 33.0802C24.3545 33.0551 24.3638 33.0299 24.3865 32.9967C24.4163 32.9539 24.4325 32.9192 24.4487 32.8845Z" fill="#EDF9D0"/>
<path d="M45.1165 33.3117C45.089 33.3193 45.0642 33.3169 45.0404 33.3146C44.9834 33.0939 44.8707 32.9062 44.7426 32.7254C44.6193 32.5512 44.5054 32.3702 44.38 32.1975C44.2965 32.0825 44.2012 31.9759 44.109 31.8673C44.0417 31.7881 43.9745 31.7082 43.9006 31.6354C43.82 31.5562 43.7364 31.4784 43.6457 31.4113C43.4605 31.2741 43.2609 31.1578 43.0564 31.0528C42.8704 30.9573 42.6766 30.8764 42.4835 30.7958C42.255 30.7005 42.0183 30.6355 41.7697 30.6148C41.7043 30.6094 41.6259 30.5964 41.58 30.5564C41.5113 30.4965 41.4445 30.5138 41.3715 30.5154C41.2373 30.5184 41.1056 30.5064 40.9717 30.4824C40.8295 30.457 40.6794 30.4754 40.5328 30.475C40.4248 30.4746 40.3162 30.4818 40.2089 30.4733C39.9667 30.454 39.726 30.4197 39.4818 30.4526C39.4133 30.4619 39.3415 30.4435 39.2711 30.4408C39.0195 30.4315 38.7674 30.43 38.5164 30.4128C38.3041 30.3983 38.0934 30.3602 37.8812 30.3443C37.765 30.3356 37.6471 30.3534 37.5299 30.3552C37.3537 30.3578 37.1771 30.3625 37.0011 30.3556C36.8637 30.3502 36.7271 30.3197 36.5897 30.3161C36.3373 30.3093 36.0844 30.3114 35.8318 30.3148C35.5253 30.319 35.2202 30.3026 34.9153 30.2714C34.8377 30.2635 34.7577 30.2829 34.6789 30.2818C34.5829 30.2804 34.487 30.2653 34.3911 30.266C34.3121 30.2665 34.2329 30.2796 34.1543 30.2904C33.8797 30.3282 33.6037 30.3491 33.3268 30.3378C33.1727 30.3315 33.0194 30.3062 32.8653 30.2943C32.7774 30.2875 32.6882 30.284 32.6005 30.2906C32.4883 30.2989 32.3765 30.3162 32.2654 30.3344C32.0899 30.3631 31.9118 30.352 31.7405 30.3297C31.5858 30.3096 31.4405 30.3281 31.2917 30.3463C31.1135 30.368 30.9359 30.3949 30.7574 30.4146C30.5746 30.4347 30.3913 30.4513 30.2079 30.4642C30.1547 30.468 30.1004 30.4501 30.0464 30.4482C29.9434 30.4446 29.8382 30.4316 29.7376 30.4468C29.4205 30.4947 29.1021 30.4944 28.7833 30.4894C28.7253 30.4885 28.6677 30.472 28.6095 30.4662C28.44 30.4491 28.2758 30.4821 28.1121 30.5209C27.982 30.5518 27.8526 30.5868 27.721 30.6091C27.4667 30.6523 27.2309 30.7513 26.9913 30.8393C26.8771 30.8813 26.7619 30.9217 26.6512 30.9719C26.4526 31.062 26.2571 31.1591 26.0602 31.2529C26.0233 31.2705 25.9855 31.2863 25.9307 31.3107C25.9358 31.2574 25.9391 31.223 25.9424 31.1789C25.9946 31.1344 26.0439 31.0942 26.0991 31.0655C26.6647 30.7713 27.2587 30.5548 27.8755 30.3925C28.2956 30.282 28.7194 30.2606 29.1493 30.2552C29.4892 30.2509 29.8288 30.2195 30.1685 30.1999C30.2734 30.1938 30.3782 30.1856 30.4831 30.1806C30.7728 30.1667 31.0625 30.1539 31.3642 30.1526C31.3803 30.2249 31.4201 30.2412 31.4716 30.2381C31.6044 30.2299 31.7372 30.2217 31.8695 30.2088C31.889 30.2069 31.906 30.1794 31.9242 30.1638C31.9207 30.1545 31.9173 30.1453 31.9138 30.1361C31.8186 30.1361 31.7233 30.1361 31.628 30.1361C31.7891 30.1283 31.9501 30.1205 32.1306 30.1209C32.2304 30.1347 32.3125 30.162 32.3881 30.1095C32.4976 30.1024 32.6071 30.0952 32.7284 30.0992C32.7417 30.1543 32.7623 30.1857 32.8077 30.1855C32.863 30.1853 32.9126 30.1687 32.9392 30.0955C32.8926 30.0924 32.8564 30.0899 32.8202 30.0875C32.9873 30.0723 33.1541 30.0503 33.3215 30.0438C33.5317 30.0357 33.7426 30.0433 33.953 30.0383C34.0831 30.0352 34.2139 30.028 34.3429 30.0109C34.5657 29.9812 34.7868 29.9865 35.01 30.0079C35.2193 30.0279 35.4301 30.0315 35.6403 30.0421C35.8881 30.0545 36.1359 30.0668 36.398 30.0889C36.4344 30.0958 36.4566 30.0929 36.4788 30.09C36.598 30.0945 36.7173 30.0991 36.8529 30.1138C36.9243 30.1213 36.9793 30.1185 37.0344 30.1158C37.1958 30.1208 37.3572 30.1258 37.5361 30.1407C37.6256 30.1652 37.6977 30.1783 37.7674 30.1406C37.8785 30.145 37.9896 30.1495 38.1158 30.1637C38.1613 30.1708 38.1918 30.168 38.2222 30.1652C38.5287 30.1787 38.8351 30.1931 39.1416 30.2054C39.5571 30.222 39.9728 30.237 40.3884 30.2526C40.7206 30.265 41.0509 30.2891 41.3764 30.3653C41.9763 30.5056 42.5519 30.7128 43.1088 30.9751C43.6266 31.2191 44.0424 31.5854 44.3804 32.0412C44.5679 32.294 44.7464 32.5542 44.9164 32.8191C44.9974 32.9453 45.0502 33.0897 45.113 33.2271C45.1227 33.2484 45.1174 33.2766 45.1165 33.3117Z" fill="#EDF9D0"/>
<path d="M33.873 35.5663C33.79 35.6157 33.7002 35.6475 33.6008 35.6104C33.5894 35.6062 33.5759 35.6065 33.5633 35.6063C32.9825 35.5968 32.4469 35.4081 31.9301 35.169C31.4037 34.9254 30.8892 34.6563 30.3705 34.3963C30.0129 34.2171 29.6472 34.058 29.2699 33.9241C28.7034 33.7229 28.1413 33.5089 27.5727 33.3139C27.1867 33.1814 26.7853 33.1063 26.3806 33.0532C26.2364 33.0343 26.1883 33.0684 26.1703 33.216C26.1609 33.2932 26.1758 33.3735 26.1812 33.4523C26.1823 33.4686 26.1933 33.4843 26.1947 33.5006C26.2125 33.6988 26.3007 33.8775 26.3547 34.0653C26.4275 34.3182 26.5239 34.5645 26.6129 34.8126C26.7359 35.1554 26.8543 35.5001 26.9882 35.8387C27.1008 36.1231 27.2852 36.3635 27.4994 36.581C27.6893 36.774 27.9014 36.9374 28.1364 37.0719C28.1968 37.1065 28.251 37.1532 28.3134 37.1831C28.4249 37.2364 28.5409 37.2803 28.6539 37.3305C28.6803 37.3422 28.7263 37.3401 28.7084 37.3976C28.5462 37.3547 28.3918 37.3025 28.2352 37.2575C27.7361 37.1141 27.3067 36.8548 26.9369 36.4917C26.7421 36.3005 26.5391 36.1176 26.3452 35.9256C26.238 35.8195 26.1419 35.7022 26.0376 35.5818C26.1949 35.5299 26.2198 35.543 26.3294 35.6824C26.407 35.781 26.504 35.8651 26.576 35.9673C26.6779 36.1119 26.8304 36.1959 26.9555 36.3121C26.9893 36.3436 27.0365 36.3608 27.1015 36.3985C27.0936 36.3445 27.0956 36.3199 27.0863 36.3007C27.0062 36.1349 26.928 35.9681 26.8418 35.8056C26.6956 35.5301 26.6182 35.2292 26.5126 34.9388C26.4252 34.6986 26.3446 34.4559 26.2624 34.2138C26.1922 34.0073 26.12 33.8015 26.0571 33.5928C26.0351 33.5197 26.0179 33.4387 26.0896 33.3705C26.1422 33.3204 26.1333 33.2494 26.1009 33.1964C26.0436 33.1031 26.0983 33.0348 26.1411 32.9671C26.1649 32.9294 26.2112 32.9119 26.2639 32.9371C26.2914 32.9502 26.3267 32.9491 26.3586 32.9501C26.5256 32.9556 26.6933 32.9516 26.8594 32.9665C27.0086 32.98 27.1561 33.0124 27.304 33.0387C27.6477 33.0998 27.9722 33.2223 28.2965 33.347C28.5111 33.4295 28.7307 33.499 28.9468 33.578C29.1118 33.6384 29.2746 33.7048 29.4385 33.768C29.6459 33.8479 29.8554 33.9225 30.0603 34.0083C30.2065 34.0695 30.3481 34.1425 30.4893 34.215C30.9077 34.4297 31.321 34.655 31.7441 34.8601C32.015 34.9914 32.2981 35.0981 32.5785 35.2088C32.7797 35.2882 32.9842 35.3595 33.1895 35.4277C33.3556 35.4829 33.534 35.4918 33.6979 35.5615C33.7454 35.5817 33.8103 35.5609 33.873 35.5663Z" fill="#EDF9D0"/>
<path d="M32.1753 36.7515C32.1914 36.7267 32.211 36.6933 32.2393 36.6708C32.4932 36.4686 32.6877 36.2184 32.842 35.9349C32.8559 35.9093 32.8727 35.8853 32.891 35.8559C33.0375 35.8748 33.1825 35.8918 33.327 35.9123C33.5263 35.9406 33.7218 35.9159 33.9139 35.866C33.9684 35.8519 34.0163 35.8109 34.066 35.7802C34.312 35.6288 34.4983 35.4228 34.6273 35.1644C34.6435 35.1319 34.6642 35.1015 34.6929 35.0532C34.7191 35.0953 34.739 35.12 34.7513 35.148C34.8846 35.4534 35.1145 35.6724 35.3957 35.8344C35.4852 35.8859 35.6055 35.8895 35.7132 35.9026C35.9281 35.9288 36.1408 35.8934 36.353 35.8633C36.4828 35.8448 36.4892 35.8412 36.5507 35.9608C36.6775 36.2073 36.8668 36.4043 37.0478 36.6081C37.0886 36.654 37.1359 36.694 37.1798 36.7447C36.8158 36.5054 36.4148 36.3565 35.9839 36.2705C35.6461 36.203 35.3073 36.1947 34.9664 36.1969C34.5961 36.1993 34.2255 36.199 33.8556 36.2136C33.4223 36.2306 33.0074 36.3371 32.6118 36.5142C32.5247 36.5532 32.4437 36.6058 32.3597 36.6519C32.3009 36.6841 32.2418 36.7159 32.1753 36.7515Z" fill="#EDF9D0"/>
<path d="M40.6572 37.3883C40.6624 37.3728 40.6751 37.3499 40.6942 37.3413C40.9498 37.2259 41.2046 37.1093 41.4376 36.9508C41.9256 36.6189 42.2737 36.1784 42.4746 35.6223C42.5971 35.2831 42.726 34.9461 42.8444 34.6055C42.9141 34.4049 42.9681 34.1988 43.0309 33.9957C43.0755 33.8514 43.1231 33.7081 43.1748 33.5569C43.1853 33.5685 43.1957 33.5879 43.1944 33.6065C43.1908 33.6604 43.1798 33.7138 43.1764 33.7677C43.1678 33.9073 43.1483 34.0434 43.0514 34.1533C43.0145 34.1952 43.0146 34.2419 43.0398 34.2812C43.0874 34.3557 43.0666 34.4243 43.0415 34.4974C42.9695 34.7073 42.9012 34.9184 42.8291 35.1282C42.7788 35.2746 42.7277 35.4209 42.6715 35.5651C42.6076 35.7292 42.5347 35.8898 42.4721 36.0543C42.4509 36.11 42.449 36.1731 42.4382 36.2329C42.4469 36.2394 42.4555 36.246 42.4641 36.2525C42.4905 36.2399 42.5221 36.2328 42.5426 36.2138C42.7115 36.0564 42.8876 35.9054 43.0438 35.7361C43.336 35.4193 43.6486 35.1191 43.8819 34.7515C43.9761 34.6032 44.0719 34.4555 44.1744 34.313C44.2353 34.2284 44.3107 34.1541 44.3799 34.0755C44.5661 33.8645 44.7836 33.6877 44.9974 33.5067C45.0334 33.4762 45.0985 33.4766 45.1092 33.4058C45.1589 33.529 45.1231 33.626 45.0058 33.6997C44.5787 33.9681 44.2802 34.3576 44.0071 34.7703C43.8398 35.0229 43.6649 35.2685 43.448 35.4833C43.2902 35.6398 43.1493 35.8132 42.9938 35.9721C42.8704 36.0983 42.7372 36.2149 42.6069 36.3342C42.4644 36.4649 42.3244 36.5989 42.1758 36.7225C41.9212 36.9341 41.6382 37.0986 41.3198 37.196C41.1032 37.2623 40.8851 37.3238 40.6572 37.3883Z" fill="#EDF9D0"/>
<path d="M24.3382 33.0862C24.3556 33.1464 24.3733 33.2122 24.3744 33.2783C24.3773 33.4514 24.4496 33.5885 24.5856 33.6883C24.7819 33.8324 24.9283 34.0135 25.047 34.2257C25.1241 34.3634 25.2326 34.4833 25.3257 34.6123C25.4006 34.716 25.469 34.8248 25.5487 34.9246C25.5996 34.9884 25.6668 35.0387 25.7032 35.1151C25.7225 35.1554 25.7442 35.195 25.7692 35.2319C25.7842 35.2542 25.8053 35.2744 25.8278 35.2891C25.8653 35.3137 25.9048 35.3362 25.9458 35.3539C26.0241 35.3877 26.0246 35.4422 25.9917 35.5178C25.8718 35.4032 25.7438 35.2865 25.6377 35.1525C25.5153 34.9979 25.4112 34.8286 25.3009 34.6646C25.0811 34.338 24.8273 34.042 24.5191 33.7954C24.4602 33.7483 24.3938 33.7103 24.33 33.6697C24.263 33.6271 24.2328 33.5687 24.2404 33.4887C24.2463 33.4259 24.2383 33.3606 24.2527 33.3003C24.2697 33.2287 24.304 33.1612 24.3382 33.0862Z" fill="#EDF9D0"/>
<path d="M31.6171 30.1348C31.7231 30.1361 31.8183 30.1361 31.9136 30.1361C31.917 30.1453 31.9205 30.1546 31.924 30.1638C31.9058 30.1794 31.8888 30.2069 31.8693 30.2088C31.737 30.2217 31.6041 30.2299 31.4714 30.2381C31.4199 30.2412 31.38 30.2249 31.3755 30.1549C31.3868 30.1435 31.3985 30.1418 31.4239 30.1468C31.4582 30.1491 31.4789 30.1447 31.4996 30.1403C31.5352 30.138 31.5708 30.1357 31.6171 30.1348Z" fill="#EDF9D0"/>
<path d="M32.8101 30.0864C32.8564 30.0899 32.8926 30.0924 32.9392 30.0955C32.9126 30.1687 32.863 30.1853 32.8077 30.1855C32.7623 30.1857 32.7417 30.1543 32.7397 30.101C32.7595 30.0895 32.7797 30.0874 32.8101 30.0864Z" fill="#EDF9D0"/>
<path d="M32.3766 30.1079C32.3126 30.1617 32.2306 30.1344 32.1426 30.1224C32.2116 30.1129 32.2883 30.1097 32.3766 30.1079Z" fill="#EDF9D0"/>
<path d="M37.7562 30.1384C37.6976 30.1783 37.6255 30.1652 37.5464 30.1431C37.6079 30.1359 37.6765 30.1361 37.7562 30.1384Z" fill="#EDF9D0"/>
<path d="M24.4415 32.8887C24.4325 32.9194 24.4163 32.9541 24.3921 32.9909C24.4009 32.9595 24.4176 32.9261 24.4415 32.8887Z" fill="#EDF9D0"/>
<path d="M37.0234 30.1137C36.9793 30.1185 36.9242 30.1213 36.8628 30.1166C36.9084 30.11 36.9604 30.1109 37.0234 30.1137Z" fill="#EDF9D0"/>
<path d="M31.4956 30.1365C31.4796 30.1449 31.4586 30.1493 31.4326 30.1486C31.4486 30.1398 31.4696 30.1362 31.4956 30.1365Z" fill="#EDF9D0"/>
<path d="M24.6201 32.5867C24.6187 32.6011 24.6105 32.6187 24.5947 32.6382C24.5959 32.6234 24.6046 32.6066 24.6201 32.5867Z" fill="#EDF9D0"/>
<path d="M38.212 30.163C38.1915 30.168 38.1611 30.1708 38.1255 30.1667C38.1476 30.1602 38.1748 30.1605 38.212 30.163Z" fill="#EDF9D0"/>
<path d="M36.4704 30.0875C36.4573 30.0927 36.4348 30.0957 36.4077 30.0924C36.4224 30.0858 36.4417 30.0855 36.4704 30.0875Z" fill="#EDF9D0"/>
<path d="M43.2373 33.1897C43.21 33.167 43.1903 33.1401 43.171 33.1127C43.1364 33.0635 43.0889 33.0387 43.0297 33.0489C42.8147 33.0859 42.5999 33.1238 42.3855 33.1644C42.2786 33.1846 42.172 33.2079 42.0668 33.2356C41.774 33.313 41.4918 33.4208 41.2092 33.5296C40.7586 33.7031 40.3002 33.856 39.8473 34.0238C39.4252 34.1803 39.0267 34.3879 38.6276 34.5952C38.2549 34.7888 37.8766 34.973 37.4931 35.1442C37.2063 35.2723 36.9115 35.3864 36.6123 35.4818C36.3812 35.5555 36.1398 35.6019 35.8934 35.6048C35.8398 35.6054 35.7864 35.6188 35.7327 35.6251C35.708 35.628 35.6813 35.6346 35.6585 35.6284C35.4718 35.5779 35.2857 35.5274 35.1252 35.4101C34.9016 35.2467 34.7794 35.0265 34.7393 34.7457C34.8142 34.7853 34.8771 34.8471 34.9108 34.934C35.0144 35.2012 35.2297 35.3579 35.4796 35.4538C35.6623 35.5239 35.8578 35.5833 36.0665 35.5245C36.1858 35.491 36.3143 35.4915 36.4375 35.4702C36.5266 35.4548 36.6148 35.432 36.7016 35.4063C36.7522 35.3913 36.7991 35.3638 36.8479 35.3423C36.8783 35.3288 36.9082 35.3079 36.9399 35.3043C37.1097 35.2847 37.259 35.2138 37.4051 35.1312C37.4402 35.1114 37.4818 35.1033 37.5201 35.0889C37.5512 35.0772 37.5913 35.0725 37.6112 35.0502C37.6827 34.9701 37.7755 34.9378 37.8746 34.9149C37.8787 34.914 37.8837 34.9139 37.8867 34.9115C38.007 34.8146 38.1512 34.7602 38.2851 34.6874C38.3034 34.6774 38.3195 34.6627 38.3384 34.6544C38.5107 34.5789 38.6835 34.5043 38.8561 34.4294C38.8676 34.4244 38.88 34.4206 38.8906 34.4141C39.1665 34.2442 39.4697 34.132 39.7655 34.0056C39.9914 33.909 40.2269 33.8348 40.4574 33.7489C40.5697 33.707 40.6794 33.658 40.7923 33.6177C40.8944 33.5813 41.0006 33.5565 41.1023 33.5192C41.2895 33.4504 41.4739 33.3742 41.6609 33.3051C41.7498 33.2722 41.8422 33.2487 41.9329 33.2204C42.2356 33.1262 42.5478 33.0761 42.8577 33.0139C42.9702 32.9913 43.0734 33.0142 43.18 33.0213C43.2689 33.0272 43.2897 33.0903 43.2373 33.1897Z" fill="#EDF9D0"/>
<path d="M34.6726 34.7171C34.6597 34.7344 34.6392 34.7481 34.6292 34.7549C34.5897 35.0274 34.4917 35.2523 34.2405 35.3949C34.2377 35.3696 34.2367 35.3379 34.2504 35.3149C34.3285 35.1838 34.4114 35.0556 34.4896 34.9246C34.51 34.8905 34.5243 34.851 34.5332 34.8121C34.5497 34.7393 34.5892 34.7038 34.6726 34.7171Z" fill="#EDF9D0"/>
<path d="M38.5188 36.7288C38.9498 36.6562 39.2922 36.4514 39.5617 36.1236C39.7026 35.9523 39.7825 35.7488 39.8671 35.5465C39.9343 35.3856 39.9416 35.221 39.939 35.0525C39.9363 34.88 39.9333 34.7075 39.9304 34.5349C39.9286 34.4216 39.9321 34.4131 40.0373 34.3846C40.2762 34.3197 40.5126 34.2363 40.7559 34.1995C41.1054 34.1466 41.4604 34.1428 41.8136 34.1821C41.841 34.1851 41.8783 34.1933 41.8916 34.2126C41.9457 34.2909 42.0026 34.3655 42.0466 34.4536C42.1332 34.6271 42.1037 34.8046 42.1088 34.9814C42.1138 35.158 42.0996 35.3322 42.0619 35.5074C41.9654 35.9558 41.7234 36.3096 41.3736 36.5907C41.0359 36.8619 40.6567 37.0588 40.2282 37.1462C40.1215 37.168 40.0117 37.1818 39.9029 37.1843C39.4481 37.195 38.9939 37.1817 38.5409 37.1365C38.2994 37.1124 38.0766 37.0298 37.8544 36.9373C37.5464 36.8089 37.2811 36.6231 37.0442 36.3904C36.8742 36.2236 36.7464 36.0298 36.6313 35.8147C36.7021 35.7868 36.7631 35.7628 36.8262 35.7379C36.8518 35.8131 36.8631 35.8972 36.9057 35.96C36.9782 36.0668 37.0587 36.1742 37.1569 36.2559C37.3114 36.3843 37.4772 36.5024 37.6507 36.6034C37.7484 36.6603 37.871 36.6748 37.9829 36.7068C38.011 36.7149 38.0411 36.7156 38.0698 36.7219C38.2154 36.7538 38.3613 36.761 38.5188 36.7288Z" fill="#FCFCFC"/>
<path d="M29.9098 37.188C29.6744 37.1806 29.4499 37.1882 29.2294 37.1619C28.9517 37.1287 28.6983 37.013 28.449 36.8863C28.2055 36.7625 27.9957 36.5958 27.8027 36.4086C27.7073 36.3161 27.636 36.1982 27.5575 36.0891C27.4275 35.9083 27.3701 35.6999 27.3196 35.4856C27.2726 35.2864 27.2662 35.0866 27.2568 34.8847C27.2477 34.6883 27.3074 34.5124 27.3858 34.3387C27.4311 34.2385 27.5007 34.1753 27.6166 34.1725C27.7511 34.1692 27.8857 34.156 28.0199 34.1599C28.2217 34.1657 28.4242 34.1746 28.6245 34.1978C28.7439 34.2117 28.86 34.255 28.9773 34.2862C29.0949 34.3174 29.2131 34.347 29.3292 34.383C29.4586 34.4232 29.4621 34.4339 29.4556 34.5732C29.4475 34.7456 29.4415 34.9182 29.4338 35.0907C29.427 35.2441 29.4525 35.3919 29.5017 35.5372C29.6647 36.0185 29.9606 36.3886 30.424 36.6052C30.6942 36.7315 30.9814 36.7732 31.2838 36.7291C31.7295 36.6642 32.0678 36.4235 32.3647 36.1077C32.478 35.9872 32.511 35.8971 32.5231 35.7397C32.5945 35.7626 32.6641 35.785 32.7453 35.8111C32.6099 36.0434 32.4873 36.2676 32.2809 36.4313C32.1526 36.533 32.0369 36.6546 31.8982 36.7387C31.5013 36.9794 31.074 37.1383 30.6037 37.1583C30.3766 37.168 30.1495 37.1781 29.9098 37.188Z" fill="#FCFCFC"/>
<path d="M39.79 34.6598C39.7924 34.8027 39.7911 34.9458 39.7977 35.0886C39.824 35.6651 39.3657 36.3669 38.6985 36.5599C38.1763 36.7109 37.7387 36.5666 37.3406 36.239C37.232 36.1496 37.1255 36.0552 37.0405 35.9369C36.9825 35.8562 36.9905 35.7853 37.0079 35.6824C37.0797 35.7339 37.1374 35.7796 37.1993 35.8187C37.3338 35.9035 37.4636 36.0009 37.6081 36.0635C37.7719 36.1346 37.952 36.167 38.1208 36.228C38.2427 36.2721 38.366 36.277 38.492 36.2839C38.7648 36.2989 38.9882 36.1865 39.1919 36.0227C39.3392 35.9042 39.433 35.7439 39.5143 35.5771C39.5505 35.5029 39.6041 35.4325 39.5918 35.3416C39.7206 35.1376 39.7203 34.9053 39.7455 34.6604C39.7656 34.6492 39.7778 34.6545 39.79 34.6598Z" fill="#A5E314"/>
<path d="M29.5674 35.1821C29.5718 35.0179 29.5767 34.8652 29.5816 34.7125C29.592 34.7118 29.6024 34.711 29.6128 34.7102C29.62 34.7445 29.6258 34.7791 29.6347 34.813C29.6911 35.028 29.7361 35.2472 29.8084 35.4568C29.8932 35.7024 30.0321 35.9195 30.2455 36.0773C30.4142 36.202 30.6015 36.2731 30.8162 36.2832C31.1017 36.2966 31.3652 36.2077 31.628 36.124C31.8689 36.0473 32.0744 35.8976 32.2741 35.7441C32.2907 35.7314 32.3073 35.7184 32.3251 35.7074C32.3314 35.7035 32.3411 35.7051 32.353 35.7038C32.3942 35.7859 32.3888 35.8621 32.3311 35.937C32.1039 36.2318 31.816 36.4332 31.4621 36.5573C30.7757 36.7979 30.0044 36.3376 29.7335 35.7449C29.6532 35.5692 29.5677 35.394 29.5674 35.1821Z" fill="#A5E314"/>
<path d="M39.7927 34.6491C39.7781 34.6543 39.7659 34.6491 39.745 34.6491C39.7363 34.5948 39.7363 34.5353 39.7363 34.4578C39.8166 34.5173 39.7862 34.5832 39.7927 34.6491Z" fill="#A5E314"/>
</svg>
