<svg width="32" height="32" viewBox="0 0 32 32" fill="none" xmlns="http://www.w3.org/2000/svg">
<g filter="url(#filter0_b_804_2307)">
<rect width="32" height="32" rx="16" fill="#212D04" fill-opacity="0.6"/>
<rect x="0.25" y="0.25" width="31.5" height="31.5" rx="15.75" stroke="#757A6F" stroke-width="0.5"/>
<path d="M24 15.8852C24 18.0047 23.6448 19.724 23.2065 19.724C22.7682 19.724 22.4131 18.0052 22.4131 15.8852C22.4131 13.7652 22.7683 12.0463 23.2065 12.0463C23.6446 12.0463 24 13.765 24 15.8852Z" fill="#E1F6B1"/>
<path d="M21.9752 15.8851C21.9752 18.2514 20.965 20.1703 19.7189 20.1703C18.4728 20.1703 17.4626 18.2514 17.4626 15.8851C17.4626 13.5189 18.4727 11.6 19.7188 11.6C20.9649 11.6 21.9751 13.5183 21.9751 15.8851" fill="#E1F6B1"/>
<path d="M17.025 15.8851C17.025 18.3989 15.0046 20.4368 12.5126 20.4368C10.0205 20.4368 8 18.3985 8 15.8851C8 13.3718 10.0203 11.3333 12.5126 11.3333C15.0048 11.3333 17.025 13.3713 17.025 15.8851Z" fill="#E1F6B1"/>
</g>
<defs>
<filter id="filter0_b_804_2307" x="-20" y="-20" width="72" height="72" filterUnits="userSpaceOnUse" color-interpolation-filters="sRGB">
<feFlood flood-opacity="0" result="BackgroundImageFix"/>
<feGaussianBlur in="BackgroundImageFix" stdDeviation="10"/>
<feComposite in2="SourceAlpha" operator="in" result="effect1_backgroundBlur_804_2307"/>
<feBlend mode="normal" in="SourceGraphic" in2="effect1_backgroundBlur_804_2307" result="shape"/>
</filter>
</defs>
</svg>
