<svg width="26" height="25" viewBox="0 0 26 25" fill="none" xmlns="http://www.w3.org/2000/svg">
<path d="M1.3335 19.5046C1.3335 17.7074 1.3335 16.8088 1.73801 16.1487C1.96436 15.7793 2.27492 15.4688 2.64428 15.2424C3.3044 14.8379 4.20299 14.8379 6.00016 14.8379C7.79734 14.8379 8.69593 14.8379 9.35604 15.2424C9.72541 15.4688 10.036 15.7793 10.2623 16.1487C10.6668 16.8088 10.6668 17.7074 10.6668 19.5046C10.6668 21.3017 10.6668 22.2003 10.2623 22.8604C10.036 23.2298 9.72541 23.5404 9.35604 23.7667C8.69593 24.1712 7.79734 24.1712 6.00016 24.1712C4.20299 24.1712 3.3044 24.1712 2.64428 23.7667C2.27492 23.5404 1.96436 23.2298 1.73801 22.8604C1.3335 22.2003 1.3335 21.3017 1.3335 19.5046Z" fill="#374C07" stroke="#374C07" stroke-width="1.5"/>
<path d="M15.3335 19.5046C15.3335 17.7074 15.3335 16.8088 15.738 16.1487C15.9644 15.7793 16.2749 15.4688 16.6443 15.2424C17.3044 14.8379 18.203 14.8379 20.0002 14.8379C21.7973 14.8379 22.6959 14.8379 23.356 15.2424C23.7254 15.4688 24.036 15.7793 24.2623 16.1487C24.6668 16.8088 24.6668 17.7074 24.6668 19.5046C24.6668 21.3017 24.6668 22.2003 24.2623 22.8604C24.036 23.2298 23.7254 23.5404 23.356 23.7667C22.6959 24.1712 21.7973 24.1712 20.0002 24.1712C18.203 24.1712 17.3044 24.1712 16.6443 23.7667C16.2749 23.5404 15.9644 23.2298 15.738 22.8604C15.3335 22.2003 15.3335 21.3017 15.3335 19.5046Z" fill="#A5E314" stroke="#A5E314" stroke-width="1.5"/>
<path d="M1.3335 5.50456C1.3335 3.70738 1.3335 2.80879 1.73801 2.14868C1.96436 1.77931 2.27492 1.46876 2.64428 1.24241C3.3044 0.837891 4.20299 0.837891 6.00016 0.837891C7.79734 0.837891 8.69593 0.837891 9.35604 1.24241C9.72541 1.46876 10.036 1.77931 10.2623 2.14868C10.6668 2.80879 10.6668 3.70738 10.6668 5.50456C10.6668 7.30174 10.6668 8.20032 10.2623 8.86044C10.036 9.2298 9.72541 9.54036 9.35604 9.76671C8.69593 10.1712 7.79734 10.1712 6.00016 10.1712C4.20299 10.1712 3.3044 10.1712 2.64428 9.76671C2.27492 9.54036 1.96436 9.2298 1.73801 8.86044C1.3335 8.20032 1.3335 7.30174 1.3335 5.50456Z" fill="#A5E314" stroke="#A5E314" stroke-width="1.5"/>
<path d="M15.3335 5.50456C15.3335 3.70738 15.3335 2.80879 15.738 2.14868C15.9644 1.77931 16.2749 1.46876 16.6443 1.24241C17.3044 0.837891 18.203 0.837891 20.0002 0.837891C21.7973 0.837891 22.6959 0.837891 23.356 1.24241C23.7254 1.46876 24.036 1.77931 24.2623 2.14868C24.6668 2.80879 24.6668 3.70738 24.6668 5.50456C24.6668 7.30174 24.6668 8.20032 24.2623 8.86044C24.036 9.2298 23.7254 9.54036 23.356 9.76671C22.6959 10.1712 21.7973 10.1712 20.0002 10.1712C18.203 10.1712 17.3044 10.1712 16.6443 9.76671C16.2749 9.54036 15.9644 9.2298 15.738 8.86044C15.3335 8.20032 15.3335 7.30174 15.3335 5.50456Z" fill="#374C07" stroke="#374C07" stroke-width="1.5"/>
</svg>
