<svg width="186" height="56" viewBox="0 0 186 56" fill="none" xmlns="http://www.w3.org/2000/svg">
<rect x="0.5" y="0.5" width="184.747" height="55" rx="27.5" fill="#121212"/>
<rect x="0.5" y="0.5" width="184.747" height="55" rx="27.5" stroke="url(#paint0_linear_804_2278)"/>
<path d="M16.6175 11.7976C16.2264 12.1973 16 12.8197 16 13.6257V42.3752C16 43.1812 16.2264 43.8036 16.6175 44.2033L16.714 44.2911L33.2146 28.1873V27.8071L16.714 11.7033L16.6175 11.7976Z" fill="url(#paint1_linear_804_2278)"/>
<path d="M38.7087 33.5579L33.2146 28.1873V27.807L38.7154 22.4364L38.8385 22.5063L45.3529 26.1252C47.212 27.1522 47.212 28.8422 45.3529 29.8757L38.8385 33.488L38.7087 33.5579Z" fill="url(#paint2_linear_804_2278)"/>
<path d="M38.8385 33.4881L33.2146 27.9972L16.6174 44.2033C17.2349 44.8371 18.2419 44.9135 19.387 44.2797L38.8385 33.4881Z" fill="url(#paint3_linear_804_2278)"/>
<path d="M38.8385 22.5063L19.387 11.7147C18.2419 11.0874 17.2349 11.1638 16.6174 11.7976L33.2146 27.9972L38.8385 22.5063Z" fill="url(#paint4_linear_804_2278)"/>
<path d="M61.2829 20.12C60.0109 20.12 59.0509 19.776 58.4029 19.088C57.7629 18.4 57.4429 17.468 57.4429 16.292C57.4429 15.444 57.5829 14.712 57.8629 14.096C58.1429 13.472 58.5669 12.992 59.1349 12.656C59.7109 12.32 60.4389 12.152 61.3189 12.152C61.7749 12.152 62.1869 12.184 62.5549 12.248C62.9309 12.304 63.2829 12.388 63.6109 12.5V13.628C62.9549 13.388 62.2269 13.268 61.4269 13.268C60.4429 13.268 59.7509 13.528 59.3509 14.048C58.9589 14.568 58.7629 15.316 58.7629 16.292C58.7629 17.18 58.9709 17.856 59.3869 18.32C59.8029 18.784 60.4469 19.016 61.3189 19.016C62.0069 19.016 62.5629 18.936 62.9869 18.776V16.616H61.0549V15.764H64.1029V19.484C63.8549 19.644 63.4989 19.792 63.0349 19.928C62.5789 20.056 61.9949 20.12 61.2829 20.12ZM65.3704 20V12.272H70.7584V13.292H66.6784V15.632H70.3144V16.64H66.6784V18.992H70.7584V20H65.3704ZM73.972 20V13.292H71.5V12.272H77.74V13.292H75.28V20H73.972ZM81.554 20V12.272H82.862V20H81.554ZM86.3822 20V13.292H83.9102V12.272H90.1502V13.292H87.6902V20H86.3822ZM97.3841 20.12C96.1601 20.12 95.2441 19.8 94.6361 19.16C94.0281 18.512 93.7241 17.512 93.7241 16.16C93.7241 14.752 94.0281 13.732 94.6361 13.1C95.2441 12.468 96.1601 12.152 97.3841 12.152C98.6161 12.152 99.5321 12.468 100.132 13.1C100.74 13.732 101.044 14.752 101.044 16.16C101.044 17.512 100.74 18.512 100.132 19.16C99.5321 19.8 98.6161 20.12 97.3841 20.12ZM97.3841 19.016C98.1921 19.016 98.7841 18.796 99.1601 18.356C99.5441 17.908 99.7361 17.176 99.7361 16.16C99.7361 15.088 99.5441 14.34 99.1601 13.916C98.7841 13.484 98.1921 13.268 97.3841 13.268C96.5841 13.268 95.9921 13.484 95.6081 13.916C95.2321 14.34 95.0441 15.088 95.0441 16.16C95.0441 17.176 95.2321 17.908 95.6081 18.356C95.9921 18.796 96.5841 19.016 97.3841 19.016ZM102.32 20V12.272H103.472L107.504 17.96V12.272H108.8V20H107.648L103.628 14.324V20H102.32Z" fill="#AAAAAA"/>
<path d="M66.0959 34.192C65.8399 33.7227 65.4879 33.3653 65.0399 33.12C64.5919 32.8747 64.0693 32.752 63.4719 32.752C62.8106 32.752 62.2239 32.9013 61.7119 33.2C61.1999 33.4987 60.7999 33.9253 60.5119 34.48C60.2239 35.0347 60.0799 35.6747 60.0799 36.4C60.0799 37.1467 60.2239 37.7973 60.5119 38.352C60.8106 38.9067 61.2213 39.3333 61.7439 39.632C62.2666 39.9307 62.8746 40.08 63.5679 40.08C64.4213 40.08 65.1199 39.856 65.6639 39.408C66.2079 38.9493 66.5653 38.3147 66.7359 37.504H62.8959V35.792H68.9439V37.744C68.7946 38.5227 68.4746 39.2427 67.9839 39.904C67.4933 40.5653 66.8586 41.0987 66.0799 41.504C65.3119 41.8987 64.4479 42.096 63.4879 42.096C62.4106 42.096 61.4346 41.856 60.5599 41.376C59.6959 40.8853 59.0133 40.208 58.5119 39.344C58.0213 38.48 57.7759 37.4987 57.7759 36.4C57.7759 35.3013 58.0213 34.32 58.5119 33.456C59.0133 32.5813 59.6959 31.904 60.5599 31.424C61.4346 30.9333 62.4053 30.688 63.4719 30.688C64.7306 30.688 65.8239 30.9973 66.7519 31.616C67.6799 32.224 68.3199 33.0827 68.6719 34.192H66.0959ZM75.7852 42.112C74.7399 42.112 73.7799 41.8667 72.9052 41.376C72.0305 40.8853 71.3372 40.208 70.8252 39.344C70.3132 38.4693 70.0572 37.4827 70.0572 36.384C70.0572 35.296 70.3132 34.32 70.8252 33.456C71.3372 32.5813 72.0305 31.8987 72.9052 31.408C73.7799 30.9173 74.7399 30.672 75.7852 30.672C76.8412 30.672 77.8012 30.9173 78.6652 31.408C79.5399 31.8987 80.2279 32.5813 80.7292 33.456C81.2412 34.32 81.4972 35.296 81.4972 36.384C81.4972 37.4827 81.2412 38.4693 80.7292 39.344C80.2279 40.208 79.5399 40.8853 78.6652 41.376C77.7905 41.8667 76.8305 42.112 75.7852 42.112ZM75.7852 40.112C76.4572 40.112 77.0492 39.9627 77.5612 39.664C78.0732 39.3547 78.4732 38.9173 78.7612 38.352C79.0492 37.7867 79.1932 37.1307 79.1932 36.384C79.1932 35.6373 79.0492 34.9867 78.7612 34.432C78.4732 33.8667 78.0732 33.4347 77.5612 33.136C77.0492 32.8373 76.4572 32.688 75.7852 32.688C75.1132 32.688 74.5159 32.8373 73.9932 33.136C73.4812 33.4347 73.0812 33.8667 72.7932 34.432C72.5052 34.9867 72.3612 35.6373 72.3612 36.384C72.3612 37.1307 72.5052 37.7867 72.7932 38.352C73.0812 38.9173 73.4812 39.3547 73.9932 39.664C74.5159 39.9627 75.1132 40.112 75.7852 40.112ZM88.3477 42.112C87.3024 42.112 86.3424 41.8667 85.4677 41.376C84.593 40.8853 83.8997 40.208 83.3877 39.344C82.8757 38.4693 82.6197 37.4827 82.6197 36.384C82.6197 35.296 82.8757 34.32 83.3877 33.456C83.8997 32.5813 84.593 31.8987 85.4677 31.408C86.3424 30.9173 87.3024 30.672 88.3477 30.672C89.4037 30.672 90.3637 30.9173 91.2277 31.408C92.1024 31.8987 92.7904 32.5813 93.2917 33.456C93.8037 34.32 94.0597 35.296 94.0597 36.384C94.0597 37.4827 93.8037 38.4693 93.2917 39.344C92.7904 40.208 92.1024 40.8853 91.2277 41.376C90.353 41.8667 89.393 42.112 88.3477 42.112ZM88.3477 40.112C89.0197 40.112 89.6117 39.9627 90.1237 39.664C90.6357 39.3547 91.0357 38.9173 91.3237 38.352C91.6117 37.7867 91.7557 37.1307 91.7557 36.384C91.7557 35.6373 91.6117 34.9867 91.3237 34.432C91.0357 33.8667 90.6357 33.4347 90.1237 33.136C89.6117 32.8373 89.0197 32.688 88.3477 32.688C87.6757 32.688 87.0784 32.8373 86.5557 33.136C86.0437 33.4347 85.6437 33.8667 85.3557 34.432C85.0677 34.9867 84.9237 35.6373 84.9237 36.384C84.9237 37.1307 85.0677 37.7867 85.3557 38.352C85.6437 38.9173 86.0437 39.3547 86.5557 39.664C87.0784 39.9627 87.6757 40.112 88.3477 40.112ZM103.502 34.192C103.246 33.7227 102.894 33.3653 102.446 33.12C101.998 32.8747 101.476 32.752 100.878 32.752C100.217 32.752 99.6302 32.9013 99.1182 33.2C98.6062 33.4987 98.2062 33.9253 97.9182 34.48C97.6302 35.0347 97.4862 35.6747 97.4862 36.4C97.4862 37.1467 97.6302 37.7973 97.9182 38.352C98.2169 38.9067 98.6275 39.3333 99.1502 39.632C99.6729 39.9307 100.281 40.08 100.974 40.08C101.828 40.08 102.526 39.856 103.07 39.408C103.614 38.9493 103.972 38.3147 104.142 37.504H100.302V35.792H106.35V37.744C106.201 38.5227 105.881 39.2427 105.39 39.904C104.9 40.5653 104.265 41.0987 103.486 41.504C102.718 41.8987 101.854 42.096 100.894 42.096C99.8169 42.096 98.8409 41.856 97.9662 41.376C97.1022 40.8853 96.4195 40.208 95.9182 39.344C95.4275 38.48 95.1822 37.4987 95.1822 36.4C95.1822 35.3013 95.4275 34.32 95.9182 33.456C96.4195 32.5813 97.1022 31.904 97.9662 31.424C98.8409 30.9333 99.8115 30.688 100.878 30.688C102.137 30.688 103.23 30.9973 104.158 31.616C105.086 32.224 105.726 33.0827 106.078 34.192H103.502ZM110.247 40.224H113.927V42H108.007V30.832H110.247V40.224ZM117.591 32.64V35.44H121.351V37.216H117.591V40.176H121.831V42H115.351V30.816H121.831V32.64H117.591ZM135.823 34.288C135.823 34.8853 135.679 35.4453 135.391 35.968C135.114 36.4907 134.671 36.912 134.063 37.232C133.466 37.552 132.709 37.712 131.791 37.712H129.919V42H127.679V30.832H131.791C132.655 30.832 133.391 30.9813 133.999 31.28C134.607 31.5787 135.061 31.9893 135.359 32.512C135.669 33.0347 135.823 33.6267 135.823 34.288ZM131.695 35.904C132.314 35.904 132.773 35.7653 133.071 35.488C133.37 35.2 133.519 34.8 133.519 34.288C133.519 33.2 132.911 32.656 131.695 32.656H129.919V35.904H131.695ZM139.654 40.224H143.334V42H137.414V30.832H139.654V40.224ZM151.605 39.872H147.157L146.421 42H144.069L148.085 30.816H150.693L154.709 42H152.341L151.605 39.872ZM150.997 38.08L149.381 33.408L147.765 38.08H150.997ZM165.091 30.832L161.315 38.112V42H159.075V38.112L155.283 30.832H157.811L160.211 35.936L162.595 30.832H165.091Z" fill="#F2F2F2"/>
<defs>
<linearGradient id="paint0_linear_804_2278" x1="-0.485802" y1="-4.14496e-06" x2="185.013" y2="56.8123" gradientUnits="userSpaceOnUse">
<stop stop-color="#D2F189"/>
<stop offset="1" stop-color="#798B4F"/>
</linearGradient>
<linearGradient id="paint1_linear_804_2278" x1="31.7496" y1="42.6746" x2="9.93871" y2="20.3352" gradientUnits="userSpaceOnUse">
<stop stop-color="#00A0FF"/>
<stop offset="0.0066" stop-color="#00A1FF"/>
<stop offset="0.2601" stop-color="#00BEFF"/>
<stop offset="0.5122" stop-color="#00D2FF"/>
<stop offset="0.7604" stop-color="#00DFFF"/>
<stop offset="1" stop-color="#00E3FF"/>
</linearGradient>
<linearGradient id="paint2_linear_804_2278" x1="47.7738" y1="27.9954" x2="15.5556" y2="27.9954" gradientUnits="userSpaceOnUse">
<stop stop-color="#FFE000"/>
<stop offset="0.4087" stop-color="#FFBD00"/>
<stop offset="0.7754" stop-color="#FFA500"/>
<stop offset="1" stop-color="#FF9C00"/>
</linearGradient>
<linearGradient id="paint3_linear_804_2278" x1="35.7804" y1="25.0123" x2="6.20308" y2="-5.28171" gradientUnits="userSpaceOnUse">
<stop stop-color="#FF3A44"/>
<stop offset="1" stop-color="#C31162"/>
</linearGradient>
<linearGradient id="paint4_linear_804_2278" x1="12.4396" y1="53.7681" x2="25.6472" y2="40.2406" gradientUnits="userSpaceOnUse">
<stop stop-color="#32A071"/>
<stop offset="0.0685" stop-color="#2DA771"/>
<stop offset="0.4762" stop-color="#15CF74"/>
<stop offset="0.8009" stop-color="#06E775"/>
<stop offset="1" stop-color="#00F076"/>
</linearGradient>
</defs>
</svg>
