<svg width="101" height="100" viewBox="0 0 101 100" fill="none" xmlns="http://www.w3.org/2000/svg">
<path d="M43 5.48483C47.641 2.80533 53.359 2.80534 58 5.48483L85.3013 21.2472C89.9423 23.9267 92.8013 28.8786 92.8013 34.2376V65.7624C92.8013 71.1214 89.9423 76.0733 85.3013 78.7528L58 94.5152C53.359 97.1947 47.641 97.1947 43 94.5152L15.6987 78.7528C11.0577 76.0733 8.19873 71.1214 8.19873 65.7624V34.2376C8.19873 28.8786 11.0577 23.9267 15.6987 21.2472L43 5.48483Z" fill="#374C07" stroke="url(#paint0_linear_1002_2967)" stroke-width="2"/>
<path d="M62.9065 43.1102C62.9581 43.3517 62.9706 43.5962 62.9657 43.8425C62.965 43.8774 62.9687 43.9253 62.9905 43.9453C63.0585 44.0074 63.0433 44.0842 63.0482 44.1599C63.0636 44.4 63.0822 44.6398 63.0983 44.8798C63.1022 44.9389 63.0997 44.9984 63.1025 45.0576C63.1106 45.2256 63.1193 45.3936 63.1292 45.5616C63.1305 45.5835 63.1331 45.6131 63.1472 45.6254C63.2238 45.6926 63.2101 45.7812 63.2109 45.8666C63.2118 45.9624 63.2111 46.0582 63.2118 46.154C63.212 46.1859 63.2039 46.2229 63.2169 46.2488C63.2906 46.3961 63.2594 46.553 63.2645 46.7061C63.2694 46.852 63.2643 46.9982 63.2687 47.144C63.27 47.1877 63.2751 47.2559 63.3012 47.2696C63.3876 47.315 63.375 47.3867 63.3733 47.4573C63.3681 47.6763 63.4008 47.8918 63.4221 48.1088C63.4404 48.2942 63.4283 48.4826 63.4299 48.6696C63.4304 48.7328 63.4238 48.7949 63.4871 48.8423C63.5086 48.8583 63.511 48.9077 63.5122 48.9421C63.5218 49.2241 63.5247 49.5064 63.5385 49.7882C63.5499 50.0189 63.5742 50.249 63.5909 50.4794C63.5946 50.5306 63.6 50.5749 63.6431 50.6137C63.6652 50.6336 63.6716 50.6776 63.6739 50.7115C63.683 50.8464 63.6652 50.9815 63.7233 51.1142C63.7503 51.1759 63.7362 51.2586 63.7305 51.331C63.7119 51.5652 63.7791 51.7809 63.8622 51.9944C63.8784 52.0359 63.888 52.0813 63.8927 52.1257C63.9056 52.2475 63.9141 52.3698 63.9247 52.4919C63.9329 52.5868 63.9406 52.6818 63.9506 52.7766C63.9543 52.8121 63.9514 52.8626 63.9727 52.8793C64.0427 52.9342 64.03 53.0058 64.0346 53.0773C64.0398 53.1587 64.0533 53.2396 64.0609 53.3209C64.071 53.4293 64.0805 53.5378 64.0876 53.6464C64.0975 53.7961 64.1046 53.9459 64.1142 54.0956C64.1156 54.1177 64.1169 54.1495 64.1308 54.1595C64.2124 54.2184 64.1953 54.3032 64.1956 54.3832C64.1965 54.657 64.1919 54.9308 64.1977 55.2044C64.2023 55.4197 64.1787 55.6308 64.1361 55.841C64.1235 55.9029 64.1176 55.9666 64.1137 56.0298C64.0926 56.365 64.0925 56.7008 64.0425 57.0353C64.0201 57.1849 63.9486 57.318 63.9387 57.4686C63.9325 57.5631 63.9132 57.6574 63.8929 57.7502C63.8677 57.865 63.8373 57.9788 63.8056 58.0921C63.775 58.2013 63.7449 58.311 63.7057 58.4172C63.6442 58.5835 63.5796 58.749 63.5083 58.9113C63.4116 59.1317 63.3188 59.3553 63.2019 59.5651C63.1305 59.6933 63.0648 59.8255 62.9688 59.9452C62.8718 60.066 62.7847 60.2008 62.6893 60.3265C62.5385 60.5249 62.3726 60.7094 62.1757 60.8647C62.1116 60.9153 62.0645 60.9897 61.9966 61.0327C61.8675 61.1144 61.8057 61.2717 61.6499 61.3244C61.6043 61.3398 61.5765 61.4025 61.5354 61.4377C61.3651 61.5838 61.1954 61.7308 61.0206 61.8714C60.8615 61.9994 60.6967 62.1203 60.5334 62.2429C60.218 62.4797 59.8925 62.7024 59.5528 62.9025C59.3497 63.0222 59.1367 63.1249 58.9293 63.2373C58.7692 63.324 58.6126 63.4171 58.451 63.501C58.3299 63.5638 58.2043 63.6183 58.0792 63.6733C57.9048 63.7501 57.729 63.8239 57.5538 63.899C57.2908 64.0118 57.0287 64.1265 56.7645 64.2364C56.6352 64.2902 56.5007 64.3317 56.3708 64.3843C56.1615 64.469 55.96 64.5796 55.7442 64.6397C55.5226 64.7015 55.3263 64.817 55.1103 64.8878C54.9127 64.9525 54.7221 65.0386 54.5247 65.1043C54.3843 65.1511 54.238 65.1806 54.094 65.2164C53.8471 65.278 53.5996 65.337 53.353 65.3998C53.0973 65.4649 52.8382 65.5081 52.5755 65.5327C52.4356 65.5459 52.2904 65.5488 52.1584 65.5906C51.933 65.6621 51.7047 65.6645 51.4739 65.6702C51.3106 65.6743 51.1474 65.6951 50.9843 65.6936C50.7663 65.6917 50.5484 65.676 50.3305 65.6646C50.2992 65.6629 50.2659 65.6577 50.2377 65.6448C50.0472 65.5574 49.8392 65.5631 49.6386 65.5316C49.4954 65.5091 49.3472 65.5129 49.2065 65.4815C48.8037 65.3916 48.3999 65.3022 48.0036 65.1881C47.7452 65.1136 47.4783 65.057 47.2376 64.9253C47.1751 64.8911 47.0987 64.8833 47.0307 64.8581C46.739 64.7499 46.4546 64.6234 46.1677 64.504C46.0584 64.4585 45.9461 64.428 45.8367 64.3866C45.6387 64.3117 45.4466 64.2205 45.2466 64.1519C45.094 64.0996 44.9618 63.9886 44.7895 63.991C44.7708 63.9913 44.7522 63.9674 44.7328 63.9559C44.686 63.9281 44.6417 63.8918 44.5911 63.8751C44.4021 63.813 44.2293 63.7195 44.0554 63.6247C43.8887 63.5338 43.7082 63.4687 43.5383 63.3832C43.4059 63.3164 43.2803 63.236 43.1519 63.1612C43.0676 63.1121 42.9847 63.0606 42.8996 63.0132C42.8128 62.9649 42.7221 62.9233 42.6363 62.8733C42.4516 62.7656 42.2689 62.6546 42.0859 62.544C42.0714 62.5353 42.0595 62.521 42.0492 62.5072C42.0385 62.493 42.0311 62.4626 42.0224 62.4627C41.8765 62.4632 41.8326 62.3179 41.7278 62.2565C41.545 62.1494 41.3657 62.0266 41.2135 61.8806C41.1021 61.7737 40.9743 61.6927 40.8602 61.5925C40.775 61.5176 40.6869 61.4463 40.6014 61.3718C40.4931 61.2774 40.3854 61.1825 40.2793 61.0857C40.2329 61.0435 40.192 60.9953 40.1472 60.9513C39.9972 60.8041 39.8467 60.6575 39.696 60.511C39.6732 60.4888 39.6492 60.4678 39.6249 60.4474C39.6075 60.4328 39.5756 60.4224 39.5726 60.406C39.543 60.2448 39.399 60.1668 39.3124 60.0481C39.191 59.8815 39.09 59.7067 39.009 59.5181C38.9592 59.4021 38.8982 59.291 38.8452 59.1764C38.7276 58.9223 38.587 58.6771 38.5389 58.3956C38.4054 58.2069 38.4102 57.9732 38.3378 57.7641C38.2609 57.5422 38.2228 57.3069 38.1693 57.0771C38.1621 57.0465 38.1616 57.0137 38.1623 56.982C38.1653 56.8406 38.1502 56.703 38.1198 56.5635C38.0892 56.4227 38.086 56.2748 38.0811 56.1298C38.0679 55.743 38.0587 55.356 38.0511 54.9691C38.0475 54.7821 38.0454 54.5947 38.0532 54.408C38.0598 54.2496 38.0823 54.092 38.0963 53.9339C38.1015 53.875 38.1027 53.8158 38.1055 53.7567C38.1094 53.6758 38.0954 53.5928 38.1495 53.5195C38.1636 53.5004 38.1631 53.4664 38.1607 53.4401C38.1369 53.1774 38.2169 52.9276 38.2536 52.6724C38.2774 52.5064 38.3009 52.3404 38.3247 52.1745C38.3279 52.1522 38.3245 52.1214 38.3377 52.1094C38.4204 52.0343 38.4032 51.9361 38.4093 51.8417C38.4127 51.7878 38.4265 51.7345 38.4365 51.6811C38.4441 51.6411 38.4602 51.6014 38.4602 51.5616C38.46 51.4461 38.4761 51.339 38.538 51.2356C38.5681 51.1854 38.5675 51.1125 38.5683 51.0497C38.5712 50.8359 38.5685 50.6223 38.6203 50.4121C38.632 50.3645 38.6241 50.3122 38.6259 50.2621C38.6291 50.1773 38.6167 50.0916 38.6797 50.0165C38.703 49.9887 38.7066 49.9393 38.7083 49.8993C38.7186 49.6583 38.7239 49.4172 38.7345 49.1763C38.7419 49.0086 38.7556 48.8412 38.7654 48.6736C38.7743 48.5193 38.7819 48.365 38.7895 48.2107C38.7919 48.1611 38.7919 48.1165 38.8303 48.0719C38.8591 48.0385 38.8679 47.9808 38.8704 47.9331C38.8762 47.8193 38.8704 47.705 38.8744 47.5911C38.8778 47.4959 38.8893 47.4011 38.8957 47.306C38.9074 47.1339 38.9192 46.9619 38.9285 46.7897C38.9327 46.7129 38.9368 46.6446 38.9857 46.5725C39.0275 46.511 39.0285 46.417 39.0332 46.3365C39.0408 46.2091 39.0309 46.0808 39.0387 45.9534C39.0487 45.7907 39.0733 45.6289 39.0837 45.4662C39.0924 45.3298 39.0867 45.1926 39.0938 45.0561C39.0965 45.0045 39.1177 44.9539 39.1299 44.9027C39.1362 44.8766 39.1432 44.8505 39.1464 44.8239C39.1491 44.8015 39.1464 44.7784 39.1471 44.7556C39.1526 44.5622 39.1404 44.3709 39.1958 44.1773C39.2751 43.9 39.2553 43.609 39.2533 43.3225C39.2529 43.2517 39.2623 43.1871 39.3162 43.1176C39.3491 43.0951 39.372 43.087 39.3869 43.0713C39.5373 42.9129 39.698 42.7625 39.833 42.5918C40.0033 42.3765 40.1889 42.1767 40.3899 41.9925C40.5096 41.8828 40.6441 41.7842 40.7855 41.7046C40.9795 41.5953 41.1856 41.5071 41.388 41.413C41.5816 41.323 41.7719 41.2224 41.9729 41.1527C42.2511 41.0564 42.5361 40.9778 42.8213 40.9039C43.2474 40.7935 43.6749 40.6875 44.1045 40.5915C44.436 40.5175 44.771 40.4592 45.1054 40.3989C45.2879 40.366 45.472 40.3403 45.6561 40.3173C45.8449 40.2938 46.0351 40.282 46.2237 40.2573C46.457 40.2267 46.689 40.1865 46.922 40.1534C47.2671 40.1044 47.615 40.0707 47.9572 40.0061C48.1891 39.9623 48.4245 39.9633 48.6567 39.9135C48.8626 39.8693 49.0818 39.8798 49.2951 39.8794C50.5042 39.8768 51.7133 39.8782 52.9223 39.8783C52.9588 39.8783 52.9955 39.8769 53.0318 39.8801C53.2258 39.8969 53.4197 39.9158 53.6138 39.9322C53.7493 39.9437 53.8859 39.9467 54.0208 39.9633C54.2858 39.9958 54.5502 40.0342 54.8146 40.072C55.0611 40.1071 55.3069 40.1468 55.5535 40.1805C55.8989 40.2277 56.2447 40.2714 56.5904 40.3161C56.8149 40.3452 57.0422 40.3604 57.2637 40.4049C57.7303 40.4987 58.1949 40.6034 58.6584 40.7119C59.0028 40.7925 59.3454 40.8815 59.6863 40.9757C59.9097 41.0375 60.1352 41.0995 60.348 41.1893C60.6787 41.3288 61.0019 41.4872 61.3236 41.6468C61.574 41.771 61.7919 41.9446 61.9851 42.1455C62.1488 42.3157 62.3028 42.4952 62.4589 42.6726C62.5578 42.785 62.6513 42.9022 62.7499 43.0149C62.7911 43.0621 62.831 43.117 62.9065 43.1102ZM47.5615 45.6849C47.5488 45.6868 47.5362 45.6887 47.4985 45.6857C47.1846 45.7 46.8707 45.7138 46.5569 45.7289C46.4431 45.7343 46.3296 45.7432 46.2159 45.7498C45.8479 45.7711 45.4799 45.8051 45.1117 45.8097C44.6459 45.8155 44.1867 45.8387 43.7315 45.9585C43.0632 46.1344 42.4197 46.369 41.8069 46.6876C41.747 46.7188 41.6936 46.7623 41.6183 46.8044C41.4216 46.9127 41.2506 47.055 41.091 47.2107C40.8563 47.4397 40.6524 47.6955 40.4603 47.9604C40.3728 48.0811 40.2941 48.2083 40.1968 48.3391C40.1876 48.3571 40.1783 48.3751 40.1553 48.407C40.1099 48.4909 40.0645 48.5749 40.0033 48.6675C39.9852 48.7037 39.9671 48.7399 39.937 48.7892C39.927 48.8165 39.9169 48.8437 39.891 48.8833C39.8619 48.9584 39.8247 49.0315 39.8063 49.1091C39.7907 49.1745 39.7994 49.2453 39.793 49.3132C39.7848 49.3999 39.8175 49.4632 39.89 49.5094C39.9592 49.5534 40.0311 49.5945 40.0949 49.6456C40.4289 49.9127 40.7039 50.2334 40.942 50.5874C41.0615 50.7651 41.1743 50.9484 41.307 51.1159C41.4219 51.2611 41.5605 51.3876 41.6929 51.5363C41.7075 51.5482 41.722 51.5602 41.7436 51.59C41.8531 51.7116 41.9573 51.8386 42.0734 51.9536C42.2835 52.1616 42.5035 52.3598 42.7145 52.567C43.1152 52.9603 43.5805 53.2413 44.1212 53.3967C44.2908 53.4454 44.4582 53.502 44.6532 53.5578C44.8841 53.5702 45.1048 53.6428 45.3371 53.6612C45.6434 53.6855 45.9457 53.6721 46.2458 53.6347C46.5176 53.6008 46.7897 53.553 47.051 53.4595C47.2501 53.3883 47.4558 53.3355 47.6545 53.2631C47.7863 53.215 47.9115 53.1484 48.0382 53.087C48.1274 53.0438 48.2209 53.0079 48.2816 52.9189C48.3025 52.8881 48.348 52.8741 48.3988 52.8445C48.4627 52.8099 48.5267 52.7755 48.5904 52.7406C48.6814 52.6907 48.7691 52.6336 48.8635 52.5914C49.2922 52.3995 49.7417 52.2841 50.2111 52.2657C50.6119 52.2499 51.0134 52.2502 51.4147 52.2476C51.784 52.2453 52.1511 52.2542 52.5171 52.3273C52.984 52.4205 53.4184 52.5818 53.8333 52.8496C53.9886 52.935 54.1407 53.0272 54.2999 53.1044C54.6102 53.2548 54.9234 53.3994 55.2579 53.4912C55.649 53.5984 56.0473 53.6609 56.4521 53.6723C56.6194 53.677 56.7876 53.6488 56.9552 53.6506C57.1683 53.6529 57.3646 53.5771 57.5915 53.5376C57.8271 53.4686 58.0634 53.402 58.2981 53.3302C58.643 53.2246 58.9496 53.0464 59.2255 52.8171C59.3866 52.6833 59.5382 52.538 59.6926 52.3964C59.8337 52.2671 59.9781 52.1408 60.1118 52.0041C60.2802 51.8319 60.4329 51.644 60.604 51.4745C60.8389 51.2418 61.0285 50.9757 61.2097 50.7019C61.5056 50.2549 61.829 49.8328 62.2918 49.542C62.4188 49.4622 62.4576 49.357 62.4144 49.196C62.4126 49.1748 62.4107 49.1535 62.4146 49.1105C62.4128 49.0834 62.4185 49.0529 62.408 49.0297C62.3399 48.8809 62.2827 48.7244 62.195 48.5877C62.0108 48.3007 61.8174 48.0188 61.6143 47.7448C61.248 47.251 60.7975 46.8541 60.2365 46.5898C59.6331 46.3055 59.0095 46.081 58.3594 45.929C58.0068 45.8465 57.6489 45.8204 57.289 45.8069C56.8387 45.7901 56.3883 45.7738 55.9381 45.7558C55.606 45.7425 55.274 45.7268 54.9203 45.7076C54.8908 45.7072 54.8613 45.7069 54.8103 45.6999C54.69 45.6952 54.5696 45.6904 54.425 45.6808C54.3507 45.6806 54.2765 45.6805 54.1797 45.675C54.0048 45.6696 53.8299 45.6641 53.6313 45.6543C53.5749 45.6534 53.5186 45.6524 53.4406 45.6455C53.3114 45.6406 53.1822 45.6357 53.0328 45.6259C53.0122 45.6262 52.9917 45.6265 52.95 45.6189C52.6815 45.6056 52.413 45.5923 52.1445 45.5788C51.9168 45.5673 51.6884 45.5634 51.4616 45.5417C51.2198 45.5186 50.9802 45.5129 50.7388 45.545C50.5991 45.5636 50.4574 45.5714 50.3164 45.5747C50.0884 45.5801 49.8599 45.5719 49.6321 45.5807C49.4508 45.5877 49.27 45.6116 49.067 45.6257C49.0451 45.628 49.0233 45.6302 48.9768 45.6286C48.8581 45.6364 48.7394 45.6441 48.5957 45.649C48.5126 45.6524 48.4295 45.6559 48.3208 45.6554C48.1463 45.6638 47.9718 45.6722 47.7742 45.6778C47.7356 45.6803 47.697 45.6827 47.6477 45.6769C47.6254 45.6807 47.603 45.6845 47.5615 45.6849Z" fill="#A5E314"/>
<path d="M40.4561 41.4128C40.5751 41.2262 40.6659 41.0257 40.734 40.816C40.7631 40.7263 40.7929 40.6402 40.8422 40.5586C40.8738 40.5064 40.8849 40.4406 40.8986 40.3794C40.9066 40.3435 40.9198 40.3226 40.9476 40.2945C40.9909 40.2508 41.0059 40.1793 41.0337 40.12C41.1029 39.9725 41.1753 39.8263 41.2411 39.6773C41.2811 39.5866 41.3042 39.4889 41.3846 39.4192C41.4055 39.4011 41.4151 39.3621 41.4173 39.3318C41.4206 39.2866 41.4274 39.2506 41.4789 39.2406C41.4829 39.2398 41.4888 39.2361 41.4896 39.2327C41.533 39.0571 41.7211 38.9619 41.7444 38.7752C41.7455 38.7663 41.7461 38.7533 41.7516 38.7498C41.9022 38.6544 41.9467 38.4724 42.0731 38.3565C42.1078 38.3247 42.1224 38.272 42.1508 38.2321C42.2576 38.0813 42.3693 37.934 42.4735 37.7814C42.5752 37.6325 42.6993 37.5029 42.8228 37.3739C43.0518 37.1347 43.2869 36.9011 43.5243 36.6702C43.5716 36.6242 43.6446 36.6058 43.6994 36.5659C43.8926 36.4252 44.084 36.2817 44.2742 36.1369C44.3205 36.1017 44.3579 36.0551 44.4029 36.0182C44.4446 35.984 44.488 35.9494 44.5362 35.9268C44.5857 35.9035 44.6398 35.8925 44.6636 35.8342C44.6683 35.8228 44.6818 35.8138 44.6931 35.8066C44.8077 35.7347 44.925 35.667 45.0369 35.5913C45.2568 35.4423 45.497 35.3267 45.7113 35.1673C45.8326 35.0771 45.977 35.0183 46.1094 34.9426C46.2235 34.8773 46.3346 34.8071 46.4483 34.7411C46.5651 34.6733 46.6822 34.6057 46.8015 34.5423C46.8961 34.4919 47.0039 34.4609 47.0881 34.3977C47.1899 34.3214 47.3087 34.2944 47.4185 34.2425C47.446 34.2295 47.4726 34.2146 47.5 34.2014C47.5685 34.1685 47.6344 34.1258 47.7066 34.1064C47.7767 34.0874 47.8486 34.0826 47.9047 34.0278C47.9196 34.0132 47.9458 34.008 47.9679 34.0035C48.1267 33.9714 48.2672 33.8925 48.416 33.8344C48.6172 33.7558 48.7901 33.6332 48.9684 33.5174C49.1004 33.4315 49.2349 33.3494 49.365 33.2609C49.4127 33.2285 49.4501 33.1814 49.4938 33.1429C49.68 32.9794 49.8628 32.8117 50.0549 32.6553C50.1587 32.5708 50.2784 32.5058 50.3915 32.4328C50.4023 32.4258 50.4229 32.4296 50.4296 32.421C50.5218 32.3039 50.6484 32.2882 50.7854 32.2892C50.8274 32.2895 50.883 32.2721 50.9087 32.2423C50.951 32.1934 50.9974 32.1813 51.0535 32.1866C51.1371 32.1946 51.2233 32.164 51.3039 32.2243C51.3518 32.2602 51.4181 32.2862 51.4773 32.289C51.5638 32.293 51.636 32.3246 51.7096 32.3607C51.9231 32.4655 52.1205 32.5902 52.2859 32.7666C52.3809 32.868 52.5008 32.9456 52.6059 33.0381C52.7929 33.2028 52.9886 33.3568 53.1979 33.4909C53.4115 33.6277 53.6316 33.7528 53.8629 33.8614C54.1055 33.9753 54.3669 34.0348 54.6076 34.1499C54.7179 34.2026 54.8311 34.2496 54.9399 34.3052C55.3083 34.4934 55.6876 34.662 56.0284 34.9006C56.0359 34.9058 56.0433 34.9119 56.0517 34.9148C56.286 34.9944 56.4802 35.1445 56.6865 35.2737C56.8592 35.3819 57.0395 35.4788 57.2069 35.5946C57.4379 35.7544 57.6708 35.9113 57.8861 36.0945C58.0478 36.2321 58.2367 36.3373 58.4114 36.4599C58.5678 36.5697 58.7101 36.6953 58.8438 36.833C58.9829 36.9761 59.151 37.0932 59.2781 37.2454C59.439 37.4381 59.6639 37.5742 59.7736 37.8127C59.8022 37.875 59.8361 37.9456 59.9189 37.9673C59.9351 37.9715 59.9436 38.0097 59.9532 38.0332C59.9858 38.1132 60.0111 38.1974 60.0967 38.2415C60.1119 38.2493 60.1283 38.2644 60.1337 38.2798C60.1891 38.4365 60.3148 38.5456 60.3996 38.6809C60.4579 38.774 60.5537 38.852 60.5608 38.9755C60.5617 38.9912 60.5765 39.0084 60.589 39.0209C60.7132 39.1464 60.7815 39.3055 60.8593 39.4597C60.9343 39.6083 61.0221 39.7503 61.0967 39.899C61.1529 40.011 61.1978 40.1288 61.2461 40.2447C61.2784 40.3223 61.2969 40.4073 61.3764 40.4565C61.3875 40.4633 61.3905 40.4847 61.3952 40.4999C61.405 40.5316 61.412 40.5641 61.423 40.5953C61.4273 40.6076 61.4467 40.6178 61.4461 40.6281C61.4359 40.7926 61.5711 40.9021 61.604 41.0498C61.6087 41.0708 61.6059 41.0935 61.6064 41.1155C61.6069 41.1375 61.5995 41.1745 61.6089 41.1793C61.6873 41.2199 61.6784 41.3007 61.6943 41.3749C61.6211 41.3707 61.5505 41.369 61.4902 41.3431C61.2613 41.2445 61.0406 41.1252 60.8077 41.0377C60.4766 40.9132 60.1393 40.8041 59.801 40.7C59.6022 40.6389 59.3963 40.6009 59.1939 40.5514C58.7096 40.433 58.2257 40.3127 57.741 40.1958C57.5869 40.1586 57.4314 40.1261 57.2753 40.0985C57.1194 40.0708 56.9619 40.0525 56.8053 40.0289C56.5994 39.9978 56.394 39.9636 56.1879 39.9342C56.0446 39.9137 55.9003 39.9003 55.7568 39.8815C55.6221 39.8638 55.4879 39.8429 55.3534 39.8237C55.1876 39.8001 55.0218 39.7772 54.8561 39.7533C54.641 39.7222 54.4265 39.6872 54.211 39.66C54.0224 39.6362 53.8328 39.6189 53.6433 39.6022C53.4222 39.5827 53.2008 39.553 52.9795 39.552C51.8621 39.5468 50.7446 39.5475 49.6272 39.5508C49.2908 39.5518 48.9545 39.568 48.6181 39.5773C48.6044 39.5777 48.5907 39.5781 48.5772 39.58C48.3844 39.6061 48.1915 39.6313 47.9989 39.659C47.7705 39.6919 47.5424 39.7267 47.3143 39.7611C47.18 39.7814 47.0461 39.8054 46.9114 39.8225C46.7317 39.8454 46.5508 39.8592 46.3715 39.8843C46.0847 39.9244 45.7988 39.9703 45.5126 40.0145C45.2039 40.0621 44.8932 40.1 44.5872 40.1614C44.2585 40.2273 43.9338 40.3139 43.6081 40.3946C43.4804 40.4263 43.3555 40.4696 43.2279 40.502C42.9073 40.5835 42.5836 40.6535 42.2655 40.7434C41.7623 40.8857 41.2802 41.0863 40.8004 41.2932C40.6897 41.3409 40.5861 41.4177 40.4561 41.4128Z" fill="#A5E314"/>
<path d="M40.4508 41.419C40.5864 41.4171 40.6899 41.3403 40.8007 41.2925C41.2804 41.0857 41.7625 40.885 42.2657 40.7428C42.5838 40.6528 42.9076 40.5829 43.2281 40.5014C43.3557 40.4689 43.4806 40.4256 43.6084 40.394C43.934 40.3133 44.2587 40.2266 44.5875 40.1607C44.8934 40.0994 45.2041 40.0614 45.5128 40.0138C45.799 39.9697 46.085 39.9238 46.3717 39.8836C46.551 39.8585 46.7319 39.8448 46.9116 39.8219C47.0463 39.8047 47.1802 39.7808 47.3145 39.7605C47.5427 39.7261 47.7708 39.6912 47.9991 39.6583C48.1917 39.6306 48.3846 39.6054 48.5774 39.5793C48.5909 39.5775 48.6047 39.577 48.6183 39.5766C48.9547 39.5673 49.2911 39.5512 49.6275 39.5502C50.7449 39.5468 51.8623 39.5462 52.9797 39.5513C53.2011 39.5523 53.4225 39.5821 53.6436 39.6016C53.833 39.6183 54.0226 39.6355 54.2113 39.6594C54.4268 39.6865 54.6413 39.7216 54.8563 39.7526C55.022 39.7765 55.1879 39.7994 55.3536 39.823C55.4881 39.8422 55.6224 39.8631 55.7571 39.8808C55.9006 39.8997 56.0448 39.9131 56.1881 39.9335C56.3942 39.9629 56.5996 39.9971 56.8055 40.0282C56.9621 40.0519 57.1197 40.0701 57.2755 40.0978C57.4316 40.1255 57.5872 40.158 57.7413 40.1951C58.226 40.312 58.7098 40.4323 59.1942 40.5508C59.3966 40.6003 59.6025 40.6382 59.8013 40.6994C60.1395 40.8034 60.4768 40.9126 60.8079 41.037C61.0408 41.1245 61.2615 41.2438 61.4905 41.3424C61.5507 41.3684 61.6214 41.37 61.6995 41.3823C61.9582 41.5207 62.1704 41.7007 62.3498 41.9186C62.4851 42.083 62.6219 42.2468 62.7481 42.4181C62.8503 42.557 62.938 42.7055 62.9109 42.8929C62.9019 42.9554 62.9092 43.0202 62.9077 43.0968C62.8309 43.1165 62.791 43.0616 62.7498 43.0145C62.6512 42.9017 62.5577 42.7845 62.4588 42.6721C62.3028 42.4947 62.1487 42.3152 61.985 42.145C61.7918 41.9441 61.5739 41.7705 61.3235 41.6463C61.0018 41.4867 60.6786 41.3283 60.3479 41.1888C60.1351 41.099 59.9096 41.037 59.6862 40.9753C59.3453 40.881 59.0027 40.792 58.6583 40.7114C58.1948 40.6029 57.7302 40.4982 57.2636 40.4044C57.0422 40.3599 56.8148 40.3447 56.5903 40.3157C56.2446 40.2709 55.8988 40.2272 55.5535 40.1801C55.3068 40.1464 55.061 40.1067 54.8145 40.0715C54.5501 40.0337 54.2858 39.9953 54.0207 39.9628C53.8858 39.9463 53.7493 39.9432 53.6137 39.9318C53.4196 39.9154 53.2257 39.8964 53.0317 39.8796C52.9954 39.8764 52.9587 39.8778 52.9222 39.8778C51.7132 39.8777 50.5041 39.8763 49.295 39.8789C49.0817 39.8794 48.8625 39.8688 48.6567 39.913C48.4244 39.9628 48.189 39.9618 47.9571 40.0056C47.6149 40.0702 47.267 40.1039 46.9219 40.1529C46.6889 40.186 46.4569 40.2262 46.2236 40.2568C46.035 40.2815 45.8448 40.2934 45.656 40.3169C45.4719 40.3398 45.2878 40.3655 45.1053 40.3984C44.7709 40.4587 44.4359 40.517 44.1044 40.5911C43.6748 40.687 43.2474 40.793 42.8212 40.9034C42.536 40.9773 42.251 41.0559 41.9728 41.1523C41.7719 41.2219 41.5815 41.3225 41.3879 41.4125C41.1855 41.5066 40.9794 41.5948 40.7854 41.7041C40.644 41.7837 40.5095 41.8823 40.3898 41.992C40.1888 42.1762 40.0032 42.376 39.8329 42.5913C39.6979 42.762 39.5372 42.9125 39.3868 43.0708C39.3719 43.0865 39.349 43.0947 39.3206 43.1075C39.3107 43.0451 39.3109 42.9815 39.3093 42.9179C39.3039 42.6991 39.3888 42.5149 39.5225 42.3474C39.5981 42.2526 39.666 42.1517 39.7415 42.0568C39.7749 42.0149 39.8195 41.9821 39.8578 41.944C39.9634 41.8389 40.0643 41.7286 40.1751 41.6294C40.2587 41.5544 40.3547 41.4932 40.4508 41.419Z" fill="#EDF9D0"/>
<path d="M40.0189 48.6589C40.0643 48.5749 40.1098 48.4909 40.17 48.3978C40.1937 48.37 40.2025 48.3513 40.2113 48.3325C40.294 48.2083 40.3727 48.0811 40.4602 47.9604C40.6523 47.6955 40.8562 47.4397 41.0909 47.2107C41.2504 47.055 41.4215 46.9127 41.6275 46.8127C41.6333 46.8583 41.6298 46.8955 41.6242 46.9533C41.6837 46.9269 41.7246 46.9097 41.7645 46.8907C41.9779 46.7891 42.1897 46.6839 42.4049 46.5863C42.5248 46.5319 42.6497 46.488 42.7734 46.4426C43.033 46.3472 43.2884 46.2399 43.564 46.1932C43.7065 46.169 43.8468 46.1311 43.9878 46.0976C44.1651 46.0555 44.343 46.0198 44.5267 46.0383C44.5897 46.0447 44.6521 46.0624 44.715 46.0634C45.0605 46.0688 45.4054 46.0692 45.749 46.0173C45.858 46.0009 45.972 46.0149 46.0835 46.0188C46.142 46.0209 46.2009 46.0403 46.2585 46.0362C46.4573 46.0222 46.6559 46.0042 46.8539 45.9824C47.0472 45.961 47.2397 45.9319 47.4328 45.9084C47.594 45.8887 47.7514 45.8686 47.9191 45.8904C48.1047 45.9146 48.2977 45.9266 48.4877 45.8955C48.6082 45.8758 48.7293 45.8571 48.8508 45.848C48.9459 45.841 49.0425 45.8447 49.1378 45.852C49.3047 45.8649 49.4708 45.8924 49.6378 45.8992C49.9378 45.9114 50.2368 45.8888 50.5343 45.8478C50.6195 45.8361 50.7053 45.822 50.7909 45.8214C50.8948 45.8206 50.9988 45.837 51.1028 45.8385C51.1881 45.8397 51.2748 45.8187 51.3589 45.8273C51.6892 45.8611 52.0198 45.8789 52.3519 45.8743C52.6256 45.8706 52.8996 45.8684 53.1731 45.8757C53.3219 45.8796 53.4699 45.9127 53.6188 45.9185C53.8095 45.926 54.0008 45.9209 54.1918 45.9181C54.3187 45.9162 54.4465 45.8968 54.5723 45.9062C54.8023 45.9235 55.0305 45.9647 55.2606 45.9805C55.5325 45.9991 55.8057 46.0007 56.0782 46.0109C56.1545 46.0137 56.2324 46.0336 56.3066 46.0236C56.5711 45.9879 56.832 46.0251 57.0943 46.046C57.2106 46.0553 57.3283 46.0475 57.4454 46.0478C57.6042 46.0483 57.7668 46.0283 57.9208 46.0559C58.066 46.0819 58.2086 46.0949 58.354 46.0916C58.4332 46.0899 58.5055 46.0712 58.58 46.1361C58.6297 46.1794 58.7146 46.1935 58.7855 46.1994C59.0548 46.2217 59.3113 46.2922 59.5588 46.3955C59.7681 46.4827 59.9781 46.5704 60.1796 46.6739C60.4011 46.7877 60.6174 46.9137 60.8181 47.0623C60.9163 47.1351 61.0069 47.2193 61.0942 47.3052C61.1744 47.384 61.2471 47.4706 61.32 47.5564C61.4199 47.674 61.5232 47.7896 61.6137 47.9142C61.7496 48.1013 61.8729 48.2973 62.0066 48.4861C62.1453 48.6821 62.2675 48.8853 62.3292 49.1246C62.355 49.127 62.3819 49.1296 62.4088 49.1322C62.4106 49.1535 62.4125 49.1747 62.406 49.213C62.392 49.3003 62.3216 49.2998 62.2826 49.3328C62.0509 49.529 61.8152 49.7206 61.6135 49.9492C61.5385 50.0343 61.4569 50.1148 61.3909 50.2065C61.2797 50.3609 61.1759 50.5208 61.0739 50.6816C60.8211 51.0798 60.4824 51.4051 60.1658 51.7483C59.9966 51.9318 59.8058 52.0954 59.6228 52.2659C59.6006 52.2866 59.5664 52.2942 59.5378 52.3079C59.5284 52.3008 59.5191 52.2937 59.5097 52.2866C59.5214 52.2219 59.5234 52.1535 59.5464 52.0931C59.6143 51.9149 59.6933 51.7409 59.7625 51.5631C59.8233 51.4068 59.8787 51.2484 59.9332 51.0897C60.0113 50.8624 60.0854 50.6337 60.1633 50.4063C60.1905 50.327 60.2131 50.2527 60.1615 50.172C60.1343 50.1294 60.1341 50.0788 60.1741 50.0334C60.2791 49.9143 60.3002 49.7669 60.3096 49.6157C60.3132 49.5573 60.3251 49.4994 60.329 49.441C60.3304 49.4208 60.3191 49.3998 60.3125 49.3686C60.3673 49.2424 60.3836 49.1207 60.3756 48.9891C60.4324 48.8814 60.4099 48.8131 60.3135 48.8067C60.198 48.799 60.0862 48.7742 59.9643 48.7987C59.6286 48.8661 59.2903 48.9203 58.9623 49.0224C58.8641 49.053 58.764 49.0786 58.6676 49.1142C58.465 49.1891 58.2652 49.2716 58.0624 49.3461C57.9522 49.3866 57.8371 49.4134 57.7265 49.4529C57.6042 49.4965 57.4853 49.5496 57.3636 49.595C57.1139 49.6881 56.8588 49.7685 56.614 49.8731C56.2935 50.0101 55.9649 50.1317 55.6661 50.3158C55.6546 50.3229 55.6412 50.3269 55.6286 50.3323C55.4416 50.4135 55.2545 50.4943 55.0678 50.5761C55.0473 50.5851 55.0299 50.6011 55.01 50.6119C54.865 50.6908 54.7087 50.7497 54.5784 50.8547C54.5751 50.8573 54.5697 50.8574 54.5653 50.8584C54.4579 50.8832 54.3573 50.9181 54.2798 51.005C54.2583 51.0291 54.2149 51.0342 54.1811 51.0469C54.1396 51.0625 54.0945 51.0712 54.0565 51.0927C53.8983 51.1822 53.7365 51.2591 53.5525 51.2802C53.5181 51.2842 53.4858 51.3069 53.4528 51.3214C53.4 51.3448 53.3492 51.3745 53.2943 51.3908C53.2003 51.4186 53.1047 51.4433 53.0081 51.46C52.8746 51.4831 52.7354 51.4825 52.6062 51.5189C52.3801 51.5826 52.1683 51.5182 51.9703 51.4423C51.6995 51.3384 51.4663 51.1686 51.354 50.8791C51.3175 50.7849 51.2494 50.7179 51.1558 50.6622C51.1317 50.6562 51.1181 50.652 51.0963 50.6441C51.0059 50.6297 50.9631 50.6682 50.9452 50.747C50.9356 50.7892 50.9201 50.832 50.898 50.869C50.8132 51.0109 50.7234 51.1498 50.6388 51.2918C50.624 51.3167 50.625 51.3511 50.6151 51.3901C50.4925 51.4705 50.3746 51.5442 50.2295 51.5643C50.1616 51.5584 50.0912 51.581 50.0398 51.5591C49.8621 51.4835 49.6689 51.4739 49.4889 51.4141C49.2665 51.3402 49.0449 51.263 48.827 51.177C48.5231 51.057 48.2164 50.9414 47.9229 50.7991C47.4645 50.5769 47.0167 50.3328 46.5633 50.1001C46.4103 50.0216 46.257 49.9425 46.0985 49.8762C45.8765 49.7833 45.6495 49.7024 45.4248 49.6158C45.2472 49.5474 45.0708 49.4754 44.892 49.41C44.658 49.3244 44.42 49.2491 44.1875 49.1597C43.8361 49.0246 43.4845 48.8918 43.1121 48.8257C42.9519 48.7972 42.792 48.762 42.6304 48.7475C42.4505 48.7313 42.2687 48.7356 42.0878 48.7297C42.0532 48.7286 42.015 48.7298 41.9852 48.7156C41.9281 48.6883 41.8779 48.7073 41.8521 48.7481C41.8058 48.8214 41.7465 48.8954 41.8086 48.9966C41.8437 49.0539 41.8534 49.1309 41.7963 49.1852C41.7187 49.259 41.7372 49.3468 41.7611 49.426C41.8293 49.6521 41.9075 49.8752 41.9835 50.0989C42.0726 50.3611 42.1599 50.6241 42.2546 50.8844C42.3691 51.199 42.453 51.5251 42.6113 51.8235C42.7048 51.9996 42.7895 52.1804 42.8763 52.36C42.8863 52.3808 42.8842 52.4075 42.8927 52.4659C42.8223 52.4251 42.7712 52.4065 42.7345 52.3724C42.599 52.2464 42.4337 52.1554 42.3233 51.9987C42.2454 51.8881 42.1403 51.7969 42.0562 51.69C41.9374 51.539 41.9104 51.5248 41.7365 51.5721C41.7219 51.5602 41.7073 51.5482 41.6924 51.5187C41.726 51.4298 41.7255 51.3707 41.6407 51.3342C41.5962 51.315 41.5534 51.2905 41.5128 51.264C41.4884 51.248 41.4655 51.2261 41.4492 51.202C41.4222 51.1619 41.3987 51.1191 41.3778 51.0754C41.3383 50.9926 41.2656 50.9381 41.2104 50.869C41.124 50.7609 41.0499 50.643 40.9687 50.5306C40.8679 50.3909 40.7503 50.2609 40.6668 50.1117C40.5382 49.8818 40.3795 49.6856 40.1669 49.5295C40.0196 49.4214 39.9412 49.2729 39.938 49.0853C39.9368 49.0137 39.9177 48.9424 39.9067 48.8709C39.9168 48.8437 39.9268 48.8164 39.9515 48.7804C39.9837 48.7341 40.0013 48.6965 40.0189 48.6589Z" fill="#EDF9D0"/>
<path d="M62.4119 49.1215C62.3822 49.1298 62.3553 49.1272 62.3295 49.1247C62.2678 48.8855 62.1456 48.6822 62.0069 48.4862C61.8732 48.2975 61.7499 48.1014 61.614 47.9143C61.5235 47.7897 61.4202 47.6742 61.3203 47.5566C61.2474 47.4708 61.1747 47.3841 61.0945 47.3053C61.0072 47.2194 60.9166 47.1352 60.8184 47.0625C60.6177 46.9138 60.4014 46.7878 60.1799 46.674C59.9784 46.5705 59.7684 46.4829 59.5591 46.3956C59.3116 46.2924 59.0551 46.2219 58.7858 46.1995C58.7149 46.1936 58.63 46.1795 58.5803 46.1362C58.5058 46.0713 58.4335 46.09 58.3543 46.0918C58.2089 46.095 58.0662 46.0821 57.9211 46.0561C57.7671 46.0285 57.6045 46.0484 57.4457 46.048C57.3286 46.0476 57.2109 46.0554 57.0946 46.0461C56.8323 46.0253 56.5714 45.9881 56.3069 46.0238C56.2327 46.0338 56.1548 46.0138 56.0785 46.011C55.806 46.0008 55.5328 45.9992 55.2609 45.9806C55.0308 45.9649 54.8026 45.9236 54.5726 45.9064C54.4468 45.8969 54.319 45.9163 54.1921 45.9182C54.0011 45.9211 53.8098 45.9261 53.6191 45.9186C53.4702 45.9128 53.3222 45.8798 53.1734 45.8758C52.8998 45.8685 52.6259 45.8708 52.3522 45.8745C52.0201 45.879 51.6895 45.8612 51.3591 45.8274C51.2751 45.8188 51.1884 45.8399 51.1031 45.8386C50.999 45.8371 50.8951 45.8208 50.7912 45.8215C50.7056 45.8221 50.6198 45.8362 50.5346 45.848C50.2371 45.889 49.9381 45.9116 49.6381 45.8993C49.4711 45.8925 49.305 45.8651 49.138 45.8522C49.0428 45.8448 48.9462 45.8411 48.8511 45.8482C48.7296 45.8572 48.6085 45.8759 48.488 45.8956C48.298 45.9267 48.105 45.9147 47.9193 45.8906C47.7517 45.8687 47.5943 45.8889 47.433 45.9085C47.24 45.932 47.0475 45.9612 46.8542 45.9825C46.6562 46.0044 46.4576 46.0224 46.2588 46.0363C46.2012 46.0404 46.1423 46.021 46.0838 46.019C45.9722 46.0151 45.8583 46.001 45.7493 46.0175C45.4057 46.0693 45.0607 46.069 44.7153 46.0636C44.6524 46.0626 44.59 46.0448 44.527 46.0384C44.3433 46.0199 44.1654 46.0557 43.9881 46.0978C43.8471 46.1312 43.7068 46.1691 43.5643 46.1933C43.2887 46.24 43.0333 46.3474 42.7737 46.4427C42.6499 46.4882 42.5251 46.532 42.4052 46.5864C42.19 46.684 41.9782 46.7892 41.7648 46.8908C41.7249 46.9099 41.684 46.927 41.6245 46.9535C41.63 46.8957 41.6336 46.8584 41.6372 46.8107C41.6937 46.7624 41.7472 46.7189 41.8071 46.6877C42.4199 46.3691 43.0634 46.1345 43.7317 45.9586C44.1869 45.8389 44.646 45.8157 45.1118 45.8098C45.4801 45.8052 45.848 45.7712 46.2161 45.7499C46.3298 45.7433 46.4433 45.7344 46.557 45.729C46.8709 45.7139 47.1848 45.7001 47.5116 45.6987C47.5291 45.777 47.5722 45.7947 47.628 45.7913C47.7719 45.7825 47.9158 45.7735 48.0592 45.7596C48.0803 45.7575 48.0987 45.7277 48.1184 45.7108C48.1146 45.7008 48.1109 45.6908 48.1071 45.6808C48.0039 45.6808 47.9007 45.6808 47.7975 45.6808C47.972 45.6723 48.1465 45.6639 48.342 45.6643C48.4501 45.6793 48.5391 45.7089 48.621 45.652C48.7396 45.6443 48.8583 45.6365 48.9897 45.6408C49.0041 45.7005 49.0264 45.7345 49.0756 45.7344C49.1355 45.7341 49.1892 45.7161 49.2181 45.6369C49.1676 45.6335 49.1284 45.6308 49.0892 45.6281C49.2702 45.6117 49.4509 45.5879 49.6323 45.5808C49.8601 45.572 50.0885 45.5802 50.3165 45.5748C50.4575 45.5715 50.5993 45.5637 50.7389 45.5451C50.9804 45.513 51.22 45.5187 51.4618 45.5419C51.6885 45.5635 51.917 45.5674 52.1447 45.5789C52.4132 45.5924 52.6817 45.6057 52.9657 45.6297C53.0051 45.6372 53.0291 45.634 53.0531 45.6309C53.1824 45.6358 53.3116 45.6407 53.4585 45.6567C53.5359 45.6648 53.5955 45.6618 53.6551 45.6588C53.83 45.6642 54.005 45.6697 54.1987 45.6858C54.2957 45.7123 54.3738 45.7265 54.4493 45.6857C54.5697 45.6905 54.6901 45.6953 54.8268 45.7108C54.8762 45.7184 54.9091 45.7154 54.9421 45.7124C55.2742 45.727 55.6062 45.7426 55.9382 45.7559C56.3885 45.7739 56.8389 45.7902 57.2892 45.807C57.6491 45.8205 58.0069 45.8466 58.3596 45.9291C59.0096 46.0811 59.6333 46.3056 60.2366 46.5899C60.7977 46.8542 61.2482 47.2511 61.6144 47.7449C61.8176 48.0189 62.0109 48.3008 62.1951 48.5878C62.2829 48.7245 62.3401 48.881 62.4081 49.0299C62.4187 49.053 62.4129 49.0835 62.4119 49.1215Z" fill="#EDF9D0"/>
<path d="M50.2297 51.5644C50.1398 51.6179 50.0425 51.6524 49.9348 51.6122C49.9224 51.6075 49.9078 51.6079 49.8942 51.6077C49.2648 51.5974 48.6846 51.393 48.1246 51.1338C47.5543 50.87 46.9968 50.5784 46.4349 50.2967C46.0474 50.1025 45.6511 49.9302 45.2424 49.785C44.6286 49.567 44.0196 49.3352 43.4035 49.1239C42.9853 48.9804 42.5503 48.899 42.1119 48.8415C41.9556 48.821 41.9035 48.858 41.884 49.0178C41.8739 49.1015 41.8899 49.1885 41.8958 49.2739C41.8971 49.2916 41.9089 49.3085 41.9105 49.3263C41.9297 49.5409 42.0253 49.7346 42.0839 49.938C42.1627 50.2121 42.2671 50.4789 42.3636 50.7478C42.4968 51.1192 42.6251 51.4927 42.7702 51.8594C42.8922 52.1677 43.092 52.4281 43.324 52.6638C43.5298 52.8728 43.7596 53.05 44.0142 53.1957C44.0797 53.2332 44.1384 53.2837 44.206 53.3161C44.3268 53.3739 44.4525 53.4214 44.575 53.4758C44.6036 53.4885 44.6534 53.4862 44.634 53.5485C44.4583 53.502 44.2909 53.4455 44.1213 53.3967C43.5806 53.2413 43.1153 52.9604 42.7147 52.5671C42.5036 52.3599 42.2836 52.1617 42.0735 51.9536C41.9574 51.8386 41.8533 51.7116 41.7402 51.5811C41.9106 51.5249 41.9376 51.5391 42.0564 51.6901C42.1405 51.797 42.2456 51.8881 42.3236 51.9988C42.434 52.1555 42.5993 52.2465 42.7347 52.3725C42.7714 52.4066 42.8225 52.4252 42.893 52.466C42.8844 52.4076 42.8865 52.3809 42.8765 52.3601C42.7897 52.1805 42.705 51.9997 42.6116 51.8236C42.4532 51.5252 42.3693 51.1991 42.2549 50.8845C42.1602 50.6242 42.0729 50.3612 41.9838 50.0989C41.9078 49.8753 41.8295 49.6522 41.7614 49.4261C41.7375 49.3469 41.7189 49.2591 41.7965 49.1853C41.8536 49.131 41.844 49.054 41.8088 48.9966C41.7468 48.8955 41.806 48.8215 41.8524 48.7482C41.8782 48.7074 41.9284 48.6884 41.9855 48.7157C42.0152 48.7299 42.0535 48.7287 42.0881 48.7298C42.269 48.7357 42.4507 48.7314 42.6307 48.7476C42.7923 48.7621 42.9521 48.7973 43.1124 48.8258C43.4848 48.8919 43.8363 49.0247 44.1877 49.1597C44.4203 49.2491 44.6582 49.3245 44.8923 49.4101C45.071 49.4755 45.2474 49.5475 45.4251 49.6159C45.6498 49.7025 45.8768 49.7834 46.0988 49.8763C46.2572 49.9426 46.4105 50.0217 46.5635 50.1002C47.0169 50.3329 47.4647 50.577 47.9231 50.7992C48.2166 50.9415 48.5234 51.0571 48.8272 51.177C49.0451 51.2631 49.2668 51.3403 49.4892 51.4142C49.6692 51.474 49.8624 51.4836 50.04 51.5592C50.0915 51.5811 50.1618 51.5585 50.2297 51.5644Z" fill="#EDF9D0"/>
<path d="M48.3906 52.8486C48.408 52.8218 48.4293 52.7856 48.46 52.7612C48.7351 52.5422 48.9459 52.2711 49.113 51.9639C49.128 51.9362 49.1462 51.9102 49.1661 51.8784C49.3248 51.8987 49.4819 51.9172 49.6385 51.9394C49.8544 51.97 50.0662 51.9434 50.2743 51.8893C50.3334 51.874 50.3853 51.8295 50.4392 51.7963C50.7057 51.6322 50.9076 51.4091 51.0473 51.1291C51.0649 51.0939 51.0873 51.061 51.1184 51.0086C51.1468 51.0542 51.1684 51.0809 51.1816 51.1113C51.3261 51.4422 51.5752 51.6795 51.8799 51.855C51.9768 51.9108 52.1071 51.9147 52.2238 51.9289C52.4567 51.9573 52.6871 51.919 52.9171 51.8863C53.0577 51.8663 53.0647 51.8624 53.1313 51.992C53.2687 52.2591 53.4738 52.4725 53.6699 52.6933C53.7141 52.743 53.7653 52.7864 53.8129 52.8413C53.4185 52.582 52.9841 52.4207 52.5172 52.3275C52.1512 52.2544 51.784 52.2455 51.4147 52.2478C51.0135 52.2504 50.612 52.2501 50.2111 52.2658C49.7417 52.2843 49.2922 52.3997 48.8635 52.5916C48.7692 52.6338 48.6814 52.6909 48.5905 52.7408C48.5268 52.7757 48.4627 52.8101 48.3906 52.8486Z" fill="#EDF9D0"/>
<path d="M57.5801 53.538C57.5857 53.5213 57.5994 53.4965 57.6201 53.4872C57.8971 53.3621 58.1731 53.2358 58.4256 53.064C58.9543 52.7044 59.3315 52.2272 59.5492 51.6246C59.6819 51.2571 59.8215 50.892 59.9498 50.523C60.0254 50.3056 60.0838 50.0823 60.1519 49.8623C60.2002 49.706 60.2518 49.5507 60.3078 49.3869C60.3191 49.3994 60.3304 49.4204 60.3291 49.4405C60.3251 49.499 60.3132 49.5569 60.3096 49.6153C60.3002 49.7665 60.2791 49.9139 60.1741 50.033C60.1341 50.0784 60.1343 50.129 60.1615 50.1716C60.2132 50.2523 60.1906 50.3266 60.1634 50.4059C60.0854 50.6333 60.0113 50.862 59.9332 51.0893C59.8788 51.248 59.8234 51.4064 59.7625 51.5627C59.6933 51.7405 59.6143 51.9145 59.5465 52.0927C59.5235 52.1531 59.5214 52.2215 59.5098 52.2862C59.5191 52.2933 59.5285 52.3004 59.5378 52.3075C59.5664 52.2938 59.6007 52.2861 59.6228 52.2655C59.8058 52.095 59.9966 51.9314 60.1658 51.7479C60.4824 51.4047 60.8212 51.0794 61.0739 50.6812C61.176 50.5204 61.2798 50.3605 61.3909 50.206C61.4569 50.1144 61.5385 50.0338 61.6136 49.9488C61.8152 49.7201 62.0509 49.5286 62.2826 49.3324C62.3216 49.2994 62.3921 49.2999 62.4037 49.2231C62.4575 49.3566 62.4187 49.4617 62.2917 49.5416C61.8289 49.8324 61.5055 50.2544 61.2096 50.7015C61.0284 50.9752 60.8388 51.2413 60.6039 51.4741C60.4328 51.6436 60.2801 51.8315 60.1117 52.0037C59.978 52.1404 59.8336 52.2667 59.6926 52.396C59.5381 52.5376 59.3865 52.6828 59.2255 52.8167C58.9496 53.046 58.6429 53.2242 58.298 53.3297C58.0633 53.4015 57.827 53.4682 57.5801 53.538Z" fill="#EDF9D0"/>
<path d="M39.8987 48.8766C39.9176 48.9419 39.9367 49.0132 39.9379 49.0848C39.941 49.2723 40.0195 49.4209 40.1667 49.529C40.3794 49.685 40.5381 49.8813 40.6667 50.1112C40.7502 50.2604 40.8678 50.3904 40.9686 50.5301C41.0498 50.6425 41.1239 50.7604 41.2103 50.8685C41.2655 50.9376 41.3382 50.9921 41.3777 51.0749C41.3986 51.1185 41.4221 51.1614 41.4491 51.2014C41.4654 51.2256 41.4883 51.2475 41.5127 51.2634C41.5533 51.29 41.596 51.3144 41.6406 51.3336C41.7253 51.3702 41.7258 51.4293 41.6902 51.5112C41.5603 51.387 41.4217 51.2605 41.3067 51.1153C41.1741 50.9478 41.0613 50.7645 40.9417 50.5868C40.7037 50.2329 40.4286 49.9122 40.0947 49.645C40.0309 49.594 39.959 49.5528 39.8898 49.5088C39.8172 49.4627 39.7845 49.3994 39.7927 49.3127C39.7992 49.2447 39.7905 49.1739 39.806 49.1085C39.8245 49.031 39.8617 48.9578 39.8987 48.8766Z" fill="#EDF9D0"/>
<path d="M47.7857 45.6794C47.9005 45.6808 48.0037 45.6808 48.1069 45.6808C48.1107 45.6908 48.1144 45.7008 48.1182 45.7108C48.0985 45.7277 48.0801 45.7575 48.059 45.7596C47.9156 45.7735 47.7717 45.7825 47.6278 45.7913C47.5721 45.7947 47.5289 45.7771 47.5239 45.7011C47.5361 45.6888 47.5488 45.687 47.5763 45.6924C47.6136 45.6949 47.636 45.6901 47.6584 45.6853C47.697 45.6829 47.7356 45.6804 47.7857 45.6794Z" fill="#EDF9D0"/>
<path d="M49.0782 45.6263C49.1284 45.6301 49.1676 45.6327 49.218 45.6362C49.1892 45.7154 49.1355 45.7334 49.0756 45.7336C49.0264 45.7338 49.0041 45.6998 49.002 45.642C49.0234 45.6296 49.0453 45.6274 49.0782 45.6263Z" fill="#EDF9D0"/>
<path d="M48.6081 45.6503C48.5388 45.7086 48.4498 45.679 48.3545 45.6659C48.4293 45.6557 48.5124 45.6522 48.6081 45.6503Z" fill="#EDF9D0"/>
<path d="M54.4368 45.6826C54.3733 45.7259 54.2952 45.7116 54.2095 45.6877C54.2762 45.6799 54.3504 45.6801 54.4368 45.6826Z" fill="#EDF9D0"/>
<path d="M40.0111 48.6627C40.0013 48.696 39.9837 48.7336 39.9575 48.7735C39.967 48.7394 39.9851 48.7032 40.0111 48.6627Z" fill="#EDF9D0"/>
<path d="M53.6432 45.656C53.5954 45.6612 53.5358 45.6642 53.4692 45.6591C53.5186 45.652 53.575 45.6529 53.6432 45.656Z" fill="#EDF9D0"/>
<path d="M47.6532 45.6811C47.6361 45.69 47.6137 45.6948 47.5859 45.694C47.603 45.6846 47.6254 45.6807 47.6532 45.6811Z" fill="#EDF9D0"/>
<path d="M40.2039 48.3359C40.2024 48.3513 40.1936 48.3701 40.1768 48.3909C40.178 48.3751 40.1873 48.3571 40.2039 48.3359Z" fill="#EDF9D0"/>
<path d="M54.9311 45.7094C54.909 45.7147 54.876 45.7178 54.8374 45.7134C54.8613 45.7063 54.8908 45.7067 54.9311 45.7094Z" fill="#EDF9D0"/>
<path d="M53.043 45.6283C53.029 45.6339 53.005 45.637 52.9761 45.6335C52.9917 45.6265 53.0123 45.6262 53.043 45.6283Z" fill="#EDF9D0"/>
<path d="M60.3754 48.9886C60.3458 48.9641 60.3245 48.9348 60.3036 48.9052C60.2661 48.8519 60.2146 48.8251 60.1505 48.8361C59.9176 48.8762 59.6848 48.9173 59.4525 48.9612C59.3367 48.9831 59.2212 49.0083 59.1072 49.0384C58.7899 49.1222 58.4842 49.239 58.178 49.3569C57.6898 49.5448 57.1931 49.7106 56.7025 49.8924C56.245 50.0619 55.8133 50.2868 55.3809 50.5114C54.977 50.7212 54.5672 50.9208 54.1517 51.1063C53.8409 51.2451 53.5216 51.3687 53.1974 51.4721C52.9469 51.5519 52.6854 51.6022 52.4184 51.6053C52.3603 51.606 52.3025 51.6205 52.2444 51.6274C52.2176 51.6305 52.1886 51.6376 52.1639 51.6309C51.9617 51.5763 51.7601 51.5215 51.5862 51.3944C51.3439 51.2174 51.2115 50.9788 51.168 50.6745C51.2492 50.7174 51.3173 50.7844 51.3538 50.8786C51.4661 51.1681 51.6993 51.3379 51.9701 51.4417C52.168 51.5177 52.3799 51.5821 52.606 51.5184C52.7352 51.482 52.8744 51.4826 53.0079 51.4595C53.1045 51.4428 53.2001 51.4181 53.2941 51.3902C53.349 51.374 53.3998 51.3442 53.4526 51.3209C53.4856 51.3064 53.5179 51.2837 53.5523 51.2797C53.7363 51.2585 53.8981 51.1817 54.0563 51.0922C54.0943 51.0707 54.1394 51.0619 54.1809 51.0464C54.2147 51.0337 54.2581 51.0286 54.2796 51.0044C54.3571 50.9176 54.4577 50.8827 54.5651 50.8579C54.5695 50.8569 54.5749 50.8568 54.5782 50.8542C54.7085 50.7492 54.8648 50.6903 55.0098 50.6114C55.0297 50.6006 55.0471 50.5846 55.0676 50.5756C55.2543 50.4938 55.4414 50.4129 55.6284 50.3318C55.641 50.3264 55.6543 50.3223 55.6659 50.3152C55.9647 50.1312 56.2933 50.0096 56.6138 49.8726C56.8586 49.768 57.1137 49.6876 57.3634 49.5945C57.4851 49.5491 57.604 49.496 57.7263 49.4524C57.8369 49.4129 57.952 49.3861 58.0622 49.3456C58.265 49.2711 58.4648 49.1886 58.6674 49.1137C58.7638 49.0781 58.8639 49.0525 58.9621 49.0219C59.2901 48.9198 59.6284 48.8656 59.9641 48.7981C60.086 48.7737 60.1978 48.7985 60.3133 48.8062C60.4097 48.8126 60.4322 48.8809 60.3754 48.9886Z" fill="#EDF9D0"/>
<path d="M51.0965 50.6437C51.0825 50.6624 51.0603 50.6774 51.0494 50.6846C51.0066 50.9799 50.9005 51.2236 50.6284 51.3781C50.6253 51.3507 50.6242 51.3163 50.6391 51.2914C50.7237 51.1494 50.8135 51.0105 50.8982 50.8685C50.9203 50.8316 50.9359 50.7888 50.9454 50.7466C50.9633 50.6678 51.0061 50.6293 51.0965 50.6437Z" fill="#EDF9D0"/>
<path d="M55.2633 52.8237C55.7303 52.745 56.1012 52.5231 56.3933 52.168C56.5459 51.9824 56.6325 51.7619 56.7241 51.5427C56.797 51.3684 56.8049 51.19 56.802 51.0075C56.7991 50.8205 56.7958 50.6336 56.7928 50.4467C56.7908 50.3239 56.7946 50.3147 56.9086 50.2838C57.1674 50.2135 57.4235 50.1232 57.6871 50.0833C58.0658 50.0259 58.4504 50.0218 58.8331 50.0644C58.8628 50.0677 58.9032 50.0766 58.9176 50.0974C58.9763 50.1822 59.038 50.2631 59.0856 50.3585C59.1794 50.5465 59.1474 50.7389 59.1529 50.9304C59.1584 51.1217 59.143 51.3105 59.1021 51.5003C58.9976 51.9861 58.7354 52.3695 58.3564 52.674C57.9905 52.968 57.5797 53.1812 57.1154 53.2759C56.9998 53.2995 56.8808 53.3145 56.763 53.3172C56.2702 53.3288 55.7781 53.3143 55.2872 53.2654C55.0255 53.2393 54.7842 53.1498 54.5434 53.0495C54.2097 52.9105 53.9223 52.7091 53.6655 52.4571C53.4814 52.2763 53.3429 52.0663 53.2183 51.8332C53.295 51.803 53.361 51.777 53.4294 51.7501C53.4572 51.8316 53.4694 51.9227 53.5156 51.9907C53.594 52.1064 53.6812 52.2228 53.7877 52.3113C53.9551 52.4504 54.1347 52.5784 54.3227 52.6878C54.4286 52.7495 54.5614 52.7652 54.6826 52.7999C54.7131 52.8086 54.7457 52.8094 54.7768 52.8162C54.9345 52.8508 55.0926 52.8585 55.2633 52.8237Z" fill="#EDF9D0"/>
<path d="M45.9356 53.3209C45.6805 53.3129 45.4373 53.3211 45.1983 53.2926C44.8974 53.2567 44.6229 53.1313 44.3529 52.994C44.089 52.8599 43.8617 52.6793 43.6525 52.4765C43.5492 52.3763 43.4719 52.2486 43.3869 52.1303C43.246 51.9344 43.1838 51.7086 43.1291 51.4764C43.0782 51.2605 43.0712 51.0441 43.0611 50.8254C43.0512 50.6125 43.1159 50.422 43.2009 50.2338C43.2499 50.1252 43.3254 50.0567 43.4509 50.0537C43.5966 50.0501 43.7425 50.0358 43.8879 50.04C44.1065 50.0464 44.3259 50.0559 44.543 50.0811C44.6723 50.0962 44.7981 50.1431 44.9252 50.1769C45.0526 50.2107 45.1807 50.2427 45.3065 50.2818C45.4467 50.3253 45.4504 50.3369 45.4434 50.4878C45.4347 50.6747 45.4282 50.8616 45.4199 51.0485C45.4124 51.2148 45.4401 51.3749 45.4934 51.5324C45.67 52.0539 45.9906 52.4548 46.4927 52.6895C46.7854 52.8263 47.0966 52.8715 47.4242 52.8238C47.9072 52.7534 48.2737 52.4926 48.5953 52.1505C48.7181 52.0198 48.7539 51.9223 48.767 51.7517C48.8444 51.7766 48.9197 51.8008 49.0078 51.8291C48.861 52.0808 48.7283 52.3237 48.5046 52.5011C48.3655 52.6113 48.2402 52.7431 48.09 52.8342C47.6599 53.0949 47.1969 53.2671 46.6874 53.2888C46.4413 53.2993 46.1953 53.3102 45.9356 53.3209Z" fill="#EDF9D0"/>
<path d="M56.6405 50.5822C56.6431 50.7371 56.6417 50.8921 56.6488 51.0468C56.6773 51.6715 56.1807 52.4319 55.4579 52.6409C54.892 52.8046 54.418 52.6482 53.9867 52.2932C53.8689 52.1963 53.7536 52.0941 53.6614 51.9659C53.5986 51.8785 53.6073 51.8016 53.6261 51.6902C53.7039 51.746 53.7664 51.7955 53.8335 51.8378C53.9793 51.9298 54.1198 52.0352 54.2764 52.1031C54.454 52.1801 54.6491 52.2153 54.832 52.2813C54.964 52.3291 55.0976 52.3344 55.2342 52.3419C55.5297 52.3581 55.7718 52.2363 55.9925 52.0589C56.1521 51.9305 56.2537 51.7568 56.3418 51.5761C56.381 51.4957 56.4391 51.4195 56.4257 51.3209C56.5653 51.0999 56.565 50.8482 56.5922 50.5829C56.6141 50.5708 56.6273 50.5765 56.6405 50.5822Z" fill="#A5E314"/>
<path d="M45.5645 51.1477C45.5692 50.9698 45.5745 50.8044 45.5798 50.639C45.5911 50.6382 45.6024 50.6373 45.6137 50.6365C45.6215 50.6736 45.6277 50.7112 45.6373 50.7478C45.6985 50.9808 45.7472 51.2183 45.8256 51.4454C45.9175 51.7115 46.068 51.9467 46.2992 52.1177C46.482 52.2528 46.6849 52.3299 46.9175 52.3408C47.2268 52.3553 47.5123 52.259 47.7971 52.1683C48.0581 52.0852 48.2807 51.923 48.4971 51.7567C48.5151 51.7429 48.5331 51.7288 48.5523 51.7169C48.5592 51.7127 48.5697 51.7145 48.5826 51.713C48.6272 51.802 48.6214 51.8846 48.5589 51.9657C48.3128 52.2851 48.0008 52.5033 47.6173 52.6377C46.8736 52.8984 46.038 52.3997 45.7444 51.7576C45.6574 51.5672 45.5648 51.3773 45.5645 51.1477Z" fill="#A5E314"/>
<path d="M56.6436 50.57C56.6277 50.5756 56.6145 50.5699 56.5919 50.5699C56.5825 50.5111 56.5825 50.4466 56.5825 50.3627C56.6694 50.4271 56.6366 50.4985 56.6436 50.57Z" fill="#A5E314"/>
<defs>
<linearGradient id="paint0_linear_1002_2967" x1="2.44007e-07" y1="-2.32831e-07" x2="100" y2="100" gradientUnits="userSpaceOnUse">
<stop stop-color="#D2F189"/>
<stop offset="0.632373" stop-color="#798B4F" stop-opacity="0"/>
</linearGradient>
</defs>
</svg>
