<svg width="101" height="100" viewBox="0 0 101 100" fill="none" xmlns="http://www.w3.org/2000/svg">
<path d="M43 5.48483C47.641 2.80533 53.359 2.80534 58 5.48483L85.3013 21.2472C89.9423 23.9267 92.8013 28.8786 92.8013 34.2376V65.7624C92.8013 71.1214 89.9423 76.0733 85.3013 78.7528L58 94.5152C53.359 97.1947 47.641 97.1947 43 94.5152L15.6987 78.7528C11.0577 76.0733 8.19873 71.1214 8.19873 65.7624V34.2376C8.19873 28.8786 11.0577 23.9267 15.6987 21.2472L43 5.48483Z" fill="#374C07" stroke="url(#paint0_linear_1002_2898)" stroke-width="2"/>
<path d="M62.9065 43.1102C62.9581 43.3517 62.9706 43.5962 62.9657 43.8424C62.965 43.8773 62.9687 43.9253 62.9905 43.9452C63.0585 44.0074 63.0433 44.0842 63.0482 44.1599C63.0636 44.3999 63.0822 44.6398 63.0983 44.8798C63.1022 44.9389 63.0997 44.9984 63.1025 45.0576C63.1106 45.2256 63.1193 45.3936 63.1292 45.5615C63.1305 45.5835 63.1331 45.613 63.1472 45.6253C63.2238 45.6926 63.2101 45.7812 63.2109 45.8666C63.2118 45.9624 63.2111 46.0582 63.2118 46.154C63.212 46.1859 63.2039 46.2228 63.2169 46.2488C63.2906 46.396 63.2594 46.553 63.2645 46.7061C63.2694 46.8519 63.2643 46.9981 63.2687 47.144C63.27 47.1877 63.2751 47.2559 63.3012 47.2696C63.3876 47.315 63.375 47.3867 63.3733 47.4572C63.3681 47.6762 63.4008 47.8918 63.4221 48.1088C63.4404 48.2942 63.4283 48.4825 63.4299 48.6695C63.4304 48.7328 63.4238 48.7949 63.4871 48.8422C63.5086 48.8583 63.511 48.9076 63.5122 48.9421C63.5218 49.2241 63.5247 49.5064 63.5385 49.7882C63.5499 50.0189 63.5742 50.2489 63.5909 50.4794C63.5946 50.5306 63.6 50.5748 63.6431 50.6137C63.6652 50.6336 63.6716 50.6776 63.6739 50.7115C63.683 50.8464 63.6652 50.9815 63.7233 51.1142C63.7503 51.1758 63.7362 51.2586 63.7305 51.331C63.7119 51.5652 63.7791 51.7808 63.8622 51.9944C63.8784 52.0359 63.888 52.0812 63.8927 52.1256C63.9056 52.2475 63.9141 52.3698 63.9247 52.4919C63.9329 52.5868 63.9406 52.6818 63.9506 52.7766C63.9543 52.812 63.9514 52.8625 63.9727 52.8792C64.0427 52.9342 64.03 53.0058 64.0346 53.0773C64.0398 53.1587 64.0533 53.2395 64.0609 53.3208C64.071 53.4292 64.0805 53.5378 64.0876 53.6464C64.0975 53.7961 64.1046 53.9459 64.1142 54.0956C64.1156 54.1177 64.1169 54.1495 64.1308 54.1595C64.2124 54.2184 64.1953 54.3032 64.1956 54.3832C64.1965 54.657 64.1919 54.9308 64.1977 55.2044C64.2023 55.4197 64.1787 55.6307 64.1361 55.8409C64.1235 55.9029 64.1176 55.9666 64.1137 56.0298C64.0926 56.365 64.0925 56.7007 64.0425 57.0353C64.0201 57.1849 63.9486 57.318 63.9387 57.4686C63.9325 57.5631 63.9132 57.6573 63.8929 57.7502C63.8677 57.865 63.8373 57.9788 63.8056 58.0921C63.775 58.2012 63.7449 58.311 63.7057 58.4171C63.6442 58.5835 63.5796 58.7489 63.5083 58.9113C63.4116 59.1317 63.3188 59.3553 63.2019 59.565C63.1305 59.6932 63.0648 59.8255 62.9688 59.9451C62.8718 60.0659 62.7847 60.2008 62.6893 60.3264C62.5385 60.5249 62.3726 60.7093 62.1757 60.8647C62.1116 60.9153 62.0645 60.9897 61.9966 61.0327C61.8675 61.1144 61.8057 61.2717 61.6499 61.3243C61.6043 61.3398 61.5765 61.4025 61.5354 61.4377C61.3651 61.5838 61.1954 61.7308 61.0206 61.8714C60.8615 61.9994 60.6967 62.1202 60.5334 62.2428C60.218 62.4797 59.8925 62.7023 59.5528 62.9025C59.3497 63.0221 59.1367 63.1249 58.9293 63.2372C58.7692 63.3239 58.6126 63.4171 58.451 63.5009C58.3299 63.5638 58.2043 63.6183 58.0792 63.6733C57.9048 63.7501 57.729 63.8239 57.5538 63.899C57.2908 64.0117 57.0287 64.1265 56.7645 64.2363C56.6352 64.2901 56.5007 64.3317 56.3708 64.3843C56.1615 64.469 55.96 64.5795 55.7442 64.6397C55.5226 64.7015 55.3263 64.817 55.1103 64.8877C54.9127 64.9525 54.7221 65.0385 54.5247 65.1043C54.3843 65.1511 54.238 65.1805 54.094 65.2164C53.8471 65.2779 53.5996 65.337 53.353 65.3998C53.0973 65.4649 52.8382 65.5081 52.5755 65.5327C52.4356 65.5458 52.2904 65.5488 52.1584 65.5906C51.933 65.6621 51.7047 65.6645 51.4739 65.6702C51.3106 65.6743 51.1474 65.6951 50.9843 65.6936C50.7663 65.6917 50.5484 65.676 50.3305 65.6645C50.2992 65.6629 50.2659 65.6576 50.2377 65.6447C50.0472 65.5573 49.8392 65.5631 49.6386 65.5315C49.4954 65.509 49.3472 65.5129 49.2065 65.4815C48.8037 65.3916 48.3999 65.3022 48.0036 65.188C47.7452 65.1136 47.4783 65.0569 47.2376 64.9253C47.1751 64.8911 47.0987 64.8833 47.0307 64.858C46.739 64.7499 46.4546 64.6234 46.1677 64.504C46.0584 64.4585 45.9461 64.4279 45.8367 64.3866C45.6387 64.3116 45.4466 64.2205 45.2466 64.1519C45.094 64.0995 44.9618 63.9886 44.7895 63.991C44.7708 63.9913 44.7522 63.9674 44.7328 63.9559C44.686 63.928 44.6417 63.8917 44.5911 63.8751C44.4021 63.8129 44.2293 63.7195 44.0554 63.6246C43.8887 63.5337 43.7082 63.4687 43.5383 63.3831C43.4059 63.3164 43.2803 63.2359 43.1519 63.1611C43.0676 63.1121 42.9847 63.0606 42.8996 63.0132C42.8128 62.9648 42.7221 62.9233 42.6363 62.8733C42.4516 62.7655 42.2689 62.6545 42.0859 62.544C42.0714 62.5353 42.0595 62.5209 42.0492 62.5072C42.0385 62.4929 42.0311 62.4626 42.0224 62.4626C41.8765 62.4632 41.8326 62.3179 41.7278 62.2564C41.545 62.1494 41.3657 62.0266 41.2135 61.8806C41.1021 61.7737 40.9743 61.6927 40.8602 61.5925C40.775 61.5176 40.6869 61.4462 40.6014 61.3717C40.4931 61.2774 40.3854 61.1824 40.2793 61.0857C40.2329 61.0434 40.192 60.9953 40.1472 60.9513C39.9972 60.8041 39.8467 60.6574 39.696 60.5109C39.6732 60.4888 39.6492 60.4678 39.6249 60.4473C39.6075 60.4328 39.5756 60.4224 39.5726 60.406C39.543 60.2448 39.399 60.1668 39.3124 60.048C39.191 59.8815 39.09 59.7067 39.009 59.5181C38.9592 59.4021 38.8982 59.291 38.8452 59.1764C38.7276 58.9223 38.587 58.677 38.5389 58.3956C38.4054 58.2069 38.4102 57.9732 38.3378 57.764C38.2609 57.5422 38.2228 57.3069 38.1693 57.077C38.1621 57.0464 38.1616 57.0137 38.1623 56.982C38.1653 56.8406 38.1502 56.703 38.1198 56.5634C38.0892 56.4227 38.086 56.2748 38.0811 56.1297C38.0679 55.7429 38.0587 55.356 38.0511 54.969C38.0475 54.7821 38.0454 54.5947 38.0532 54.408C38.0598 54.2496 38.0823 54.092 38.0963 53.9339C38.1015 53.875 38.1027 53.8157 38.1055 53.7566C38.1094 53.6758 38.0954 53.5928 38.1495 53.5195C38.1636 53.5004 38.1631 53.4664 38.1607 53.4401C38.1369 53.1774 38.2169 52.9275 38.2536 52.6724C38.2774 52.5064 38.3009 52.3404 38.3247 52.1745C38.3279 52.1522 38.3245 52.1213 38.3377 52.1094C38.4204 52.0343 38.4032 51.936 38.4093 51.8416C38.4127 51.7877 38.4265 51.7345 38.4365 51.6811C38.4441 51.6411 38.4602 51.6014 38.4602 51.5616C38.46 51.446 38.4761 51.339 38.538 51.2356C38.5681 51.1853 38.5675 51.1125 38.5683 51.0497C38.5712 50.8358 38.5685 50.6222 38.6203 50.4121C38.632 50.3645 38.6241 50.3121 38.6259 50.262C38.6291 50.1773 38.6167 50.0915 38.6797 50.0165C38.703 49.9887 38.7066 49.9393 38.7083 49.8992C38.7186 49.6583 38.7239 49.4172 38.7345 49.1763C38.7419 49.0086 38.7556 48.8412 38.7654 48.6736C38.7743 48.5193 38.7819 48.365 38.7895 48.2106C38.7919 48.1611 38.7919 48.1164 38.8303 48.0719C38.8591 48.0385 38.8679 47.9808 38.8704 47.9331C38.8762 47.8193 38.8704 47.705 38.8744 47.591C38.8778 47.4959 38.8893 47.401 38.8957 47.306C38.9074 47.1339 38.9192 46.9618 38.9285 46.7896C38.9327 46.7129 38.9368 46.6446 38.9857 46.5724C39.0275 46.511 39.0285 46.4169 39.0332 46.3364C39.0408 46.2091 39.0309 46.0807 39.0387 45.9534C39.0487 45.7907 39.0733 45.6289 39.0837 45.4662C39.0924 45.3298 39.0867 45.1925 39.0938 45.056C39.0965 45.0044 39.1177 44.9538 39.1299 44.9027C39.1362 44.8766 39.1432 44.8504 39.1464 44.8239C39.1491 44.8014 39.1464 44.7783 39.1471 44.7556C39.1526 44.5621 39.1404 44.3709 39.1958 44.1773C39.2751 43.9 39.2553 43.6089 39.2533 43.3225C39.2529 43.2517 39.2623 43.1871 39.3162 43.1175C39.3491 43.0951 39.372 43.087 39.3869 43.0713C39.5373 42.9129 39.698 42.7624 39.833 42.5917C40.0033 42.3765 40.1889 42.1767 40.3899 41.9924C40.5096 41.8827 40.6441 41.7841 40.7855 41.7045C40.9795 41.5953 41.1856 41.5071 41.388 41.413C41.5816 41.323 41.7719 41.2223 41.9729 41.1527C42.2511 41.0563 42.5361 40.9778 42.8213 40.9039C43.2474 40.7935 43.6749 40.6875 44.1045 40.5915C44.436 40.5175 44.771 40.4592 45.1054 40.3989C45.2879 40.366 45.472 40.3402 45.6561 40.3173C45.8449 40.2938 46.0351 40.282 46.2237 40.2573C46.457 40.2267 46.689 40.1864 46.922 40.1533C47.2671 40.1043 47.615 40.0706 47.9572 40.006C48.1891 39.9623 48.4245 39.9632 48.6567 39.9134C48.8626 39.8693 49.0818 39.8798 49.2951 39.8793C50.5042 39.8768 51.7133 39.8781 52.9223 39.8782C52.9588 39.8782 52.9955 39.8769 53.0318 39.88C53.2258 39.8969 53.4197 39.9158 53.6138 39.9322C53.7493 39.9437 53.8859 39.9467 54.0208 39.9633C54.2858 39.9958 54.5502 40.0342 54.8146 40.0719C55.0611 40.1071 55.3069 40.1468 55.5535 40.1805C55.8989 40.2277 56.2447 40.2714 56.5904 40.3161C56.8149 40.3452 57.0422 40.3604 57.2637 40.4049C57.7303 40.4987 58.1949 40.6033 58.6584 40.7118C59.0028 40.7925 59.3454 40.8815 59.6863 40.9757C59.9097 41.0374 60.1352 41.0995 60.348 41.1892C60.6787 41.3288 61.0019 41.4871 61.3236 41.6468C61.574 41.771 61.7919 41.9445 61.9851 42.1454C62.1488 42.3156 62.3028 42.4951 62.4589 42.6725C62.5578 42.785 62.6513 42.9022 62.7499 43.0149C62.7911 43.0621 62.831 43.1169 62.9065 43.1102ZM47.5615 45.6849C47.5488 45.6868 47.5362 45.6887 47.4985 45.6856C47.1846 45.7 46.8707 45.7138 46.5569 45.7288C46.4431 45.7343 46.3296 45.7432 46.2159 45.7498C45.8479 45.771 45.4799 45.8051 45.1117 45.8097C44.6459 45.8155 44.1867 45.8387 43.7315 45.9585C43.0632 46.1344 42.4197 46.3689 41.8069 46.6876C41.747 46.7187 41.6936 46.7623 41.6183 46.8044C41.4216 46.9127 41.2506 47.055 41.091 47.2107C40.8563 47.4397 40.6524 47.6955 40.4603 47.9604C40.3728 48.0811 40.2941 48.2083 40.1968 48.3391C40.1876 48.3571 40.1783 48.375 40.1553 48.4069C40.1099 48.4909 40.0645 48.5749 40.0033 48.6674C39.9852 48.7037 39.9671 48.7399 39.937 48.7892C39.927 48.8164 39.9169 48.8437 39.891 48.8833C39.8619 48.9584 39.8247 49.0315 39.8063 49.1091C39.7907 49.1744 39.7994 49.2452 39.793 49.3132C39.7848 49.3999 39.8175 49.4632 39.89 49.5093C39.9592 49.5534 40.0311 49.5945 40.0949 49.6455C40.4289 49.9127 40.7039 50.2334 40.942 50.5873C41.0615 50.765 41.1743 50.9484 41.307 51.1159C41.4219 51.2611 41.5605 51.3876 41.6929 51.5363C41.7075 51.5482 41.722 51.5602 41.7436 51.59C41.8531 51.7115 41.9573 51.8386 42.0734 51.9535C42.2835 52.1616 42.5035 52.3598 42.7145 52.567C43.1152 52.9603 43.5805 53.2413 44.1212 53.3967C44.2908 53.4454 44.4582 53.5019 44.6532 53.5578C44.8841 53.5701 45.1048 53.6428 45.3371 53.6612C45.6434 53.6854 45.9457 53.672 46.2458 53.6347C46.5176 53.6008 46.7897 53.5529 47.051 53.4595C47.2501 53.3883 47.4558 53.3355 47.6545 53.263C47.7863 53.215 47.9115 53.1484 48.0382 53.087C48.1274 53.0438 48.2209 53.0079 48.2816 52.9189C48.3025 52.8881 48.348 52.874 48.3988 52.8445C48.4627 52.8099 48.5267 52.7755 48.5904 52.7405C48.6814 52.6906 48.7691 52.6336 48.8635 52.5913C49.2922 52.3994 49.7417 52.2841 50.2111 52.2656C50.6119 52.2499 51.0134 52.2502 51.4147 52.2476C51.784 52.2452 52.1511 52.2542 52.5171 52.3273C52.984 52.4205 53.4184 52.5818 53.8333 52.8495C53.9886 52.935 54.1407 53.0271 54.2999 53.1044C54.6102 53.2548 54.9234 53.3994 55.2579 53.4911C55.649 53.5984 56.0473 53.6609 56.4521 53.6723C56.6194 53.677 56.7876 53.6488 56.9552 53.6506C57.1683 53.6529 57.3646 53.5771 57.5915 53.5375C57.8271 53.4686 58.0634 53.402 58.2981 53.3301C58.643 53.2246 58.9496 53.0464 59.2255 52.8171C59.3866 52.6832 59.5382 52.538 59.6926 52.3964C59.8337 52.2671 59.9781 52.1408 60.1118 52.0041C60.2802 51.8319 60.4329 51.644 60.604 51.4745C60.8389 51.2417 61.0285 50.9757 61.2097 50.7019C61.5056 50.2548 61.829 49.8328 62.2918 49.542C62.4188 49.4622 62.4576 49.357 62.4144 49.196C62.4126 49.1747 62.4107 49.1535 62.4146 49.1105C62.4128 49.0834 62.4185 49.0528 62.408 49.0297C62.3399 48.8808 62.2827 48.7244 62.195 48.5877C62.0108 48.3007 61.8174 48.0187 61.6143 47.7448C61.248 47.251 60.7975 46.8541 60.2365 46.5897C59.6331 46.3055 59.0095 46.081 58.3594 45.9289C58.0068 45.8465 57.6489 45.8204 57.289 45.8069C56.8387 45.79 56.3883 45.7738 55.9381 45.7557C55.606 45.7425 55.274 45.7268 54.9203 45.7076C54.8908 45.7072 54.8613 45.7068 54.8103 45.6999C54.69 45.6951 54.5696 45.6904 54.425 45.6808C54.3507 45.6806 54.2765 45.6804 54.1797 45.675C54.0048 45.6695 53.8299 45.6641 53.6313 45.6542C53.5749 45.6533 53.5186 45.6524 53.4406 45.6455C53.3114 45.6406 53.1822 45.6356 53.0328 45.6259C53.0122 45.6262 52.9917 45.6265 52.95 45.6189C52.6815 45.6055 52.413 45.5923 52.1445 45.5788C51.9168 45.5673 51.6884 45.5634 51.4616 45.5417C51.2198 45.5186 50.9802 45.5129 50.7388 45.545C50.5991 45.5636 50.4574 45.5714 50.3164 45.5747C50.0884 45.5801 49.8599 45.5719 49.6321 45.5807C49.4508 45.5877 49.27 45.6116 49.067 45.6257C49.0451 45.628 49.0233 45.6302 48.9768 45.6286C48.8581 45.6363 48.7394 45.6441 48.5957 45.649C48.5126 45.6524 48.4295 45.6558 48.3208 45.6554C48.1463 45.6638 47.9718 45.6722 47.7742 45.6778C47.7356 45.6802 47.697 45.6827 47.6477 45.6769C47.6254 45.6807 47.603 45.6845 47.5615 45.6849Z" fill="#EDF9D0"/>
<path d="M40.4561 41.4126C40.5751 41.2259 40.6659 41.0254 40.734 40.8157C40.7631 40.7261 40.7929 40.64 40.8422 40.5584C40.8738 40.5062 40.8849 40.4403 40.8986 40.3791C40.9066 40.3432 40.9198 40.3224 40.9476 40.2943C40.9909 40.2506 41.0059 40.1791 41.0337 40.1198C41.1029 39.9722 41.1753 39.8261 41.2411 39.6771C41.2811 39.5864 41.3042 39.4886 41.3846 39.419C41.4055 39.4008 41.4151 39.3619 41.4173 39.3315C41.4206 39.2864 41.4274 39.2503 41.4789 39.2404C41.4829 39.2396 41.4888 39.2359 41.4896 39.2325C41.533 39.0568 41.7211 38.9617 41.7444 38.7749C41.7455 38.7661 41.7461 38.7531 41.7516 38.7496C41.9022 38.6542 41.9467 38.4722 42.0731 38.3563C42.1078 38.3245 42.1224 38.2718 42.1508 38.2318C42.2576 38.0811 42.3693 37.9337 42.4735 37.7812C42.5752 37.6322 42.6993 37.5027 42.8228 37.3737C43.0518 37.1344 43.2869 36.9009 43.5243 36.67C43.5716 36.624 43.6446 36.6055 43.6994 36.5656C43.8926 36.4249 44.084 36.2814 44.2742 36.1366C44.3205 36.1014 44.3579 36.0549 44.4029 36.0179C44.4446 35.9838 44.488 35.9492 44.5362 35.9265C44.5857 35.9033 44.6398 35.8922 44.6636 35.834C44.6683 35.8226 44.6818 35.8135 44.6931 35.8064C44.8077 35.7345 44.925 35.6668 45.0369 35.591C45.2568 35.4421 45.497 35.3264 45.7113 35.167C45.8326 35.0768 45.977 35.018 46.1094 34.9423C46.2235 34.8771 46.3346 34.8068 46.4483 34.7409C46.5651 34.673 46.6822 34.6055 46.8015 34.542C46.8961 34.4917 47.0039 34.4607 47.0881 34.3975C47.1899 34.3212 47.3087 34.2941 47.4185 34.2422C47.446 34.2292 47.4726 34.2143 47.5 34.2011C47.5685 34.1682 47.6344 34.1256 47.7066 34.1061C47.7767 34.0872 47.8486 34.0823 47.9047 34.0275C47.9196 34.013 47.9458 34.0077 47.9679 34.0033C48.1267 33.9711 48.2672 33.8923 48.416 33.8342C48.6172 33.7556 48.7901 33.633 48.9684 33.5171C49.1004 33.4313 49.2349 33.3492 49.365 33.2607C49.4127 33.2283 49.4501 33.1812 49.4938 33.1427C49.68 32.9791 49.8628 32.8114 50.0549 32.6551C50.1587 32.5706 50.2784 32.5055 50.3915 32.4326C50.4023 32.4256 50.4229 32.4293 50.4296 32.4208C50.5218 32.3037 50.6484 32.288 50.7854 32.289C50.8274 32.2893 50.883 32.2718 50.9087 32.242C50.951 32.1931 50.9974 32.181 51.0535 32.1864C51.1371 32.1943 51.2233 32.1637 51.3039 32.2241C51.3518 32.26 51.4181 32.286 51.4773 32.2887C51.5638 32.2927 51.636 32.3244 51.7096 32.3605C51.9231 32.4653 52.1205 32.5899 52.2859 32.7664C52.3809 32.8678 52.5008 32.9454 52.6059 33.0379C52.7929 33.2025 52.9886 33.3565 53.1979 33.4906C53.4115 33.6274 53.6316 33.7526 53.8629 33.8612C54.1055 33.9751 54.3669 34.0345 54.6076 34.1496C54.7179 34.2024 54.8311 34.2494 54.9399 34.305C55.3083 34.4932 55.6876 34.6618 56.0284 34.9004C56.0359 34.9056 56.0433 34.9117 56.0517 34.9145C56.286 34.9941 56.4802 35.1443 56.6865 35.2735C56.8592 35.3817 57.0395 35.4786 57.2069 35.5943C57.4379 35.7541 57.6708 35.911 57.8861 36.0943C58.0478 36.2318 58.2367 36.337 58.4114 36.4597C58.5678 36.5695 58.7101 36.6951 58.8438 36.8327C58.9829 36.9759 59.151 37.093 59.2781 37.2452C59.439 37.4379 59.6639 37.5739 59.7736 37.8125C59.8022 37.8748 59.8361 37.9453 59.9189 37.967C59.9351 37.9712 59.9436 38.0094 59.9532 38.033C59.9858 38.1129 60.0111 38.1972 60.0967 38.2412C60.1119 38.249 60.1283 38.2642 60.1337 38.2796C60.1891 38.4362 60.3148 38.5453 60.3996 38.6807C60.4579 38.7738 60.5537 38.8518 60.5608 38.9753C60.5617 38.991 60.5765 39.0082 60.589 39.0207C60.7132 39.1461 60.7815 39.3052 60.8593 39.4595C60.9343 39.608 61.0221 39.75 61.0967 39.8988C61.1529 40.0108 61.1978 40.1285 61.2461 40.2444C61.2784 40.322 61.2969 40.407 61.3764 40.4563C61.3875 40.4631 61.3905 40.4844 61.3952 40.4997C61.405 40.5313 61.412 40.5639 61.423 40.5951C61.4273 40.6074 61.4467 40.6175 61.4461 40.6278C61.4359 40.7924 61.5711 40.9019 61.604 41.0496C61.6087 41.0706 61.6059 41.0933 61.6064 41.1152C61.6069 41.1373 61.5995 41.1742 61.6089 41.1791C61.6873 41.2197 61.6784 41.3004 61.6943 41.3747C61.6211 41.3704 61.5505 41.3688 61.4902 41.3428C61.2613 41.2443 61.0406 41.1249 60.8077 41.0374C60.4766 40.913 60.1393 40.8038 59.801 40.6998C59.6022 40.6386 59.3963 40.6007 59.1939 40.5512C58.7096 40.4328 58.2257 40.3124 57.741 40.1955C57.5869 40.1584 57.4314 40.1259 57.2753 40.0982C57.1194 40.0706 56.9619 40.0523 56.8053 40.0286C56.5994 39.9975 56.394 39.9633 56.1879 39.9339C56.0446 39.9135 55.9003 39.9001 55.7568 39.8812C55.6221 39.8635 55.4879 39.8426 55.3534 39.8234C55.1876 39.7998 55.0218 39.7769 54.8561 39.753C54.641 39.722 54.4265 39.687 54.211 39.6598C54.0224 39.636 53.8328 39.6187 53.6433 39.602C53.4222 39.5825 53.2008 39.5527 52.9795 39.5517C51.8621 39.5466 50.7446 39.5472 49.6272 39.5506C49.2908 39.5516 48.9545 39.5677 48.6181 39.5771C48.6044 39.5774 48.5907 39.5779 48.5772 39.5797C48.3844 39.6058 48.1915 39.631 47.9989 39.6587C47.7705 39.6916 47.5424 39.7265 47.3143 39.7609C47.18 39.7812 47.0461 39.8051 46.9114 39.8223C46.7317 39.8452 46.5508 39.8589 46.3715 39.884C46.0847 39.9242 45.7988 39.9701 45.5126 40.0142C45.2039 40.0619 44.8932 40.0998 44.5872 40.1611C44.2585 40.227 43.9338 40.3137 43.6081 40.3944C43.4804 40.426 43.3555 40.4693 43.2279 40.5018C42.9073 40.5833 42.5836 40.6533 42.2655 40.7432C41.7623 40.8854 41.2802 41.0861 40.8004 41.2929C40.6897 41.3407 40.5861 41.4175 40.4561 41.4126Z" fill="#EDF9D0"/>
<path d="M40.4508 41.4189C40.5864 41.4169 40.6899 41.3402 40.8007 41.2924C41.2804 41.0856 41.7625 40.8849 42.2657 40.7427C42.5838 40.6527 42.9076 40.5828 43.2281 40.5012C43.3557 40.4688 43.4806 40.4255 43.6084 40.3938C43.934 40.3131 44.2587 40.2265 44.5875 40.1606C44.8934 40.0993 45.2041 40.0613 45.5128 40.0137C45.799 39.9696 46.085 39.9236 46.3717 39.8835C46.551 39.8584 46.7319 39.8446 46.9116 39.8218C47.0463 39.8046 47.1802 39.7806 47.3145 39.7604C47.5427 39.7259 47.7708 39.6911 47.9991 39.6582C48.1917 39.6305 48.3846 39.6053 48.5774 39.5792C48.5909 39.5774 48.6047 39.5769 48.6183 39.5765C48.9547 39.5672 49.2911 39.551 49.6275 39.55C50.7449 39.5467 51.8623 39.546 52.9797 39.5512C53.2011 39.5522 53.4225 39.5819 53.6436 39.6014C53.833 39.6181 54.0226 39.6354 54.2113 39.6592C54.4268 39.6864 54.6413 39.7214 54.8563 39.7525C55.022 39.7764 55.1879 39.7993 55.3536 39.8229C55.4881 39.8421 55.6224 39.863 55.7571 39.8807C55.9006 39.8996 56.0448 39.9129 56.1881 39.9334C56.3942 39.9628 56.5996 39.997 56.8055 40.0281C56.9621 40.0518 57.1197 40.07 57.2755 40.0977C57.4316 40.1254 57.5872 40.1578 57.7413 40.195C58.226 40.3119 58.7098 40.4322 59.1942 40.5507C59.3966 40.6002 59.6025 40.6381 59.8013 40.6992C60.1395 40.8033 60.4768 40.9125 60.8079 41.0369C61.0408 41.1244 61.2615 41.2437 61.4905 41.3423C61.5507 41.3682 61.6214 41.3699 61.6995 41.3822C61.9582 41.5206 62.1704 41.7005 62.3498 41.9184C62.4851 42.0829 62.6219 42.2466 62.7481 42.418C62.8503 42.5569 62.938 42.7054 62.9109 42.8928C62.9019 42.9553 62.9092 43.02 62.9077 43.0967C62.8309 43.1164 62.791 43.0615 62.7498 43.0143C62.6512 42.9016 62.5577 42.7844 62.4588 42.672C62.3028 42.4946 62.1487 42.3151 61.985 42.1448C61.7918 41.944 61.5739 41.7704 61.3235 41.6462C61.0018 41.4866 60.6786 41.3282 60.3479 41.1887C60.1351 41.0989 59.9096 41.0369 59.6862 40.9751C59.3453 40.8809 59.0027 40.7919 58.6583 40.7113C58.1948 40.6028 57.7302 40.4981 57.2636 40.4043C57.0422 40.3598 56.8148 40.3446 56.5903 40.3155C56.2446 40.2708 55.8988 40.2271 55.5535 40.1799C55.3068 40.1462 55.061 40.1065 54.8145 40.0714C54.5501 40.0336 54.2858 39.9952 54.0207 39.9627C53.8858 39.9461 53.7493 39.9431 53.6137 39.9316C53.4196 39.9152 53.2257 39.8963 53.0317 39.8795C52.9954 39.8763 52.9587 39.8777 52.9222 39.8777C51.7132 39.8776 50.5041 39.8762 49.295 39.8788C49.0817 39.8792 48.8625 39.8687 48.6567 39.9129C48.4244 39.9627 48.189 39.9617 47.9571 40.0055C47.6149 40.0701 47.267 40.1038 46.9219 40.1528C46.6889 40.1859 46.4569 40.2261 46.2236 40.2567C46.035 40.2814 45.8448 40.2932 45.656 40.3167C45.4719 40.3397 45.2878 40.3654 45.1053 40.3983C44.7709 40.4586 44.4359 40.5169 44.1044 40.5909C43.6748 40.6869 43.2474 40.7929 42.8212 40.9033C42.536 40.9772 42.251 41.0558 41.9728 41.1521C41.7719 41.2218 41.5815 41.3224 41.3879 41.4124C41.1855 41.5065 40.9794 41.5947 40.7854 41.704C40.644 41.7836 40.5095 41.8822 40.3898 41.9919C40.1888 42.1761 40.0032 42.3759 39.8329 42.5912C39.6979 42.7619 39.5372 42.9123 39.3868 43.0707C39.3719 43.0864 39.349 43.0945 39.3206 43.1074C39.3107 43.045 39.3109 42.9814 39.3093 42.9178C39.3039 42.6989 39.3888 42.5148 39.5225 42.3473C39.5981 42.2525 39.666 42.1515 39.7415 42.0567C39.7749 42.0148 39.8195 41.9819 39.8578 41.9438C39.9634 41.8388 40.0643 41.7285 40.1751 41.6292C40.2587 41.5543 40.3547 41.4931 40.4508 41.4189Z" fill="#374C07"/>
<path d="M40.0189 48.6587C40.0643 48.5748 40.1098 48.4908 40.17 48.3977C40.1937 48.3699 40.2025 48.3511 40.2113 48.3324C40.294 48.2082 40.3727 48.081 40.4602 47.9603C40.6523 47.6954 40.8562 47.4396 41.0909 47.2106C41.2504 47.0549 41.4215 46.9126 41.6275 46.8126C41.6333 46.8581 41.6298 46.8954 41.6242 46.9532C41.6837 46.9267 41.7246 46.9096 41.7645 46.8906C41.9779 46.789 42.1897 46.6838 42.4049 46.5862C42.5248 46.5318 42.6497 46.4879 42.7734 46.4424C43.033 46.3471 43.2884 46.2398 43.564 46.193C43.7065 46.1689 43.8468 46.131 43.9878 46.0975C44.1651 46.0554 44.343 46.0197 44.5267 46.0382C44.5897 46.0445 44.6521 46.0623 44.715 46.0633C45.0605 46.0687 45.4054 46.0691 45.749 46.0172C45.858 46.0007 45.972 46.0148 46.0835 46.0187C46.142 46.0208 46.2009 46.0401 46.2585 46.0361C46.4573 46.0221 46.6559 46.0041 46.8539 45.9822C47.0472 45.9609 47.2397 45.9318 47.4328 45.9082C47.594 45.8886 47.7514 45.8685 47.9191 45.8903C48.1047 45.9145 48.2977 45.9264 48.4877 45.8954C48.6082 45.8757 48.7293 45.8569 48.8508 45.8479C48.9459 45.8408 49.0425 45.8446 49.1378 45.8519C49.3047 45.8648 49.4708 45.8923 49.6378 45.8991C49.9378 45.9113 50.2368 45.8887 50.5343 45.8477C50.6195 45.836 50.7053 45.8219 50.7909 45.8213C50.8948 45.8205 50.9988 45.8368 51.1028 45.8384C51.1881 45.8396 51.2748 45.8186 51.3589 45.8272C51.6892 45.8609 52.0198 45.8787 52.3519 45.8742C52.6256 45.8705 52.8996 45.8682 53.1731 45.8755C53.3219 45.8795 53.4699 45.9125 53.6188 45.9184C53.8095 45.9258 54.0008 45.9208 54.1918 45.9179C54.3187 45.916 54.4465 45.8967 54.5723 45.9061C54.8023 45.9234 55.0305 45.9646 55.2606 45.9803C55.5325 45.9989 55.8057 46.0006 56.0782 46.0107C56.1545 46.0136 56.2324 46.0335 56.3066 46.0235C56.5711 45.9878 56.832 46.025 57.0943 46.0459C57.2106 46.0551 57.3283 46.0474 57.4454 46.0477C57.6042 46.0482 57.7668 46.0282 57.9208 46.0558C58.066 46.0818 58.2086 46.0948 58.354 46.0915C58.4332 46.0897 58.5055 46.071 58.58 46.136C58.6297 46.1793 58.7146 46.1934 58.7855 46.1993C59.0548 46.2216 59.3113 46.2921 59.5588 46.3953C59.7681 46.4826 59.9781 46.5703 60.1796 46.6738C60.4011 46.7875 60.6174 46.9136 60.8181 47.0622C60.9163 47.1349 61.0069 47.2191 61.0942 47.305C61.1744 47.3839 61.2471 47.4705 61.32 47.5563C61.4199 47.6739 61.5232 47.7894 61.6137 47.9141C61.7496 48.1011 61.8729 48.2972 62.0066 48.486C62.1453 48.6819 62.2675 48.8852 62.3292 49.1244C62.355 49.1269 62.3819 49.1295 62.4088 49.1321C62.4106 49.1533 62.4125 49.1746 62.406 49.2129C62.392 49.3001 62.3216 49.2997 62.2826 49.3327C62.0509 49.5289 61.8152 49.7204 61.6135 49.949C61.5385 50.0341 61.4569 50.1146 61.3909 50.2063C61.2797 50.3608 61.1759 50.5207 61.0739 50.6814C60.8211 51.0797 60.4824 51.405 60.1658 51.7482C59.9966 51.9317 59.8058 52.0953 59.6228 52.2658C59.6006 52.2864 59.5664 52.2941 59.5378 52.3078C59.5284 52.3007 59.5191 52.2936 59.5097 52.2865C59.5214 52.2218 59.5234 52.1534 59.5464 52.093C59.6143 51.9148 59.6933 51.7408 59.7625 51.563C59.8233 51.4067 59.8787 51.2482 59.9332 51.0896C60.0113 50.8623 60.0854 50.6336 60.1633 50.4062C60.1905 50.3269 60.2131 50.2526 60.1615 50.1718C60.1343 50.1293 60.1341 50.0787 60.1741 50.0333C60.2791 49.9142 60.3002 49.7668 60.3096 49.6156C60.3132 49.5571 60.3251 49.4992 60.329 49.4408C60.3304 49.4207 60.3191 49.3997 60.3125 49.3685C60.3673 49.2423 60.3836 49.1206 60.3756 48.989C60.4324 48.8813 60.4099 48.813 60.3135 48.8065C60.198 48.7989 60.0862 48.774 59.9643 48.7985C59.6286 48.866 59.2903 48.9202 58.9623 49.0223C58.8641 49.0529 58.764 49.0784 58.6676 49.1141C58.465 49.189 58.2652 49.2715 58.0624 49.346C57.9522 49.3865 57.8371 49.4133 57.7265 49.4528C57.6042 49.4964 57.4853 49.5495 57.3636 49.5949C57.1139 49.688 56.8588 49.7684 56.614 49.873C56.2935 50.01 55.9649 50.1316 55.6661 50.3156C55.6546 50.3227 55.6412 50.3268 55.6286 50.3322C55.4416 50.4133 55.2545 50.4942 55.0678 50.576C55.0473 50.585 55.0299 50.6009 55.01 50.6118C54.865 50.6907 54.7087 50.7496 54.5784 50.8546C54.5751 50.8572 54.5697 50.8572 54.5653 50.8583C54.4579 50.8831 54.3573 50.918 54.2798 51.0048C54.2583 51.029 54.2149 51.0341 54.1811 51.0468C54.1396 51.0623 54.0945 51.0711 54.0565 51.0926C53.8983 51.1821 53.7365 51.2589 53.5525 51.2801C53.5181 51.2841 53.4858 51.3067 53.4528 51.3213C53.4 51.3446 53.3492 51.3744 53.2943 51.3906C53.2003 51.4185 53.1047 51.4432 53.0081 51.4599C52.8746 51.483 52.7354 51.4824 52.6062 51.5188C52.3801 51.5825 52.1683 51.5181 51.9703 51.4421C51.6995 51.3383 51.4663 51.1685 51.354 50.879C51.3175 50.7848 51.2494 50.7178 51.1558 50.6621C51.1317 50.6561 51.1181 50.6519 51.0963 50.644C51.0059 50.6296 50.9631 50.6681 50.9452 50.7469C50.9356 50.7891 50.9201 50.8319 50.898 50.8688C50.8132 51.0108 50.7234 51.1497 50.6388 51.2917C50.624 51.3166 50.625 51.351 50.6151 51.3899C50.4925 51.4703 50.3746 51.5441 50.2295 51.5642C50.1616 51.5583 50.0912 51.5809 50.0398 51.559C49.8621 51.4834 49.6689 51.4738 49.4889 51.414C49.2665 51.3401 49.0449 51.2629 48.827 51.1768C48.5231 51.0569 48.2164 50.9413 47.9229 50.799C47.4645 50.5768 47.0167 50.3327 46.5633 50.1C46.4103 50.0215 46.257 49.9423 46.0985 49.8761C45.8765 49.7831 45.6495 49.7023 45.4248 49.6157C45.2472 49.5473 45.0708 49.4753 44.892 49.4099C44.658 49.3243 44.42 49.2489 44.1875 49.1595C43.8361 49.0245 43.4845 48.8917 43.1121 48.8256C42.9519 48.7971 42.792 48.7619 42.6304 48.7474C42.4505 48.7312 42.2687 48.7355 42.0878 48.7296C42.0532 48.7285 42.015 48.7297 41.9852 48.7155C41.9281 48.6882 41.8779 48.7072 41.8521 48.748C41.8058 48.8213 41.7465 48.8953 41.8086 48.9964C41.8437 49.0538 41.8534 49.1308 41.7963 49.1851C41.7187 49.2589 41.7372 49.3467 41.7611 49.4259C41.8293 49.652 41.9075 49.8751 41.9835 50.0987C42.0726 50.361 42.1599 50.624 42.2546 50.8843C42.3691 51.1989 42.453 51.525 42.6113 51.8234C42.7048 51.9995 42.7895 52.1803 42.8763 52.3599C42.8863 52.3807 42.8842 52.4073 42.8927 52.4658C42.8223 52.425 42.7712 52.4064 42.7345 52.3723C42.599 52.2463 42.4337 52.1553 42.3233 51.9986C42.2454 51.8879 42.1403 51.7968 42.0562 51.6899C41.9374 51.5389 41.9104 51.5247 41.7365 51.572C41.7219 51.56 41.7073 51.5481 41.6924 51.5186C41.726 51.4297 41.7255 51.3706 41.6407 51.334C41.5962 51.3148 41.5534 51.2904 41.5128 51.2638C41.4884 51.2479 41.4655 51.226 41.4492 51.2018C41.4222 51.1618 41.3987 51.1189 41.3778 51.0753C41.3383 50.9925 41.2656 50.938 41.2104 50.8689C41.124 50.7608 41.0499 50.6429 40.9687 50.5305C40.8679 50.3908 40.7503 50.2608 40.6668 50.1116C40.5382 49.8817 40.3795 49.6855 40.1669 49.5294C40.0196 49.4213 39.9412 49.2727 39.938 49.0852C39.9368 49.0136 39.9177 48.9423 39.9067 48.8708C39.9168 48.8436 39.9268 48.8163 39.9515 48.7803C39.9837 48.734 40.0013 48.6963 40.0189 48.6587Z" fill="#374C07"/>
<path d="M62.4119 49.1212C62.3822 49.1295 62.3553 49.1269 62.3295 49.1245C62.2678 48.8852 62.1456 48.682 62.0069 48.486C61.8732 48.2972 61.7499 48.1011 61.614 47.9141C61.5235 47.7895 61.4202 47.6739 61.3203 47.5563C61.2474 47.4705 61.1747 47.3839 61.0945 47.3051C61.0072 47.2192 60.9166 47.135 60.8184 47.0622C60.6177 46.9136 60.4014 46.7876 60.1799 46.6738C59.9784 46.5703 59.7684 46.4826 59.5591 46.3954C59.3116 46.2921 59.0551 46.2216 58.7858 46.1993C58.7149 46.1934 58.63 46.1793 58.5803 46.136C58.5058 46.0711 58.4335 46.0898 58.3543 46.0915C58.2089 46.0948 58.0662 46.0818 57.9211 46.0558C57.7671 46.0282 57.6045 46.0482 57.4457 46.0477C57.3286 46.0474 57.2109 46.0552 57.0946 46.0459C56.8323 46.025 56.5714 45.9878 56.3069 46.0235C56.2327 46.0335 56.1548 46.0136 56.0785 46.0108C55.806 46.0006 55.5328 45.999 55.2609 45.9804C55.0308 45.9646 54.8026 45.9234 54.5726 45.9061C54.4468 45.8967 54.319 45.9161 54.1921 45.918C54.0011 45.9208 53.8098 45.9259 53.6191 45.9184C53.4702 45.9126 53.3222 45.8795 53.1734 45.8756C52.8998 45.8683 52.6259 45.8705 52.3522 45.8742C52.0201 45.8788 51.6895 45.861 51.3591 45.8272C51.2751 45.8186 51.1884 45.8396 51.1031 45.8384C50.999 45.8369 50.8951 45.8205 50.7912 45.8213C50.7056 45.8219 50.6198 45.836 50.5346 45.8477C50.2371 45.8887 49.9381 45.9113 49.6381 45.8991C49.4711 45.8923 49.305 45.8648 49.138 45.8519C49.0428 45.8446 48.9462 45.8409 48.8511 45.8479C48.7296 45.857 48.6085 45.8757 48.488 45.8954C48.298 45.9265 48.105 45.9145 47.9193 45.8903C47.7517 45.8685 47.5943 45.8886 47.433 45.9083C47.24 45.9318 47.0475 45.9609 46.8542 45.9823C46.6562 46.0041 46.4576 46.0221 46.2588 46.0361C46.2012 46.0402 46.1423 46.0208 46.0838 46.0187C45.9722 46.0148 45.8583 46.0008 45.7493 46.0172C45.4057 46.0691 45.0607 46.0687 44.7153 46.0633C44.6524 46.0623 44.59 46.0446 44.527 46.0382C44.3433 46.0197 44.1654 46.0554 43.9881 46.0975C43.8471 46.131 43.7068 46.1689 43.5643 46.1931C43.2887 46.2398 43.0333 46.3471 42.7737 46.4425C42.6499 46.4879 42.5251 46.5318 42.4052 46.5862C42.19 46.6838 41.9782 46.789 41.7648 46.8906C41.7249 46.9096 41.684 46.9268 41.6245 46.9532C41.63 46.8954 41.6336 46.8582 41.6372 46.8104C41.6937 46.7622 41.7472 46.7186 41.8071 46.6875C42.4199 46.3688 43.0634 46.1343 43.7317 45.9584C44.1869 45.8386 44.646 45.8154 45.1118 45.8096C45.4801 45.805 45.848 45.7709 46.2161 45.7497C46.3298 45.7431 46.4433 45.7342 46.557 45.7287C46.8709 45.7137 47.1848 45.6999 47.5116 45.6984C47.5291 45.7768 47.5722 45.7945 47.628 45.791C47.7719 45.7822 47.9158 45.7733 48.0592 45.7593C48.0803 45.7573 48.0987 45.7275 48.1184 45.7105C48.1146 45.7005 48.1109 45.6905 48.1071 45.6805C48.0039 45.6805 47.9007 45.6805 47.7975 45.6805C47.972 45.6721 48.1465 45.6637 48.342 45.6641C48.4501 45.679 48.5391 45.7086 48.621 45.6518C48.7396 45.644 48.8583 45.6362 48.9897 45.6406C49.0041 45.7003 49.0264 45.7343 49.0756 45.7341C49.1355 45.7339 49.1892 45.7159 49.2181 45.6366C49.1676 45.6332 49.1284 45.6305 49.0892 45.6279C49.2702 45.6115 49.4509 45.5876 49.6323 45.5806C49.8601 45.5718 50.0885 45.58 50.3165 45.5746C50.4575 45.5713 50.5993 45.5635 50.7389 45.5449C50.9804 45.5128 51.22 45.5185 51.4618 45.5416C51.6885 45.5633 51.917 45.5672 52.1447 45.5787C52.4132 45.5922 52.6817 45.6054 52.9657 45.6294C53.0051 45.6369 53.0291 45.6338 53.0531 45.6306C53.1824 45.6355 53.3116 45.6405 53.4585 45.6564C53.5359 45.6645 53.5955 45.6615 53.6551 45.6585C53.83 45.664 54.005 45.6694 54.1987 45.6855C54.2957 45.7121 54.3738 45.7263 54.4493 45.6855C54.5697 45.6903 54.6901 45.695 54.8268 45.7105C54.8762 45.7182 54.9091 45.7152 54.9421 45.7121C55.2742 45.7267 55.6062 45.7424 55.9382 45.7556C56.3885 45.7737 56.8389 45.7899 57.2892 45.8068C57.6491 45.8203 58.0069 45.8464 58.3596 45.9288C59.0096 46.0809 59.6333 46.3054 60.2366 46.5896C60.7977 46.854 61.2482 47.2509 61.6144 47.7447C61.8176 48.0186 62.0109 48.3006 62.1951 48.5876C62.2829 48.7243 62.3401 48.8807 62.4081 49.0296C62.4187 49.0527 62.4129 49.0833 62.4119 49.1212Z" fill="#374C07"/>
<path d="M50.2297 51.5641C50.1398 51.6176 50.0425 51.6521 49.9348 51.6119C49.9224 51.6073 49.9078 51.6077 49.8942 51.6074C49.2648 51.5972 48.6846 51.3927 48.1246 51.1336C47.5543 50.8697 46.9968 50.5782 46.4349 50.2964C46.0474 50.1022 45.6511 49.9299 45.2424 49.7847C44.6286 49.5668 44.0196 49.335 43.4035 49.1236C42.9853 48.9801 42.5503 48.8987 42.1119 48.8412C41.9556 48.8207 41.9035 48.8577 41.884 49.0176C41.8739 49.1012 41.8899 49.1882 41.8958 49.2736C41.8971 49.2913 41.9089 49.3082 41.9105 49.326C41.9297 49.5407 42.0253 49.7343 42.0839 49.9377C42.1627 50.2118 42.2671 50.4786 42.3636 50.7475C42.4968 51.1189 42.6251 51.4924 42.7702 51.8592C42.8922 52.1674 43.092 52.4278 43.324 52.6635C43.5298 52.8726 43.7596 53.0497 44.0142 53.1954C44.0797 53.2329 44.1384 53.2834 44.206 53.3158C44.3268 53.3736 44.4525 53.4211 44.575 53.4756C44.6036 53.4883 44.6534 53.4859 44.634 53.5483C44.4583 53.5017 44.2909 53.4452 44.1213 53.3965C43.5806 53.2411 43.1153 52.9601 42.7147 52.5668C42.5036 52.3596 42.2836 52.1614 42.0735 51.9533C41.9574 51.8384 41.8533 51.7113 41.7402 51.5808C41.9106 51.5247 41.9376 51.5388 42.0564 51.6899C42.1405 51.7967 42.2456 51.8879 42.3236 51.9985C42.434 52.1552 42.5993 52.2462 42.7347 52.3722C42.7714 52.4063 42.8225 52.4249 42.893 52.4657C42.8844 52.4073 42.8865 52.3806 42.8765 52.3598C42.7897 52.1802 42.705 51.9994 42.6116 51.8233C42.4532 51.5249 42.3693 51.1988 42.2549 50.8842C42.1602 50.6239 42.0729 50.3609 41.9838 50.0987C41.9078 49.875 41.8295 49.6519 41.7614 49.4258C41.7375 49.3466 41.7189 49.2588 41.7965 49.185C41.8536 49.1307 41.844 49.0537 41.8088 48.9964C41.7468 48.8952 41.806 48.8212 41.8524 48.7479C41.8782 48.7071 41.9284 48.6881 41.9855 48.7154C42.0152 48.7296 42.0535 48.7284 42.0881 48.7295C42.269 48.7354 42.4507 48.7311 42.6307 48.7473C42.7923 48.7619 42.9521 48.797 43.1124 48.8255C43.4848 48.8917 43.8363 49.0244 44.1877 49.1595C44.4203 49.2489 44.6582 49.3242 44.8923 49.4098C45.071 49.4752 45.2474 49.5472 45.4251 49.6157C45.6498 49.7022 45.8768 49.7831 46.0988 49.876C46.2572 49.9423 46.4105 50.0214 46.5635 50.0999C47.0169 50.3326 47.4647 50.5767 47.9231 50.7989C48.2166 50.9412 48.5234 51.0568 48.8272 51.1768C49.0451 51.2628 49.2668 51.34 49.4892 51.4139C49.6692 51.4737 49.8624 51.4834 50.04 51.5589C50.0915 51.5808 50.1618 51.5582 50.2297 51.5641Z" fill="#374C07"/>
<path d="M48.3906 52.8484C48.408 52.8216 48.4293 52.7854 48.46 52.761C48.7351 52.542 48.9459 52.2709 49.113 51.9637C49.128 51.936 49.1462 51.91 49.1661 51.8782C49.3248 51.8985 49.4819 51.917 49.6385 51.9392C49.8544 51.9698 50.0662 51.9431 50.2743 51.8891C50.3334 51.8737 50.3853 51.8293 50.4392 51.7961C50.7057 51.632 50.9076 51.4089 51.0473 51.1289C51.0649 51.0936 51.0873 51.0608 51.1184 51.0084C51.1468 51.054 51.1684 51.0807 51.1816 51.1111C51.3261 51.442 51.5752 51.6793 51.8799 51.8548C51.9768 51.9106 52.1071 51.9145 52.2238 51.9287C52.4567 51.9571 52.6871 51.9188 52.9171 51.8861C53.0577 51.8661 53.0647 51.8622 53.1313 51.9918C53.2687 52.2588 53.4738 52.4723 53.6699 52.6931C53.7141 52.7428 53.7653 52.7861 53.8129 52.8411C53.4185 52.5818 52.9841 52.4205 52.5172 52.3273C52.1512 52.2542 51.784 52.2452 51.4147 52.2476C51.0135 52.2502 50.612 52.2499 50.2111 52.2656C49.7417 52.2841 49.2922 52.3994 48.8635 52.5914C48.7692 52.6336 48.6814 52.6906 48.5905 52.7405C48.5268 52.7755 48.4627 52.8099 48.3906 52.8484Z" fill="#374C07"/>
<path d="M57.5801 53.5377C57.5857 53.521 57.5994 53.4962 57.6201 53.4869C57.8971 53.3618 58.1731 53.2355 58.4256 53.0637C58.9543 52.7041 59.3315 52.2269 59.5492 51.6243C59.6819 51.2568 59.8215 50.8917 59.9498 50.5227C60.0254 50.3053 60.0838 50.082 60.1519 49.862C60.2002 49.7057 60.2518 49.5504 60.3078 49.3866C60.3191 49.3991 60.3304 49.4201 60.3291 49.4402C60.3251 49.4987 60.3132 49.5565 60.3096 49.615C60.3002 49.7662 60.2791 49.9136 60.1741 50.0327C60.1341 50.0781 60.1343 50.1287 60.1615 50.1713C60.2132 50.252 60.1906 50.3263 60.1634 50.4056C60.0854 50.633 60.0113 50.8617 59.9332 51.089C59.8788 51.2476 59.8234 51.4061 59.7625 51.5624C59.6933 51.7402 59.6143 51.9142 59.5465 52.0924C59.5235 52.1528 59.5214 52.2212 59.5098 52.2859C59.5191 52.293 59.5285 52.3001 59.5378 52.3072C59.5664 52.2935 59.6007 52.2858 59.6228 52.2652C59.8058 52.0947 59.9966 51.9311 60.1658 51.7476C60.4824 51.4044 60.8212 51.0791 61.0739 50.6809C61.176 50.5201 61.2798 50.3602 61.3909 50.2057C61.4569 50.114 61.5385 50.0335 61.6136 49.9484C61.8152 49.7198 62.0509 49.5283 62.2826 49.3321C62.3216 49.2991 62.3921 49.2995 62.4037 49.2228C62.4575 49.3563 62.4187 49.4614 62.2917 49.5413C61.8289 49.8321 61.5055 50.2541 61.2096 50.7012C61.0284 50.9749 60.8388 51.241 60.6039 51.4738C60.4328 51.6433 60.2801 51.8311 60.1117 52.0034C59.978 52.1401 59.8336 52.2664 59.6926 52.3957C59.5381 52.5373 59.3865 52.6825 59.2255 52.8164C58.9496 53.0457 58.6429 53.2239 58.298 53.3294C58.0633 53.4012 57.827 53.4679 57.5801 53.5377Z" fill="#374C07"/>
<path d="M39.8992 48.8766C39.9181 48.9419 39.9372 49.0132 39.9384 49.0848C39.9415 49.2724 40.0199 49.4209 40.1672 49.529C40.3799 49.6851 40.5385 49.8813 40.6672 50.1112C40.7506 50.2604 40.8683 50.3904 40.9691 50.5301C41.0503 50.6425 41.1243 50.7604 41.2108 50.8685C41.2659 50.9376 41.3387 50.9921 41.3782 51.0749C41.399 51.1186 41.4226 51.1614 41.4496 51.2015C41.4659 51.2256 41.4887 51.2475 41.5132 51.2635C41.5538 51.29 41.5965 51.3145 41.641 51.3337C41.7258 51.3702 41.7263 51.4293 41.6907 51.5112C41.5608 51.3871 41.4222 51.2606 41.3072 51.1154C41.1746 50.9479 41.0618 50.7645 40.9422 50.5868C40.7041 50.2329 40.4291 49.9122 40.0952 49.645C40.0314 49.594 39.9595 49.5529 39.8903 49.5088C39.8177 49.4627 39.785 49.3994 39.7932 49.3127C39.7997 49.2447 39.791 49.1739 39.8065 49.1086C39.825 49.031 39.8622 48.9579 39.8992 48.8766Z" fill="#374C07"/>
<path d="M47.7857 45.6795C47.9005 45.6809 48.0037 45.6809 48.1069 45.6809C48.1107 45.6909 48.1144 45.7009 48.1182 45.7109C48.0985 45.7279 48.0801 45.7576 48.059 45.7597C47.9156 45.7737 47.7717 45.7826 47.6278 45.7914C47.5721 45.7948 47.5289 45.7772 47.5239 45.7013C47.5361 45.689 47.5488 45.6871 47.5763 45.6925C47.6136 45.695 47.636 45.6902 47.6584 45.6855C47.697 45.683 47.7356 45.6805 47.7857 45.6795Z" fill="#374C07"/>
<path d="M49.0782 45.6266C49.1284 45.6304 49.1676 45.633 49.218 45.6364C49.1892 45.7157 49.1355 45.7337 49.0756 45.7339C49.0264 45.7341 49.0041 45.7001 49.002 45.6423C49.0234 45.6299 49.0453 45.6277 49.0782 45.6266Z" fill="#374C07"/>
<path d="M48.6081 45.6503C48.5388 45.7086 48.4498 45.679 48.3545 45.6659C48.4293 45.6557 48.5124 45.6522 48.6081 45.6503Z" fill="#374C07"/>
<path d="M54.4368 45.6829C54.3733 45.7261 54.2952 45.7119 54.2095 45.688C54.2762 45.6802 54.3504 45.6803 54.4368 45.6829Z" fill="#374C07"/>
<path d="M40.0111 48.6624C40.0013 48.6958 39.9837 48.7334 39.9575 48.7732C39.967 48.7392 39.9851 48.703 40.0111 48.6624Z" fill="#374C07"/>
<path d="M53.6432 45.6563C53.5954 45.6614 53.5358 45.6644 53.4692 45.6594C53.5186 45.6522 53.575 45.6532 53.6432 45.6563Z" fill="#374C07"/>
<path d="M47.6532 45.6813C47.6361 45.6903 47.6137 45.695 47.5859 45.6942C47.603 45.6848 47.6254 45.681 47.6532 45.6813Z" fill="#374C07"/>
<path d="M40.2044 48.3358C40.2029 48.3512 40.1941 48.3699 40.1772 48.3908C40.1785 48.375 40.1878 48.357 40.2044 48.3358Z" fill="#374C07"/>
<path d="M54.9311 45.7093C54.909 45.7146 54.876 45.7176 54.8374 45.7132C54.8613 45.7062 54.8908 45.7066 54.9311 45.7093Z" fill="#374C07"/>
<path d="M53.043 45.6283C53.029 45.6339 53.005 45.6371 52.9761 45.6335C52.9917 45.6265 53.0123 45.6262 53.043 45.6283Z" fill="#374C07"/>
<path d="M60.3754 48.9888C60.3458 48.9643 60.3245 48.935 60.3036 48.9054C60.2661 48.8521 60.2146 48.8252 60.1505 48.8363C59.9176 48.8764 59.6848 48.9175 59.4525 48.9614C59.3367 48.9833 59.2212 49.0085 59.1072 49.0386C58.7899 49.1224 58.4842 49.2392 58.178 49.3571C57.6898 49.545 57.1931 49.7108 56.7025 49.8926C56.245 50.0621 55.8133 50.287 55.3809 50.5116C54.977 50.7214 54.5672 50.921 54.1517 51.1065C53.8409 51.2452 53.5216 51.3689 53.1974 51.4723C52.9469 51.5521 52.6854 51.6024 52.4184 51.6055C52.3603 51.6062 52.3025 51.6207 52.2444 51.6275C52.2176 51.6307 52.1886 51.6378 52.1639 51.6311C51.9617 51.5764 51.7601 51.5217 51.5862 51.3946C51.3439 51.2176 51.2115 50.9789 51.168 50.6747C51.2492 50.7176 51.3173 50.7846 51.3538 50.8787C51.4661 51.1683 51.6993 51.338 51.9701 51.4419C52.168 51.5179 52.3799 51.5822 52.606 51.5186C52.7352 51.4822 52.8744 51.4828 53.0079 51.4597C53.1045 51.443 53.2001 51.4183 53.2941 51.3904C53.349 51.3742 53.3998 51.3444 53.4526 51.3211C53.4856 51.3065 53.5179 51.2838 53.5523 51.2799C53.7363 51.2587 53.8981 51.1819 54.0563 51.0924C54.0943 51.0709 54.1394 51.0621 54.1809 51.0465C54.2147 51.0339 54.2581 51.0288 54.2796 51.0046C54.3571 50.9178 54.4577 50.8829 54.5651 50.8581C54.5695 50.857 54.5749 50.857 54.5782 50.8544C54.7085 50.7494 54.8648 50.6905 55.0098 50.6116C55.0297 50.6007 55.0471 50.5848 55.0676 50.5758C55.2543 50.494 55.4414 50.4131 55.6284 50.332C55.641 50.3266 55.6543 50.3225 55.6659 50.3154C55.9647 50.1314 56.2933 50.0098 56.6138 49.8728C56.8586 49.7682 57.1137 49.6878 57.3634 49.5947C57.4851 49.5493 57.604 49.4962 57.7263 49.4526C57.8369 49.4131 57.952 49.3863 58.0622 49.3458C58.265 49.2713 58.4648 49.1888 58.6674 49.1139C58.7638 49.0782 58.8639 49.0527 58.9621 49.0221C59.2901 48.92 59.6284 48.8658 59.9641 48.7983C60.086 48.7738 60.1978 48.7986 60.3133 48.8063C60.4097 48.8128 60.4322 48.8811 60.3754 48.9888Z" fill="#374C07"/>
<path d="M51.0965 50.6439C51.0825 50.6626 51.0603 50.6776 51.0494 50.6849C51.0066 50.9801 50.9005 51.2238 50.6284 51.3783C50.6253 51.3509 50.6242 51.3165 50.6391 51.2916C50.7237 51.1496 50.8135 51.0107 50.8982 50.8688C50.9203 50.8318 50.9359 50.789 50.9454 50.7468C50.9633 50.668 51.0061 50.6295 51.0965 50.6439Z" fill="#374C07"/>
<path d="M55.2633 52.8234C55.7303 52.7448 56.1012 52.5228 56.3933 52.1677C56.5459 51.9821 56.6325 51.7617 56.7241 51.5425C56.797 51.3682 56.8049 51.1898 56.802 51.0073C56.7991 50.8203 56.7958 50.6334 56.7928 50.4464C56.7908 50.3237 56.7946 50.3145 56.9086 50.2835C57.1674 50.2132 57.4235 50.1229 57.6871 50.083C58.0658 50.0257 58.4504 50.0216 58.8331 50.0641C58.8628 50.0674 58.9032 50.0763 58.9176 50.0971C58.9763 50.182 59.038 50.2628 59.0856 50.3583C59.1794 50.5463 59.1474 50.7386 59.1529 50.9302C59.1584 51.1215 59.143 51.3102 59.1021 51.5001C58.9976 51.9859 58.7354 52.3693 58.3564 52.6738C57.9905 52.9677 57.5797 53.181 57.1154 53.2757C56.9998 53.2993 56.8808 53.3142 56.763 53.317C56.2702 53.3286 55.7781 53.3141 55.2872 53.2652C55.0255 53.2391 54.7842 53.1496 54.5434 53.0493C54.2097 52.9103 53.9223 52.7089 53.6655 52.4568C53.4814 52.2761 53.3429 52.0661 53.2183 51.833C53.295 51.8028 53.361 51.7768 53.4294 51.7498C53.4572 51.8313 53.4694 51.9224 53.5156 51.9905C53.594 52.1061 53.6812 52.2225 53.7877 52.311C53.9551 52.4501 54.1347 52.5782 54.3227 52.6876C54.4286 52.7492 54.5614 52.7649 54.6826 52.7997C54.7131 52.8084 54.7457 52.8092 54.7768 52.816C54.9345 52.8506 55.0926 52.8583 55.2633 52.8234Z" fill="#EDF9D0"/>
<path d="M45.9356 53.3209C45.6805 53.3129 45.4373 53.3211 45.1983 53.2926C44.8974 53.2567 44.6229 53.1313 44.3529 52.994C44.089 52.8598 43.8617 52.6793 43.6525 52.4765C43.5492 52.3763 43.4719 52.2485 43.3869 52.1303C43.246 51.9344 43.1838 51.7086 43.1291 51.4764C43.0782 51.2605 43.0712 51.0441 43.0611 50.8254C43.0512 50.6125 43.1159 50.4219 43.2009 50.2337C43.2499 50.1252 43.3254 50.0567 43.4509 50.0536C43.5966 50.0501 43.7425 50.0358 43.8879 50.04C44.1065 50.0463 44.3259 50.0559 44.543 50.0811C44.6723 50.0961 44.7981 50.143 44.9252 50.1768C45.0526 50.2107 45.1807 50.2427 45.3065 50.2818C45.4467 50.3253 45.4504 50.3369 45.4434 50.4878C45.4347 50.6747 45.4282 50.8616 45.4199 51.0485C45.4124 51.2147 45.4401 51.3749 45.4934 51.5323C45.67 52.0538 45.9906 52.4547 46.4927 52.6894C46.7854 52.8263 47.0966 52.8715 47.4242 52.8237C47.9072 52.7534 48.2737 52.4926 48.5953 52.1505C48.7181 52.0198 48.7539 51.9222 48.767 51.7517C48.8444 51.7766 48.9197 51.8008 49.0078 51.8291C48.861 52.0807 48.7283 52.3237 48.5046 52.501C48.3655 52.6113 48.2402 52.743 48.09 52.8341C47.6599 53.0948 47.1969 53.267 46.6874 53.2888C46.4413 53.2993 46.1953 53.3102 45.9356 53.3209Z" fill="#EDF9D0"/>
<path d="M56.6405 50.5823C56.6431 50.7372 56.6417 50.8922 56.6488 51.0469C56.6773 51.6716 56.1807 52.432 55.4579 52.6411C54.892 52.8047 54.418 52.6483 53.9867 52.2934C53.8689 52.1965 53.7536 52.0942 53.6614 51.9661C53.5986 51.8787 53.6073 51.8018 53.6261 51.6903C53.7039 51.7461 53.7664 51.7957 53.8335 51.838C53.9793 51.9299 54.1198 52.0354 54.2764 52.1033C54.454 52.1802 54.6491 52.2154 54.832 52.2815C54.964 52.3292 55.0976 52.3346 55.2342 52.3421C55.5297 52.3583 55.7718 52.2365 55.9925 52.059C56.1521 51.9306 56.2537 51.757 56.3418 51.5762C56.381 51.4958 56.4391 51.4196 56.4257 51.3211C56.5653 51.1001 56.565 50.8484 56.5922 50.583C56.6141 50.5709 56.6273 50.5766 56.6405 50.5823Z" fill="#EDF9D0"/>
<path d="M45.5645 51.148C45.5692 50.9701 45.5745 50.8047 45.5798 50.6393C45.5911 50.6384 45.6024 50.6376 45.6137 50.6367C45.6215 50.6739 45.6277 50.7114 45.6373 50.748C45.6985 50.9811 45.7472 51.2185 45.8256 51.4457C45.9175 51.7117 46.068 51.947 46.2992 52.1179C46.482 52.253 46.6849 52.3301 46.9175 52.341C47.2268 52.3555 47.5123 52.2592 47.7971 52.1685C48.0581 52.0855 48.2807 51.9232 48.4971 51.757C48.5151 51.7431 48.5331 51.7291 48.5523 51.7172C48.5592 51.7129 48.5697 51.7147 48.5826 51.7133C48.6272 51.8022 48.6214 51.8848 48.5589 51.966C48.3128 52.2853 48.0008 52.5036 47.6173 52.638C46.8736 52.8986 46.038 52.3999 45.7444 51.7578C45.6574 51.5675 45.5648 51.3776 45.5645 51.148Z" fill="#EDF9D0"/>
<path d="M56.6436 50.5702C56.6277 50.5759 56.6145 50.5702 56.5919 50.5702C56.5825 50.5114 56.5825 50.4469 56.5825 50.3629C56.6694 50.4274 56.6366 50.4988 56.6436 50.5702Z" fill="#EDF9D0"/>
<defs>
<linearGradient id="paint0_linear_1002_2898" x1="2.44007e-07" y1="-2.32831e-07" x2="100" y2="100" gradientUnits="userSpaceOnUse">
<stop stop-color="#D2F189"/>
<stop offset="0.632373" stop-color="#798B4F" stop-opacity="0"/>
</linearGradient>
</defs>
</svg>
