<svg width="100" height="100" viewBox="0 0 100 100" fill="none" xmlns="http://www.w3.org/2000/svg">
<path d="M58.5 3.75278C53.2402 0.716019 46.7598 0.716018 41.5 3.75278L14.1987 19.5152C8.93891 22.5519 5.69873 28.1641 5.69873 34.2376V65.7624C5.69873 71.8359 8.93891 77.4481 14.1987 80.4848L41.5 96.2472C46.7598 99.284 53.2402 99.284 58.5 96.2472L85.8013 80.4848C91.0611 77.4481 94.3013 71.8359 94.3013 65.7624V34.2376C94.3013 28.1641 91.0611 22.5519 85.8013 19.5152L58.5 3.75278Z" fill="#EDF9D0" stroke="url(#paint0_linear_912_2041)" stroke-width="2"/>
<rect x="40" y="48" width="16" height="13" fill="#20251A"/>
<path d="M59.0323 45.8248C59.0782 46.0402 59.0894 46.2583 59.0851 46.4778C59.0844 46.509 59.0878 46.5517 59.1072 46.5695C59.1678 46.6249 59.1542 46.6934 59.1586 46.7609C59.1723 46.975 59.189 47.1889 59.2033 47.4029C59.2068 47.4556 59.2045 47.5086 59.2071 47.5614C59.2142 47.7113 59.222 47.8611 59.2309 48.0108C59.232 48.0304 59.2344 48.0568 59.2469 48.0677C59.3152 48.1277 59.3029 48.2067 59.3037 48.2828C59.3045 48.3683 59.3039 48.4537 59.3045 48.5391C59.3047 48.5676 59.2974 48.6005 59.309 48.6237C59.3748 48.755 59.347 48.895 59.3515 49.0315C59.3559 49.1615 59.3513 49.2919 59.3552 49.422C59.3564 49.4609 59.361 49.5218 59.3842 49.534C59.4613 49.5745 59.45 49.6384 59.4485 49.7013C59.4439 49.8966 59.473 50.0888 59.4921 50.2823C59.5083 50.4476 59.4976 50.6156 59.499 50.7824C59.4995 50.8388 59.4935 50.8942 59.55 50.9364C59.5692 50.9507 59.5713 50.9947 59.5724 51.0254C59.581 51.2769 59.5835 51.5286 59.5959 51.7799C59.606 51.9856 59.6277 52.1908 59.6426 52.3963C59.6459 52.4419 59.6507 52.4814 59.6892 52.516C59.7088 52.5338 59.7145 52.5731 59.7166 52.6033C59.7247 52.7236 59.7088 52.844 59.7607 52.9623C59.7848 53.0173 59.7722 53.0911 59.767 53.1557C59.7505 53.3645 59.8104 53.5568 59.8845 53.7473C59.8989 53.7843 59.9075 53.8247 59.9117 53.8643C59.9232 53.973 59.9308 54.082 59.9402 54.1909C59.9476 54.2756 59.9544 54.3603 59.9633 54.4448C59.9666 54.4764 59.9641 54.5214 59.983 54.5363C60.0454 54.5853 60.0341 54.6492 60.0382 54.7129C60.0429 54.7855 60.0549 54.8576 60.0617 54.9301C60.0707 55.0268 60.0791 55.1236 60.0855 55.2205C60.0944 55.3539 60.1006 55.4875 60.1092 55.621C60.1105 55.6407 60.1116 55.6691 60.124 55.678C60.1968 55.7305 60.1816 55.8062 60.1818 55.8775C60.1826 56.1216 60.1785 56.3658 60.1837 56.6098C60.1878 56.8018 60.1668 56.99 60.1287 57.1774C60.1175 57.2327 60.1123 57.2895 60.1087 57.3458C60.0899 57.6447 60.0899 57.9441 60.0453 58.2424C60.0253 58.3759 59.9616 58.4946 59.9527 58.6289C59.9472 58.7131 59.93 58.7972 59.9119 58.88C59.8894 58.9824 59.8623 59.0838 59.834 59.1848C59.8067 59.2822 59.7799 59.38 59.7449 59.4747C59.6901 59.623 59.6325 59.7706 59.5689 59.9154C59.4826 60.1119 59.4 60.3113 59.2957 60.4983C59.232 60.6127 59.1734 60.7306 59.0878 60.8373C59.0013 60.945 58.9236 61.0653 58.8386 61.1773C58.7041 61.3543 58.5562 61.5188 58.3805 61.6573C58.3234 61.7024 58.2814 61.7688 58.2209 61.8071C58.1058 61.8799 58.0507 62.0202 57.9117 62.0672C57.871 62.0809 57.8462 62.1369 57.8096 62.1683C57.6578 62.2986 57.5064 62.4297 57.3505 62.555C57.2087 62.6691 57.0617 62.7769 56.9161 62.8863C56.6348 63.0975 56.3445 63.296 56.0416 63.4745C55.8605 63.5812 55.6706 63.6728 55.4856 63.773C55.3429 63.8503 55.2032 63.9334 55.0591 64.0081C54.9511 64.0642 54.8391 64.1128 54.7276 64.1619C54.572 64.2303 54.4153 64.2962 54.259 64.3631C54.0245 64.4637 53.7908 64.566 53.5552 64.664C53.4398 64.7119 53.32 64.749 53.2041 64.7959C53.0175 64.8714 52.8378 64.97 52.6453 65.0236C52.4477 65.0787 52.2726 65.1817 52.08 65.2448C51.9038 65.3026 51.7339 65.3793 51.5579 65.4379C51.4326 65.4797 51.3022 65.5059 51.1738 65.5379C50.9536 65.5928 50.7329 65.6454 50.513 65.7014C50.2849 65.7595 50.0539 65.798 49.8197 65.82C49.6949 65.8317 49.5654 65.8343 49.4477 65.8716C49.2467 65.9354 49.0431 65.9375 48.8373 65.9426C48.6917 65.9462 48.5462 65.9648 48.4008 65.9635C48.2063 65.9617 48.012 65.9477 47.8177 65.9375C47.7898 65.9361 47.7601 65.9314 47.735 65.9199C47.5651 65.8419 47.3796 65.847 47.2007 65.8189C47.073 65.7989 46.9409 65.8023 46.8154 65.7743C46.4562 65.6941 46.0961 65.6144 45.7427 65.5126C45.5123 65.4462 45.2743 65.3957 45.0596 65.2783C45.0039 65.2478 44.9358 65.2408 44.8751 65.2183C44.615 65.1219 44.3614 65.0091 44.1055 64.9026C44.008 64.8621 43.9079 64.8348 43.8104 64.7979C43.6339 64.7311 43.4625 64.6498 43.2842 64.5886C43.1481 64.5419 43.0302 64.443 42.8766 64.4452C42.8599 64.4454 42.8433 64.4241 42.826 64.4138C42.7842 64.389 42.7448 64.3566 42.6996 64.3418C42.5311 64.2864 42.377 64.2031 42.2219 64.1185C42.0733 64.0374 41.9123 63.9794 41.7609 63.9031C41.6427 63.8436 41.5307 63.7718 41.4162 63.7051C41.3411 63.6614 41.2672 63.6155 41.1912 63.5732C41.1138 63.5301 41.0329 63.493 40.9564 63.4484C40.7918 63.3524 40.6288 63.2534 40.4656 63.1548C40.4527 63.147 40.4421 63.1342 40.4329 63.122C40.4234 63.1093 40.4168 63.0822 40.409 63.0823C40.2789 63.0828 40.2398 62.9532 40.1463 62.8984C39.9833 62.8029 39.8235 62.6934 39.6877 62.5632C39.5883 62.4679 39.4744 62.3957 39.3726 62.3063C39.2967 62.2395 39.2181 62.1759 39.1418 62.1095C39.0453 62.0253 38.9492 61.9406 38.8546 61.8544C38.8133 61.8167 38.7768 61.7738 38.7368 61.7345C38.603 61.6033 38.4688 61.4725 38.3345 61.3418C38.3142 61.3221 38.2927 61.3034 38.271 61.2851C38.2556 61.2722 38.2271 61.2629 38.2244 61.2483C38.1981 61.1045 38.0696 61.035 37.9924 60.9291C37.8841 60.7805 37.7941 60.6246 37.7218 60.4565C37.6774 60.3531 37.6231 60.254 37.5758 60.1518C37.4709 59.9252 37.3455 59.7065 37.3026 59.4555C37.1836 59.2872 37.1879 59.0788 37.1233 58.8923C37.0548 58.6945 37.0207 58.4846 36.973 58.2797C36.9667 58.2524 36.9662 58.2232 36.9668 58.1949C36.9695 58.0688 36.956 57.9462 36.9289 57.8217C36.9016 57.6962 36.8988 57.5643 36.8944 57.4349C36.8826 57.09 36.8744 56.745 36.8677 56.3999C36.8644 56.2332 36.8625 56.0661 36.8695 55.8996C36.8754 55.7584 36.8955 55.6178 36.908 55.4768C36.9126 55.4243 36.9137 55.3715 36.9162 55.3188C36.9197 55.2466 36.9072 55.1726 36.9554 55.1072C36.968 55.0903 36.9675 55.0599 36.9654 55.0364C36.9442 54.8022 37.0155 54.5794 37.0482 54.3519C37.0694 54.2039 37.0904 54.0558 37.1116 53.9079C37.1145 53.888 37.1114 53.8605 37.1232 53.8498C37.197 53.7829 37.1816 53.6953 37.187 53.6111C37.1901 53.563 37.2024 53.5155 37.2114 53.4679C37.2181 53.4322 37.2325 53.3968 37.2324 53.3613C37.2322 53.2583 37.2466 53.1628 37.3019 53.0706C37.3287 53.0258 37.3281 52.9608 37.3289 52.9049C37.3314 52.7142 37.3291 52.5237 37.3752 52.3362C37.3857 52.2938 37.3786 52.2471 37.3802 52.2025C37.383 52.1269 37.372 52.0504 37.4282 51.9835C37.449 51.9587 37.4522 51.9146 37.4537 51.8789C37.4629 51.6641 37.4676 51.4491 37.4771 51.2342C37.4836 51.0847 37.4959 50.9354 37.5046 50.786C37.5125 50.6484 37.5193 50.5108 37.5261 50.3731C37.5282 50.3289 37.5282 50.2891 37.5625 50.2494C37.5882 50.2196 37.596 50.1682 37.5982 50.1257C37.6035 50.0242 37.5982 49.9222 37.6018 49.8206C37.6048 49.7358 37.6151 49.6512 37.6208 49.5664C37.6312 49.413 37.6418 49.2595 37.6501 49.106C37.6538 49.0375 37.6574 48.9767 37.7011 48.9123C37.7383 48.8575 37.7392 48.7736 37.7435 48.7019C37.7502 48.5883 37.7413 48.4738 37.7483 48.3603C37.7573 48.2152 37.7792 48.0709 37.7884 47.9258C37.7962 47.8042 37.7911 47.6818 37.7975 47.56C37.7999 47.514 37.8188 47.4689 37.8297 47.4233C37.8353 47.4 37.8415 47.3767 37.8444 47.3531C37.8468 47.333 37.8444 47.3124 37.845 47.2921C37.8499 47.1196 37.839 46.9491 37.8884 46.7765C37.9591 46.5291 37.9415 46.2696 37.9397 46.0142C37.9393 45.951 37.9477 45.8934 37.9957 45.8314C38.0252 45.8114 38.0455 45.8041 38.0588 45.7902C38.193 45.6489 38.3363 45.5148 38.4567 45.3625C38.6085 45.1706 38.774 44.9924 38.9533 44.8281C39.06 44.7303 39.1799 44.6424 39.306 44.5714C39.479 44.4739 39.6628 44.3953 39.8433 44.3114C40.0159 44.2311 40.1857 44.1414 40.3648 44.0793C40.6129 43.9933 40.8671 43.9233 41.1215 43.8574C41.5014 43.7589 41.8827 43.6644 42.2657 43.5789C42.5613 43.5128 42.8601 43.4608 43.1582 43.4071C43.321 43.3777 43.4852 43.3548 43.6493 43.3343C43.8177 43.3134 43.9873 43.3028 44.1555 43.2808C44.3635 43.2535 44.5704 43.2176 44.7782 43.1881C45.086 43.1444 45.3962 43.1144 45.7013 43.0568C45.9081 43.0177 46.1181 43.0186 46.3251 42.9742C46.5087 42.9348 46.7042 42.9442 46.8944 42.9438C47.9726 42.9415 49.0508 42.9427 50.129 42.9428C50.1615 42.9428 50.1942 42.9416 50.2265 42.9444C50.3996 42.9594 50.5725 42.9763 50.7455 42.9909C50.8664 43.0011 50.9882 43.0038 51.1085 43.0186C51.3449 43.0476 51.5806 43.0819 51.8164 43.1155C52.0362 43.1469 52.2554 43.1823 52.4753 43.2123C52.7833 43.2544 53.0916 43.2934 53.3999 43.3333C53.6002 43.3592 53.8029 43.3727 54.0003 43.4124C54.4164 43.4961 54.8308 43.5894 55.2441 43.6862C55.5512 43.758 55.8567 43.8374 56.1607 43.9215C56.3598 43.9765 56.561 44.0318 56.7507 44.1119C57.0457 44.2363 57.3338 44.3775 57.6208 44.5199C57.844 44.6306 58.0384 44.7854 58.2106 44.9645C58.3565 45.1163 58.494 45.2764 58.6331 45.4346C58.7213 45.5348 58.8047 45.6394 58.8926 45.7399C58.9294 45.782 58.9649 45.8309 59.0323 45.8248ZM45.3485 48.1209C45.3372 48.1225 45.3259 48.1242 45.2923 48.1215C45.0124 48.1343 44.7325 48.1466 44.4526 48.16C44.3512 48.1649 44.2499 48.1728 44.1486 48.1787C43.8203 48.1977 43.4922 48.228 43.1638 48.2321C42.7485 48.2373 42.339 48.258 41.9331 48.3648C41.3371 48.5216 40.7633 48.7308 40.2168 49.015C40.1634 49.0428 40.1158 49.0816 40.0486 49.1191C39.8733 49.2157 39.7207 49.3426 39.5784 49.4815C39.3692 49.6857 39.1873 49.9138 39.0161 50.15C38.938 50.2577 38.8679 50.371 38.7811 50.4877C38.7728 50.5037 38.7645 50.5198 38.744 50.5482C38.7035 50.6231 38.663 50.698 38.6085 50.7805C38.5924 50.8128 38.5762 50.8451 38.5494 50.8891C38.5404 50.9134 38.5315 50.9377 38.5084 50.973C38.4825 51.0399 38.4493 51.1051 38.4328 51.1743C38.419 51.2326 38.4267 51.2957 38.421 51.3563C38.4136 51.4336 38.4428 51.4901 38.5075 51.5313C38.5692 51.5705 38.6333 51.6072 38.6902 51.6527C38.988 51.8909 39.2333 52.1769 39.4455 52.4925C39.5522 52.651 39.6528 52.8145 39.771 52.9639C39.8735 53.0934 39.9972 53.2061 40.1152 53.3388C40.1282 53.3494 40.1412 53.3601 40.1604 53.3866C40.2581 53.4951 40.351 53.6083 40.4545 53.7108C40.6419 53.8964 40.838 54.0731 41.0262 54.2579C41.3835 54.6086 41.7984 54.8592 42.2806 54.9977C42.4319 55.0412 42.5811 55.0916 42.755 55.1414C42.9609 55.1524 43.1577 55.2172 43.3649 55.2336C43.638 55.2553 43.9076 55.2433 44.1752 55.21C44.4175 55.1798 44.6602 55.1371 44.8933 55.0538C45.0708 54.9903 45.2543 54.9432 45.4314 54.8786C45.5489 54.8357 45.6606 54.7764 45.7736 54.7216C45.8531 54.6831 45.9365 54.651 45.9906 54.5717C46.0093 54.5442 46.0499 54.5317 46.0951 54.5054C46.1521 54.4745 46.2092 54.4438 46.266 54.4126C46.3471 54.3682 46.4253 54.3173 46.5095 54.2796C46.8918 54.1085 47.2926 54.0056 47.7112 53.9892C48.0686 53.9751 48.4267 53.9754 48.7845 53.9731C49.1138 53.971 49.4412 53.9789 49.7676 54.0441C50.184 54.1273 50.5713 54.2711 50.9413 54.5099C51.0798 54.586 51.2154 54.6682 51.3574 54.7371C51.6341 54.8713 51.9134 55.0002 52.2117 55.082C52.5605 55.1777 52.9156 55.2334 53.2766 55.2435C53.4258 55.2477 53.5758 55.2226 53.7253 55.2242C53.9153 55.2263 54.0903 55.1586 54.2926 55.1234C54.5027 55.0619 54.7134 55.0025 54.9227 54.9384C55.2303 54.8443 55.5038 54.6854 55.7498 54.4809C55.8934 54.3616 56.0286 54.232 56.1663 54.1058C56.2921 53.9905 56.4209 53.8778 56.5401 53.7559C56.6903 53.6023 56.8265 53.4348 56.979 53.2837C57.1885 53.0761 57.3575 52.8388 57.5191 52.5947C57.783 52.196 58.0714 51.8197 58.4841 51.5604C58.5974 51.4892 58.632 51.3954 58.5934 51.2518C58.5918 51.2329 58.5902 51.2139 58.5936 51.1756C58.592 51.1514 58.5971 51.1242 58.5877 51.1035C58.527 50.9708 58.476 50.8313 58.3978 50.7094C58.2335 50.4534 58.0611 50.202 57.8799 49.9577C57.5533 49.5174 57.1516 49.1634 56.6513 48.9277C56.1133 48.6742 55.5571 48.474 54.9774 48.3385C54.663 48.2649 54.3438 48.2416 54.0229 48.2296C53.6213 48.2146 53.2197 48.2001 52.8182 48.184C52.5221 48.1722 52.226 48.1582 51.9106 48.1411C51.8843 48.1407 51.858 48.1404 51.8126 48.1342C51.7052 48.13 51.5979 48.1257 51.4689 48.1172C51.4027 48.117 51.3365 48.1169 51.2502 48.112C51.0942 48.1071 50.9382 48.1023 50.7612 48.0935C50.7109 48.0927 50.6606 48.0919 50.5911 48.0857C50.4759 48.0813 50.3607 48.0769 50.2275 48.0682C50.2091 48.0685 50.1908 48.0687 50.1537 48.062C49.9142 48.0501 49.6748 48.0383 49.4353 48.0262C49.2323 48.016 49.0286 48.0125 48.8264 47.9932C48.6107 47.9725 48.3971 47.9674 48.1818 47.9961C48.0572 48.0127 47.9308 48.0196 47.8051 48.0226C47.6018 48.0274 47.3981 48.0201 47.195 48.0279C47.0332 48.0342 46.8721 48.0555 46.691 48.0681C46.6715 48.0701 46.652 48.0721 46.6105 48.0706C46.5047 48.0775 46.3989 48.0845 46.2707 48.0888C46.1966 48.0919 46.1225 48.0949 46.0256 48.0945C45.87 48.102 45.7144 48.1095 45.5381 48.1145C45.5037 48.1167 45.4693 48.1189 45.4254 48.1137C45.4054 48.1171 45.3855 48.1205 45.3485 48.1209Z" fill="#212D04"/>
<path d="M39.0122 44.311C39.1183 44.1445 39.1993 43.9657 39.2601 43.7787C39.286 43.6988 39.3126 43.622 39.3566 43.5492C39.3847 43.5027 39.3946 43.444 39.4068 43.3894C39.414 43.3574 39.4257 43.3388 39.4505 43.3137C39.4892 43.2748 39.5025 43.211 39.5273 43.1581C39.589 43.0265 39.6536 42.8962 39.7122 42.7633C39.7479 42.6824 39.7685 42.5953 39.8402 42.5332C39.8589 42.517 39.8674 42.4822 39.8694 42.4552C39.8723 42.415 39.8784 42.3828 39.9243 42.3739C39.9279 42.3732 39.9331 42.3699 39.9339 42.3669C39.9726 42.2102 40.1403 42.1254 40.1611 41.9588C40.1621 41.951 40.1626 41.9394 40.1675 41.9362C40.3018 41.8512 40.3414 41.6889 40.4542 41.5855C40.4851 41.5572 40.4982 41.5102 40.5234 41.4745C40.6187 41.3401 40.7184 41.2087 40.8113 41.0727C40.902 40.9399 41.0126 40.8243 41.1227 40.7093C41.3269 40.4959 41.5366 40.2877 41.7483 40.0818C41.7905 40.0408 41.8555 40.0243 41.9044 39.9887C42.0768 39.8632 42.2474 39.7353 42.417 39.6061C42.4583 39.5748 42.4916 39.5332 42.5318 39.5003C42.5689 39.4699 42.6077 39.439 42.6506 39.4188C42.6948 39.3981 42.7431 39.3882 42.7643 39.3363C42.7684 39.3261 42.7805 39.318 42.7906 39.3117C42.8927 39.2476 42.9973 39.1872 43.0971 39.1196C43.2933 38.9868 43.5074 38.8837 43.6986 38.7415C43.8067 38.6611 43.9355 38.6087 44.0536 38.5411C44.1553 38.483 44.2544 38.4203 44.3557 38.3615C44.4599 38.301 44.5644 38.2408 44.6707 38.1842C44.7551 38.1393 44.8512 38.1116 44.9263 38.0553C45.017 37.9872 45.123 37.9631 45.2209 37.9169C45.2454 37.9053 45.2692 37.892 45.2936 37.8802C45.3547 37.8509 45.4135 37.8128 45.4778 37.7955C45.5403 37.7786 45.6044 37.7743 45.6545 37.7254C45.6677 37.7124 45.6912 37.7077 45.7108 37.7038C45.8524 37.6751 45.9777 37.6048 46.1104 37.553C46.2898 37.4829 46.4441 37.3736 46.603 37.2702C46.7207 37.1937 46.8406 37.1205 46.9567 37.0415C46.9992 37.0127 47.0325 36.9706 47.0716 36.9363C47.2376 36.7905 47.4006 36.641 47.5719 36.5015C47.6645 36.4261 47.7712 36.3682 47.872 36.3031C47.8817 36.2969 47.9 36.3002 47.906 36.2926C47.9882 36.1881 48.1011 36.1741 48.2233 36.1751C48.2608 36.1753 48.3104 36.1598 48.3333 36.1332C48.371 36.0896 48.4123 36.0788 48.4624 36.0836C48.5369 36.0906 48.6138 36.0634 48.6857 36.1172C48.7284 36.1492 48.7875 36.1724 48.8404 36.1748C48.9175 36.1784 48.9819 36.2066 49.0475 36.2388C49.2379 36.3323 49.4139 36.4434 49.5613 36.6008C49.6461 36.6912 49.753 36.7604 49.8467 36.8429C50.0135 36.9897 50.188 37.127 50.3747 37.2466C50.5652 37.3686 50.7614 37.4802 50.9677 37.5771C51.184 37.6786 51.4171 37.7316 51.6317 37.8343C51.7301 37.8813 51.831 37.9232 51.9281 37.9728C52.2566 38.1406 52.5948 38.291 52.8988 38.5037C52.9054 38.5084 52.912 38.5138 52.9195 38.5164C53.1284 38.5873 53.3016 38.7212 53.4855 38.8365C53.6396 38.9329 53.8004 39.0194 53.9496 39.1226C54.1556 39.2651 54.3633 39.405 54.5553 39.5684C54.6995 39.6911 54.868 39.7849 55.0238 39.8943C55.1632 39.9922 55.2902 40.1042 55.4094 40.2269C55.5334 40.3546 55.6833 40.459 55.7966 40.5947C55.9401 40.7665 56.1406 40.8879 56.2385 41.1006C56.264 41.1562 56.2942 41.2191 56.3681 41.2384C56.3825 41.2422 56.3901 41.2762 56.3987 41.2972C56.4277 41.3685 56.4503 41.4436 56.5266 41.4829C56.5401 41.4899 56.5548 41.5034 56.5596 41.5171C56.609 41.6568 56.7211 41.7541 56.7967 41.8748C56.8487 41.9578 56.9341 42.0274 56.9404 42.1375C56.9412 42.1515 56.9545 42.1668 56.9656 42.178C57.0764 42.2899 57.1373 42.4317 57.2067 42.5693C57.2735 42.7017 57.3519 42.8284 57.4183 42.961C57.4684 43.0609 57.5085 43.1659 57.5516 43.2693C57.5804 43.3385 57.5968 43.4143 57.6678 43.4582C57.6776 43.4643 57.6803 43.4833 57.6845 43.4969C57.6932 43.5251 57.6995 43.5541 57.7093 43.582C57.7131 43.5929 57.7305 43.602 57.7299 43.6111C57.7208 43.7579 57.8414 43.8556 57.8707 43.9872C57.8749 44.006 57.8724 44.0262 57.8728 44.0458C57.8733 44.0655 57.8667 44.0984 57.8751 44.1027C57.9451 44.139 57.9371 44.2109 57.9512 44.2772C57.886 44.2734 57.823 44.2719 57.7693 44.2488C57.5651 44.1609 57.3683 44.0544 57.1606 43.9764C56.8653 43.8655 56.5646 43.7681 56.2629 43.6753C56.0857 43.6208 55.9021 43.587 55.7215 43.5428C55.2897 43.4372 54.8582 43.3299 54.426 43.2257C54.2885 43.1925 54.1498 43.1636 54.0106 43.1389C53.8716 43.1142 53.7312 43.0979 53.5915 43.0768C53.4079 43.0491 53.2247 43.0186 53.0409 42.9924C52.9132 42.9741 52.7845 42.9622 52.6566 42.9454C52.5365 42.9296 52.4167 42.9109 52.2968 42.8939C52.149 42.8728 52.0011 42.8524 51.8533 42.831C51.6616 42.8034 51.4703 42.7721 51.2781 42.7479C51.1099 42.7267 50.9408 42.7113 50.7718 42.6964C50.5747 42.679 50.3773 42.6525 50.1799 42.6516C49.1835 42.647 48.187 42.6475 47.1905 42.6505C46.8905 42.6514 46.5906 42.6658 46.2906 42.6741C46.2784 42.6745 46.2662 42.6749 46.2541 42.6765C46.0822 42.6998 45.9102 42.7223 45.7385 42.747C45.5348 42.7763 45.3314 42.8074 45.128 42.8381C45.0082 42.8562 44.8888 42.8775 44.7687 42.8928C44.6085 42.9132 44.4471 42.9255 44.2872 42.9479C44.0315 42.9837 43.7765 43.0246 43.5213 43.064C43.246 43.1065 42.969 43.1403 42.6962 43.195C42.403 43.2537 42.1135 43.331 41.823 43.403C41.7091 43.4312 41.5978 43.4698 41.484 43.4988C41.1981 43.5714 40.9094 43.6338 40.6257 43.714C40.177 43.8409 39.7471 44.0198 39.3193 44.2043C39.2205 44.2468 39.1282 44.3153 39.0122 44.311Z" fill="#212D04"/>
<path d="M39.0073 44.3173C39.1283 44.3156 39.2206 44.2471 39.3194 44.2045C39.7472 44.0201 40.1771 43.8411 40.6258 43.7143C40.9095 43.6341 41.1982 43.5717 41.484 43.499C41.5978 43.4701 41.7092 43.4315 41.8231 43.4032C42.1135 43.3313 42.4031 43.254 42.6962 43.1952C42.9691 43.1405 43.2461 43.1067 43.5214 43.0642C43.7766 43.0249 44.0316 42.9839 44.2873 42.9481C44.4472 42.9257 44.6085 42.9135 44.7688 42.8931C44.8889 42.8778 45.0083 42.8564 45.1281 42.8383C45.3315 42.8076 45.5349 42.7765 45.7386 42.7472C45.9103 42.7225 46.0823 42.7 46.2542 42.6768C46.2663 42.6751 46.2785 42.6747 46.2907 42.6744C46.5907 42.6661 46.8906 42.6517 47.1906 42.6508C48.1871 42.6478 49.1835 42.6472 50.18 42.6518C50.3774 42.6527 50.5748 42.6792 50.7719 42.6966C50.9409 42.7115 51.1099 42.7269 51.2782 42.7481C51.4703 42.7724 51.6616 42.8036 51.8534 42.8313C52.0012 42.8526 52.1491 42.873 52.2969 42.8941C52.4168 42.9112 52.5365 42.9298 52.6566 42.9456C52.7846 42.9624 52.9133 42.9744 53.041 42.9926C53.2248 43.0188 53.408 43.0493 53.5916 43.0771C53.7312 43.0982 53.8717 43.1145 54.0107 43.1391C54.1499 43.1638 54.2886 43.1928 54.426 43.2259C54.8583 43.3301 55.2897 43.4374 55.7216 43.5431C55.9021 43.5872 56.0857 43.621 56.263 43.6756C56.5646 43.7683 56.8654 43.8657 57.1607 43.9767C57.3684 44.0547 57.5652 44.1611 57.7694 44.249C57.8231 44.2721 57.8861 44.2736 57.9558 44.2846C58.1864 44.408 58.3757 44.5685 58.5356 44.7628C58.6563 44.9094 58.7783 45.0554 58.8908 45.2083C58.982 45.3321 59.0601 45.4645 59.036 45.6317C59.028 45.6873 59.0345 45.7451 59.0331 45.8135C58.9647 45.831 58.9291 45.7821 58.8923 45.74C58.8044 45.6395 58.7211 45.535 58.6329 45.4347C58.4937 45.2765 58.3563 45.1165 58.2103 44.9647C58.0381 44.7855 57.8438 44.6308 57.6205 44.52C57.3336 44.3777 57.0454 44.2364 56.7505 44.112C56.5607 44.032 56.3596 43.9766 56.1604 43.9216C55.8564 43.8376 55.5509 43.7582 55.2438 43.6863C54.8305 43.5895 54.4162 43.4962 54.0001 43.4126C53.8026 43.3729 53.5999 43.3593 53.3996 43.3334C53.0914 43.2935 52.783 43.2545 52.4751 43.2125C52.2551 43.1824 52.0359 43.147 51.8161 43.1157C51.5803 43.082 51.3446 43.0478 51.1082 43.0187C50.9879 43.004 50.8662 43.0013 50.7453 42.9911C50.5722 42.9764 50.3993 42.9595 50.2263 42.9445C50.1939 42.9417 50.1612 42.9429 50.1287 42.9429C49.0505 42.9428 47.9723 42.9416 46.8942 42.9439C46.7039 42.9443 46.5085 42.9349 46.3249 42.9743C46.1178 43.0187 45.9079 43.0178 45.701 43.0569C45.3959 43.1145 45.0857 43.1446 44.7779 43.1883C44.5702 43.2178 44.3633 43.2537 44.1552 43.2809C43.9871 43.303 43.8174 43.3135 43.6491 43.3345C43.4849 43.3549 43.3208 43.3779 43.158 43.4072C42.8598 43.461 42.561 43.513 42.2655 43.579C41.8824 43.6646 41.5012 43.7591 41.1212 43.8575C40.8668 43.9234 40.6127 43.9935 40.3646 44.0794C40.1854 44.1415 40.0156 44.2312 39.843 44.3115C39.6625 44.3954 39.4788 44.4741 39.3057 44.5715C39.1797 44.6425 39.0597 44.7304 38.953 44.8282C38.7737 44.9925 38.6083 45.1707 38.4564 45.3627C38.336 45.5149 38.1927 45.6491 38.0586 45.7903C38.0453 45.8043 38.0249 45.8115 37.9995 45.823C37.9907 45.7674 37.9909 45.7106 37.9895 45.6539C37.9847 45.4588 38.0604 45.2945 38.1795 45.1452C38.247 45.0607 38.3075 44.9706 38.3749 44.8861C38.4047 44.8487 38.4444 44.8194 38.4786 44.7854C38.5728 44.6917 38.6627 44.5934 38.7615 44.5049C38.8361 44.438 38.9217 44.3835 39.0073 44.3173Z" fill="#212D04"/>
<path d="M38.6225 50.773C38.663 50.6981 38.7035 50.6232 38.7572 50.5402C38.7784 50.5154 38.7862 50.4987 38.7941 50.482C38.8678 50.3712 38.938 50.2578 39.016 50.1502C39.1873 49.9139 39.3691 49.6858 39.5784 49.4816C39.7207 49.3428 39.8732 49.2159 40.057 49.1267C40.0621 49.1673 40.059 49.2006 40.054 49.2521C40.107 49.2285 40.1435 49.2132 40.1791 49.1963C40.3694 49.1056 40.5583 49.0118 40.7502 48.9248C40.8571 48.8763 40.9684 48.8372 41.0788 48.7966C41.3103 48.7116 41.5381 48.6159 41.7838 48.5742C41.9109 48.5527 42.036 48.5189 42.1617 48.489C42.3198 48.4515 42.4785 48.4196 42.6423 48.4361C42.6985 48.4418 42.7541 48.4577 42.8102 48.4585C43.1182 48.4634 43.4259 48.4637 43.7322 48.4174C43.8294 48.4028 43.9311 48.4153 44.0306 48.4188C44.0827 48.4206 44.1352 48.4379 44.1866 48.4343C44.3639 48.4218 44.5409 48.4058 44.7176 48.3863C44.8899 48.3672 45.0615 48.3412 45.2337 48.3203C45.3775 48.3028 45.5179 48.2848 45.6674 48.3043C45.8329 48.3258 46.005 48.3365 46.1745 48.3088C46.2819 48.2912 46.3899 48.2745 46.4983 48.2665C46.5831 48.2602 46.6692 48.2635 46.7541 48.27C46.903 48.2815 47.0511 48.306 47.2001 48.3121C47.4676 48.323 47.7342 48.3028 47.9995 48.2663C48.0755 48.2558 48.152 48.2432 48.2283 48.2427C48.321 48.242 48.4137 48.2566 48.5064 48.2579C48.5825 48.2591 48.6598 48.2403 48.7348 48.248C49.0294 48.2781 49.3242 48.294 49.6204 48.2899C49.8644 48.2866 50.1087 48.2846 50.3526 48.2911C50.4854 48.2946 50.6173 48.3241 50.7501 48.3293C50.9201 48.336 51.0907 48.3315 51.261 48.3289C51.3743 48.3272 51.4882 48.31 51.6004 48.3184C51.8055 48.3338 52.009 48.3705 52.2141 48.3846C52.4567 48.4011 52.7002 48.4026 52.9433 48.4117C53.0113 48.4142 53.0807 48.432 53.1469 48.423C53.3828 48.3912 53.6154 48.4244 53.8494 48.443C53.9531 48.4513 54.058 48.4443 54.1624 48.4446C54.304 48.4451 54.449 48.4272 54.5864 48.4518C54.7158 48.475 54.843 48.4866 54.9727 48.4837C55.0433 48.4821 55.1077 48.4654 55.1742 48.5233C55.2185 48.562 55.2942 48.5745 55.3574 48.5798C55.5976 48.5997 55.8263 48.6626 56.0471 48.7546C56.2337 48.8325 56.4209 48.9106 56.6006 49.0029C56.7982 49.1044 56.9911 49.2168 57.17 49.3493C57.2576 49.4142 57.3384 49.4893 57.4163 49.5659C57.4877 49.6362 57.5526 49.7134 57.6176 49.7899C57.7067 49.8948 57.7988 49.9978 57.8795 50.1089C58.0006 50.2758 58.1106 50.4506 58.2298 50.6189C58.3535 50.7937 58.4625 50.975 58.5175 51.1883C58.5405 51.1905 58.5645 51.1928 58.5885 51.1951C58.5901 51.2141 58.5918 51.233 58.586 51.2672C58.5735 51.345 58.5107 51.3446 58.4759 51.374C58.2694 51.549 58.0592 51.7198 57.8793 51.9236C57.8124 51.9995 57.7396 52.0713 57.6808 52.1531C57.5817 52.2908 57.4891 52.4334 57.3981 52.5767C57.1727 52.9319 56.8707 53.2219 56.5883 53.528C56.4374 53.6916 56.2673 53.8375 56.1041 53.9896C56.0843 54.008 56.0538 54.0148 56.0283 54.027C56.02 54.0207 56.0116 54.0143 56.0033 54.008C56.0137 53.9503 56.0155 53.8893 56.036 53.8355C56.0965 53.6765 56.167 53.5214 56.2287 53.3629C56.2829 53.2235 56.3323 53.0822 56.3809 52.9407C56.4506 52.738 56.5166 52.534 56.5861 52.3313C56.6104 52.2606 56.6305 52.1943 56.5845 52.1223C56.5602 52.0844 56.5601 52.0392 56.5957 51.9988C56.6894 51.8925 56.7082 51.7611 56.7165 51.6262C56.7198 51.5741 56.7304 51.5225 56.7339 51.4704C56.7351 51.4525 56.725 51.4338 56.7191 51.4059C56.768 51.2933 56.7826 51.1849 56.7754 51.0675C56.826 50.9715 56.806 50.9105 56.7201 50.9048C56.6171 50.8979 56.5174 50.8758 56.4087 50.8977C56.1093 50.9578 55.8076 51.0062 55.5152 51.0972C55.4275 51.1245 55.3383 51.1473 55.2523 51.1791C55.0716 51.2458 54.8935 51.3194 54.7126 51.3859C54.6144 51.4219 54.5117 51.4459 54.4131 51.4811C54.3041 51.52 54.1981 51.5674 54.0895 51.6078C53.8668 51.6909 53.6393 51.7625 53.4211 51.8558C53.1352 51.978 52.8422 52.0864 52.5757 52.2505C52.5655 52.2569 52.5535 52.2605 52.5424 52.2653C52.3756 52.3377 52.2087 52.4097 52.0422 52.4827C52.0239 52.4908 52.0084 52.505 51.9907 52.5146C51.8614 52.585 51.722 52.6375 51.6058 52.7311C51.6029 52.7335 51.5981 52.7335 51.5941 52.7344C51.4984 52.7566 51.4086 52.7877 51.3395 52.8651C51.3203 52.8866 51.2817 52.8912 51.2515 52.9025C51.2145 52.9164 51.1743 52.9242 51.1404 52.9434C50.9993 53.0232 50.855 53.0917 50.691 53.1106C50.6603 53.1141 50.6315 53.1343 50.6021 53.1473C50.555 53.1681 50.5097 53.1946 50.4608 53.2091C50.3769 53.234 50.2916 53.2561 50.2055 53.2709C50.0865 53.2915 49.9624 53.291 49.8471 53.3234C49.6455 53.3802 49.4566 53.3228 49.28 53.2551C49.0386 53.1624 48.8306 53.011 48.7305 52.7529C48.6979 52.6689 48.6372 52.6091 48.5537 52.5595C48.5322 52.5541 48.5201 52.5504 48.5006 52.5434C48.42 52.5305 48.3819 52.5648 48.3659 52.6351C48.3574 52.6727 48.3435 52.7109 48.3238 52.7439C48.2482 52.8704 48.1682 52.9943 48.0927 53.1209C48.0795 53.1432 48.0804 53.1738 48.0715 53.2085C47.9622 53.2802 47.8571 53.346 47.7277 53.3639C47.6671 53.3587 47.6044 53.3788 47.5585 53.3593C47.4001 53.2919 47.2278 53.2833 47.0673 53.23C46.869 53.1641 46.6714 53.0952 46.477 53.0185C46.2061 52.9116 45.9325 52.8085 45.6708 52.6816C45.262 52.4834 44.8627 52.2658 44.4584 52.0583C44.322 51.9882 44.1852 51.9177 44.044 51.8585C43.846 51.7757 43.6435 51.7036 43.4432 51.6264C43.2847 51.5654 43.1275 51.5011 42.9681 51.4428C42.7593 51.3665 42.5472 51.2993 42.3398 51.2196C42.0264 51.0991 41.7129 50.9808 41.3808 50.9218C41.238 50.8964 41.0954 50.865 40.9513 50.852C40.7908 50.8376 40.6288 50.8414 40.4674 50.8362C40.4366 50.8352 40.4024 50.8363 40.3759 50.8236C40.325 50.7992 40.2803 50.8162 40.2572 50.8526C40.2159 50.918 40.1631 50.9839 40.2184 51.0741C40.2498 51.1253 40.2584 51.194 40.2075 51.2424C40.1382 51.3082 40.1548 51.3865 40.1761 51.4571C40.2369 51.6587 40.3067 51.8576 40.3744 52.0571C40.4539 52.291 40.5317 52.5255 40.6162 52.7576C40.7182 53.0382 40.793 53.3289 40.9343 53.5951C41.0176 53.7521 41.0932 53.9133 41.1705 54.0735C41.1795 54.092 41.1776 54.1158 41.1852 54.1679C41.1224 54.1315 41.0768 54.1149 41.0441 54.0845C40.9233 53.9722 40.7759 53.891 40.6774 53.7513C40.6079 53.6526 40.5142 53.5714 40.4392 53.476C40.3333 53.3414 40.3092 53.3287 40.1541 53.3709C40.1411 53.3602 40.1281 53.3496 40.1148 53.3232C40.1447 53.244 40.1443 53.1913 40.0687 53.1587C40.029 53.1416 39.9909 53.1198 39.9547 53.0961C39.9329 53.0818 39.9125 53.0623 39.898 53.0408C39.8739 53.0051 39.8529 52.9669 39.8343 52.9279C39.7991 52.8541 39.7342 52.8055 39.685 52.7439C39.6079 52.6475 39.5419 52.5424 39.4695 52.4421C39.3796 52.3175 39.2747 52.2016 39.2002 52.0686C39.0855 51.8636 38.9441 51.6886 38.7544 51.5494C38.6231 51.453 38.5532 51.3205 38.5504 51.1533C38.5493 51.0894 38.5322 51.0258 38.5225 50.9621C38.5314 50.9378 38.5404 50.9135 38.5624 50.8814C38.5911 50.8401 38.6068 50.8065 38.6225 50.773Z" fill="#A5E314"/>
<path d="M58.5907 51.1852C58.5642 51.1926 58.5402 51.1903 58.5172 51.1881C58.4622 50.9747 58.3532 50.7935 58.2295 50.6187C58.1103 50.4504 58.0003 50.2755 57.8792 50.1087C57.7985 49.9976 57.7064 49.8946 57.6173 49.7897C57.5523 49.7132 57.4874 49.6359 57.416 49.5656C57.3381 49.489 57.2573 49.414 57.1697 49.3491C56.9908 49.2166 56.7979 49.1042 56.6003 49.0027C56.4206 48.9104 56.2334 48.8323 56.0467 48.7544C55.826 48.6624 55.5973 48.5995 55.3571 48.5796C55.2939 48.5743 55.2182 48.5618 55.1739 48.5231C55.1074 48.4652 55.043 48.4819 54.9724 48.4835C54.8427 48.4864 54.7155 48.4748 54.5861 48.4516C54.4487 48.427 54.3037 48.4448 54.1621 48.4444C54.0577 48.4441 53.9528 48.4511 53.8491 48.4428C53.6151 48.4242 53.3825 48.391 53.1466 48.4228C53.0804 48.4317 53.011 48.414 52.943 48.4114C52.6999 48.4024 52.4564 48.4009 52.2138 48.3843C52.0087 48.3703 51.8052 48.3336 51.6001 48.3182C51.4879 48.3097 51.3739 48.327 51.2607 48.3287C51.0904 48.3312 50.9198 48.3358 50.7498 48.3291C50.617 48.3239 50.4851 48.2944 50.3523 48.2909C50.1084 48.2844 49.8641 48.2864 49.6201 48.2897C49.3239 48.2937 49.0291 48.2779 48.7345 48.2478C48.6595 48.2401 48.5822 48.2588 48.5061 48.2577C48.4134 48.2564 48.3207 48.2418 48.228 48.2425C48.1517 48.243 48.0752 48.2556 47.9992 48.2661C47.7339 48.3026 47.4673 48.3228 47.1998 48.3119C47.0508 48.3058 46.9027 48.2813 46.7538 48.2698C46.6689 48.2633 46.5828 48.2599 46.498 48.2662C46.3896 48.2743 46.2816 48.291 46.1742 48.3086C46.0047 48.3363 45.8326 48.3256 45.6671 48.3041C45.5176 48.2846 45.3772 48.3025 45.2334 48.3201C45.0612 48.341 44.8896 48.367 44.7173 48.386C44.5406 48.4056 44.3636 48.4216 44.1863 48.4341C44.1349 48.4377 44.0824 48.4204 44.0303 48.4186C43.9308 48.4151 43.8291 48.4025 43.7319 48.4172C43.4255 48.4635 43.1179 48.4632 42.8099 48.4583C42.7538 48.4574 42.6982 48.4416 42.642 48.4359C42.4782 48.4194 42.3195 48.4513 42.1614 48.4888C42.0357 48.5187 41.9106 48.5525 41.7835 48.574C41.5378 48.6157 41.31 48.7114 41.0785 48.7964C40.9681 48.837 40.8568 48.8761 40.7499 48.9246C40.558 49.0116 40.3691 49.1054 40.1788 49.196C40.1432 49.213 40.1067 49.2283 40.0537 49.2519C40.0586 49.2004 40.0618 49.1671 40.0651 49.1246C40.1154 49.0816 40.1631 49.0427 40.2165 49.0149C40.763 48.7308 41.3368 48.5216 41.9328 48.3648C42.3387 48.2579 42.7481 48.2373 43.1635 48.2321C43.4919 48.2279 43.82 48.1976 44.1482 48.1786C44.2496 48.1728 44.3508 48.1648 44.4522 48.16C44.7321 48.1465 45.012 48.1342 45.3035 48.1329C45.319 48.2028 45.3576 48.2186 45.4073 48.2155C45.5356 48.2076 45.6639 48.1997 45.7918 48.1872C45.8106 48.1854 45.827 48.1589 45.8446 48.1437C45.8412 48.1348 45.8379 48.1259 45.8345 48.117C45.7425 48.117 45.6505 48.117 45.5584 48.117C45.714 48.1095 45.8696 48.1019 46.044 48.1023C46.1404 48.1157 46.2197 48.142 46.2927 48.0913C46.3985 48.0844 46.5044 48.0775 46.6215 48.0813C46.6344 48.1346 46.6543 48.1649 46.6981 48.1648C46.7516 48.1646 46.7995 48.1485 46.8252 48.0778C46.7802 48.0748 46.7453 48.0724 46.7103 48.07C46.8717 48.0554 47.0329 48.0341 47.1946 48.0279C47.3977 48.02 47.6014 48.0273 47.8047 48.0225C47.9305 48.0195 48.0569 48.0126 48.1814 47.996C48.3967 47.9674 48.6104 47.9725 48.826 47.9931C49.0282 48.0124 49.2319 48.0159 49.435 48.0261C49.6744 48.0382 49.9139 48.05 50.1671 48.0714C50.2023 48.0781 50.2237 48.0753 50.2451 48.0725C50.3603 48.0769 50.4756 48.0812 50.6066 48.0955C50.6756 48.1027 50.7288 48.1 50.7819 48.0974C50.9379 48.1022 51.0939 48.1071 51.2667 48.1214C51.3531 48.1451 51.4228 48.1578 51.4902 48.1214C51.5975 48.1256 51.7049 48.1299 51.8268 48.1437C51.8708 48.1506 51.9002 48.1479 51.9296 48.1451C52.2257 48.1582 52.5217 48.1721 52.8179 48.184C53.2194 48.2 53.621 48.2145 54.0226 48.2296C54.3435 48.2416 54.6626 48.2649 54.9771 48.3384C55.5568 48.474 56.1129 48.6742 56.6509 48.9277C57.1513 49.1634 57.553 49.5173 57.8796 49.9577C58.0607 50.202 58.2331 50.4534 58.3974 50.7093C58.4756 50.8312 58.5267 50.9707 58.5874 51.1035C58.5968 51.1241 58.5916 51.1514 58.5907 51.1852Z" fill="#A5E314"/>
<path d="M47.7276 53.3632C47.6475 53.4109 47.5607 53.4417 47.4647 53.4059C47.4536 53.4017 47.4406 53.4021 47.4284 53.4019C46.8672 53.3927 46.3498 53.2104 45.8504 52.9793C45.3419 52.744 44.8448 52.484 44.3436 52.2328C43.9981 52.0596 43.6447 51.9059 43.2802 51.7765C42.7329 51.5821 42.1898 51.3754 41.6405 51.187C41.2675 51.059 40.8796 50.9864 40.4886 50.9351C40.3493 50.9169 40.3028 50.9498 40.2855 51.0924C40.2764 51.167 40.2907 51.2446 40.296 51.3207C40.2971 51.3365 40.3076 51.3516 40.3091 51.3674C40.3262 51.5589 40.4114 51.7315 40.4636 51.9129C40.534 52.1573 40.6271 52.3953 40.7131 52.635C40.8319 52.9662 40.9463 53.2993 41.0757 53.6264C41.1845 53.9012 41.3627 54.1334 41.5696 54.3436C41.7531 54.5301 41.958 54.688 42.185 54.8179C42.2434 54.8514 42.2958 54.8964 42.3561 54.9253C42.4638 54.9769 42.5759 55.0192 42.6851 55.0678C42.7106 55.0791 42.755 55.077 42.7377 55.1326C42.581 55.0911 42.4318 55.0407 42.2806 54.9972C41.7983 54.8587 41.3834 54.6081 41.0262 54.2574C40.8379 54.0726 40.6418 53.8959 40.4544 53.7103C40.3509 53.6078 40.258 53.4945 40.1572 53.3782C40.3092 53.3281 40.3333 53.3407 40.4392 53.4754C40.5142 53.5707 40.6079 53.652 40.6774 53.7506C40.7758 53.8903 40.9232 53.9715 41.0441 54.0838C41.0768 54.1143 41.1223 54.1309 41.1852 54.1672C41.1775 54.1151 41.1794 54.0913 41.1705 54.0728C41.0931 53.9126 41.0176 53.7514 40.9342 53.5944C40.793 53.3283 40.7182 53.0375 40.6162 52.757C40.5317 52.5249 40.4539 52.2903 40.3744 52.0564C40.3066 51.857 40.2369 51.6581 40.1761 51.4565C40.1548 51.3858 40.1382 51.3075 40.2074 51.2417C40.2583 51.1933 40.2497 51.1246 40.2184 51.0735C40.1631 50.9833 40.2159 50.9173 40.2572 50.8519C40.2802 50.8155 40.325 50.7986 40.3759 50.8229C40.4024 50.8356 40.4366 50.8345 40.4674 50.8355C40.6287 50.8408 40.7908 50.8369 40.9513 50.8514C41.0954 50.8644 41.2379 50.8957 41.3808 50.9211C41.7129 50.9801 42.0264 51.0985 42.3397 51.2189C42.5471 51.2986 42.7593 51.3658 42.968 51.4422C43.1275 51.5005 43.2847 51.5647 43.4432 51.6257C43.6435 51.7029 43.846 51.775 44.0439 51.8579C44.1852 51.917 44.3219 51.9876 44.4584 52.0576C44.8627 52.2651 45.262 52.4827 45.6708 52.6809C45.9325 52.8078 46.206 52.9109 46.477 53.0178C46.6713 53.0945 46.869 53.1634 47.0673 53.2293C47.2278 53.2827 47.4001 53.2912 47.5585 53.3586C47.6044 53.3781 47.6671 53.358 47.7276 53.3632Z" fill="#A5E314"/>
<path d="M46.0879 54.5085C46.1034 54.4846 46.1224 54.4523 46.1497 54.4305C46.3951 54.2352 46.583 53.9935 46.732 53.7195C46.7455 53.6948 46.7617 53.6716 46.7794 53.6433C46.9209 53.6614 47.061 53.6779 47.2007 53.6977C47.3932 53.725 47.5821 53.7012 47.7677 53.653C47.8203 53.6393 47.8666 53.5997 47.9147 53.5701C48.1523 53.4238 48.3324 53.2248 48.457 52.9751C48.4727 52.9437 48.4926 52.9143 48.5203 52.8677C48.5457 52.9083 48.5649 52.9322 48.5768 52.9592C48.7056 53.2543 48.9277 53.4659 49.1994 53.6224C49.2858 53.6722 49.4021 53.6756 49.5061 53.6883C49.7138 53.7137 49.9193 53.6795 50.1244 53.6503C50.2498 53.6325 50.2559 53.629 50.3154 53.7446C50.4379 53.9827 50.6208 54.173 50.7957 54.37C50.835 54.4143 50.8808 54.4529 50.9231 54.5019C50.5714 54.2707 50.1841 54.1269 49.7677 54.0438C49.4413 53.9786 49.1139 53.9706 48.7846 53.9727C48.4268 53.975 48.0688 53.9747 47.7113 53.9888C47.2927 54.0053 46.8919 54.1081 46.5096 54.2792C46.4254 54.3169 46.3472 54.3678 46.2661 54.4123C46.2093 54.4434 46.1522 54.4741 46.0879 54.5085Z" fill="#A5E314"/>
<path d="M54.2822 55.1242C54.2873 55.1093 54.2995 55.0872 54.3179 55.0788C54.5649 54.9673 54.8111 54.8547 55.0362 54.7015C55.5077 54.3808 55.8441 53.9553 56.0381 53.4179C56.1565 53.0902 56.281 52.7646 56.3954 52.4355C56.4628 52.2417 56.5149 52.0426 56.5756 51.8464C56.6187 51.707 56.6647 51.5685 56.7147 51.4224C56.7248 51.4336 56.7348 51.4523 56.7336 51.4703C56.7301 51.5224 56.7195 51.574 56.7163 51.6261C56.7079 51.761 56.6891 51.8924 56.5955 51.9986C56.5598 52.0391 56.5599 52.0842 56.5842 52.1222C56.6303 52.1942 56.6101 52.2604 56.5859 52.3311C56.5163 52.5339 56.4503 52.7378 56.3806 52.9406C56.3321 53.082 56.2827 53.2234 56.2284 53.3627C56.1667 53.5212 56.0962 53.6764 56.0357 53.8353C56.0152 53.8892 56.0134 53.9502 56.003 54.0079C56.0114 54.0142 56.0197 54.0205 56.028 54.0269C56.0535 54.0147 56.0841 54.0078 56.1038 53.9894C56.267 53.8374 56.4372 53.6915 56.5881 53.5279C56.8704 53.2218 57.1725 52.9317 57.3979 52.5766C57.4888 52.4333 57.5814 52.2906 57.6805 52.1529C57.7393 52.0711 57.8121 51.9994 57.8791 51.9235C58.0589 51.7196 58.2691 51.5488 58.4757 51.3739C58.5104 51.3444 58.5733 51.3448 58.5836 51.2764C58.6317 51.3954 58.5971 51.4892 58.4838 51.5604C58.0711 51.8197 57.7827 52.1961 57.5188 52.5947C57.3572 52.8388 57.1882 53.0761 56.9787 53.2837C56.8262 53.4348 56.69 53.6024 56.5398 53.756C56.4206 53.8778 56.2918 53.9905 56.166 54.1058C56.0282 54.232 55.8931 54.3616 55.7495 54.4809C55.5034 54.6854 55.23 54.8443 54.9224 54.9384C54.7131 55.0025 54.5024 55.0619 54.2822 55.1242Z" fill="#A5E314"/>
<path d="M38.515 50.9673C38.5319 51.0255 38.5489 51.0891 38.55 51.153C38.5528 51.3202 38.6227 51.4527 38.7541 51.5491C38.9437 51.6882 39.0852 51.8632 39.1999 52.0682C39.2743 52.2013 39.3792 52.3172 39.4691 52.4418C39.5415 52.542 39.6075 52.6472 39.6846 52.7436C39.7338 52.8051 39.7987 52.8538 39.8339 52.9276C39.8525 52.9665 39.8735 53.0048 39.8976 53.0405C39.9121 53.062 39.9325 53.0815 39.9543 53.0957C39.9905 53.1194 40.0286 53.1412 40.0683 53.1583C40.1439 53.191 40.1444 53.2436 40.1126 53.3167C39.9967 53.206 39.8731 53.0932 39.7706 52.9637C39.6523 52.8143 39.5517 52.6508 39.4451 52.4924C39.2328 52.1768 38.9876 51.8908 38.6898 51.6525C38.6329 51.607 38.5688 51.5703 38.5071 51.5311C38.4424 51.4899 38.4132 51.4335 38.4205 51.3562C38.4263 51.2955 38.4185 51.2324 38.4324 51.1741C38.4488 51.1049 38.482 51.0397 38.515 50.9673Z" fill="#A5E314"/>
<path d="M45.5484 48.1157C45.6508 48.117 45.7428 48.117 45.8348 48.117C45.8382 48.1259 45.8415 48.1348 45.8449 48.1438C45.8273 48.1589 45.8109 48.1854 45.7921 48.1873C45.6642 48.1997 45.5359 48.2077 45.4076 48.2155C45.3579 48.2186 45.3193 48.2028 45.3149 48.1352C45.3258 48.1242 45.3371 48.1225 45.3617 48.1273C45.3949 48.1296 45.4149 48.1253 45.4349 48.1211C45.4693 48.1189 45.5037 48.1166 45.5484 48.1157Z" fill="#A5E314"/>
<path d="M46.7008 48.0688C46.7456 48.0722 46.7805 48.0746 46.8255 48.0777C46.7998 48.1483 46.7519 48.1644 46.6984 48.1646C46.6546 48.1647 46.6347 48.1344 46.6328 48.0829C46.6519 48.0718 46.6714 48.0698 46.7008 48.0688Z" fill="#A5E314"/>
<path d="M46.2818 48.0898C46.22 48.1418 46.1407 48.1154 46.0557 48.1038C46.1224 48.0946 46.1965 48.0916 46.2818 48.0898Z" fill="#A5E314"/>
<path d="M51.4796 48.1191C51.423 48.1576 51.3533 48.1449 51.2769 48.1236C51.3363 48.1166 51.4025 48.1168 51.4796 48.1191Z" fill="#A5E314"/>
<path d="M38.6152 50.7769C38.6065 50.8066 38.5908 50.8401 38.5674 50.8756C38.5759 50.8453 38.592 50.813 38.6152 50.7769Z" fill="#A5E314"/>
<path d="M50.7714 48.0953C50.7288 48.1 50.6756 48.1026 50.6162 48.0981C50.6603 48.0918 50.7106 48.0926 50.7714 48.0953Z" fill="#A5E314"/>
<path d="M45.4301 48.1172C45.4148 48.1252 45.3948 48.1294 45.3701 48.1287C45.3854 48.1203 45.4053 48.1169 45.4301 48.1172Z" fill="#A5E314"/>
<path d="M38.7874 50.4844C38.786 50.4982 38.7782 50.5149 38.7632 50.5335C38.7643 50.5194 38.7726 50.5033 38.7874 50.4844Z" fill="#A5E314"/>
<path d="M51.92 48.1432C51.9002 48.148 51.8708 48.1507 51.8364 48.1468C51.8577 48.1405 51.884 48.1408 51.92 48.1432Z" fill="#A5E314"/>
<path d="M50.2364 48.0704C50.224 48.0754 50.2026 48.0782 50.1768 48.075C50.1907 48.0687 50.2091 48.0685 50.2364 48.0704Z" fill="#A5E314"/>
<path d="M56.7751 51.0674C56.7488 51.0456 56.7297 51.0195 56.7111 50.9931C56.6777 50.9455 56.6317 50.9216 56.5746 50.9314C56.3668 50.9672 56.1592 51.0038 55.9521 51.043C55.8488 51.0625 55.7459 51.085 55.6442 51.1118C55.3613 51.1865 55.0887 51.2907 54.8156 51.3959C54.3802 51.5635 53.9373 51.7113 53.4998 51.8734C53.0919 52.0245 52.7069 52.2251 52.3213 52.4254C51.9612 52.6125 51.5957 52.7904 51.2252 52.9559C50.9481 53.0796 50.6632 53.1899 50.3742 53.282C50.1508 53.3532 49.9176 53.3981 49.6796 53.4009C49.6277 53.4015 49.5761 53.4144 49.5243 53.4205C49.5005 53.4233 49.4746 53.4297 49.4526 53.4237C49.2722 53.3749 49.0925 53.3261 48.9374 53.2128C48.7213 53.0549 48.6033 52.8421 48.5645 52.5708C48.6369 52.6091 48.6976 52.6688 48.7302 52.7528C48.8303 53.011 49.0383 53.1624 49.2797 53.255C49.4563 53.3227 49.6452 53.3801 49.8468 53.3234C49.962 53.2909 50.0862 53.2914 50.2052 53.2709C50.2913 53.256 50.3766 53.2339 50.4604 53.2091C50.5094 53.1946 50.5547 53.1681 50.6018 53.1473C50.6312 53.1343 50.66 53.114 50.6907 53.1105C50.8547 53.0916 50.999 53.0231 51.1401 52.9433C51.174 52.9241 51.2142 52.9163 51.2512 52.9024C51.2813 52.8911 51.32 52.8866 51.3392 52.865C51.4083 52.7876 51.498 52.7565 51.5938 52.7343C51.5978 52.7334 51.6026 52.7334 51.6055 52.731C51.7217 52.6374 51.8611 52.5849 51.9904 52.5145C52.0081 52.5049 52.0236 52.4907 52.0419 52.4826C52.2084 52.4097 52.3753 52.3376 52.542 52.2652C52.5532 52.2604 52.5651 52.2568 52.5754 52.2505C52.8419 52.0863 53.1349 51.9779 53.4208 51.8557C53.639 51.7624 53.8665 51.6908 54.0892 51.6077C54.1977 51.5673 54.3037 51.5199 54.4128 51.481C54.5114 51.4458 54.6141 51.4219 54.7123 51.3858C54.8931 51.3194 55.0713 51.2458 55.252 51.179C55.338 51.1472 55.4272 51.1244 55.5149 51.0971C55.8073 51.0061 56.109 50.9577 56.4084 50.8976C56.5171 50.8757 56.6168 50.8979 56.7198 50.9047C56.8057 50.9105 56.8257 50.9714 56.7751 51.0674Z" fill="#A5E314"/>
<path d="M48.5007 52.5432C48.4882 52.5599 48.4684 52.5732 48.4587 52.5797C48.4206 52.843 48.3259 53.0603 48.0832 53.1981C48.0805 53.1736 48.0795 53.143 48.0928 53.1207C48.1682 52.9941 48.2483 52.8702 48.3239 52.7437C48.3436 52.7107 48.3574 52.6725 48.366 52.6349C48.3819 52.5647 48.4201 52.5303 48.5007 52.5432Z" fill="#A5E314"/>
<path d="M52.2167 54.487C52.6331 54.4169 52.9639 54.2189 53.2244 53.9023C53.3605 53.7368 53.4376 53.5402 53.5194 53.3447C53.5843 53.1893 53.5914 53.0302 53.5889 52.8674C53.5863 52.7007 53.5833 52.534 53.5806 52.3673C53.5788 52.2579 53.5822 52.2497 53.6839 52.2221C53.9146 52.1594 54.1431 52.0788 54.3781 52.0432C54.7158 51.9921 55.0588 51.9885 55.4001 52.0264C55.4265 52.0293 55.4626 52.0373 55.4754 52.0558C55.5277 52.1315 55.5827 52.2036 55.6252 52.2887C55.7089 52.4563 55.6804 52.6279 55.6852 52.7987C55.6901 52.9693 55.6764 53.1376 55.6399 53.3069C55.5468 53.7401 55.313 54.082 54.9749 54.3535C54.6486 54.6156 54.2823 54.8058 53.8683 54.8903C53.7652 54.9113 53.6591 54.9246 53.554 54.9271C53.1146 54.9375 52.6758 54.9245 52.238 54.8809C52.0047 54.8576 51.7895 54.7778 51.5748 54.6884C51.2772 54.5644 51.0209 54.3849 50.7919 54.1601C50.6277 53.9989 50.5042 53.8116 50.3931 53.6038C50.4615 53.5768 50.5204 53.5536 50.5813 53.5296C50.6061 53.6023 50.617 53.6835 50.6582 53.7442C50.7282 53.8474 50.8059 53.9512 50.9009 54.0301C51.0502 54.1541 51.2103 54.2683 51.3779 54.3658C51.4723 54.4208 51.5908 54.4348 51.6989 54.4658C51.726 54.4736 51.7551 54.4743 51.7829 54.4804C51.9235 54.5112 52.0645 54.5181 52.2167 54.487Z" fill="#FCFCFC"/>
<path d="M43.8982 54.9308C43.6708 54.9236 43.4538 54.9309 43.2408 54.9055C42.9724 54.8735 42.7276 54.7617 42.4868 54.6393C42.2515 54.5196 42.0488 54.3586 41.8623 54.1778C41.7702 54.0884 41.7012 53.9745 41.6255 53.8691C41.4998 53.6944 41.4443 53.493 41.3955 53.2859C41.3502 53.0935 41.3439 52.9004 41.3349 52.7054C41.3261 52.5156 41.3837 52.3457 41.4595 52.1778C41.5033 52.081 41.5706 52.02 41.6825 52.0172C41.8125 52.014 41.9425 52.0013 42.0722 52.0051C42.2672 52.0107 42.4628 52.0193 42.6564 52.0417C42.7717 52.0551 42.8839 52.0969 42.9972 52.1271C43.1108 52.1573 43.225 52.1858 43.3372 52.2207C43.4622 52.2595 43.4656 52.2698 43.4593 52.4044C43.4516 52.571 43.4458 52.7377 43.4383 52.9044C43.4317 53.0526 43.4563 53.1954 43.5039 53.3359C43.6613 53.8009 43.9472 54.1584 44.395 54.3677C44.656 54.4897 44.9335 54.53 45.2257 54.4874C45.6563 54.4247 45.9832 54.1921 46.27 53.8871C46.3795 53.7706 46.4114 53.6835 46.4231 53.5314C46.4921 53.5536 46.5593 53.5752 46.6378 53.6005C46.5069 53.8249 46.3886 54.0415 46.1891 54.1997C46.0651 54.298 45.9534 54.4155 45.8194 54.4967C45.4359 54.7292 45.023 54.8828 44.5686 54.9021C44.3492 54.9115 44.1298 54.9212 43.8982 54.9308Z" fill="#FCFCFC"/>
<path d="M53.445 52.4877C53.4473 52.6258 53.4461 52.7641 53.4524 52.902C53.4778 53.4591 53.035 54.1371 52.3904 54.3236C51.8858 54.4695 51.4631 54.3301 51.0785 54.0135C50.9735 53.9271 50.8706 53.8359 50.7884 53.7216C50.7324 53.6437 50.7402 53.5751 50.7569 53.4758C50.8263 53.5255 50.8821 53.5697 50.9419 53.6074C51.0719 53.6894 51.1972 53.7835 51.3369 53.844C51.4952 53.9126 51.6692 53.944 51.8323 54.0029C51.95 54.0455 52.0691 54.0503 52.1909 54.0569C52.4544 54.0714 52.6703 53.9628 52.8671 53.8045C53.0095 53.69 53.1 53.5352 53.1786 53.374C53.2136 53.3023 53.2654 53.2343 53.2535 53.1465C53.3779 52.9494 53.3777 52.725 53.402 52.4883C53.4215 52.4775 53.4332 52.4826 53.445 52.4877Z" fill="#EDF9D0"/>
<path d="M43.5674 52.992C43.5716 52.8334 43.5764 52.6859 43.5811 52.5384C43.5912 52.5376 43.6012 52.5369 43.6113 52.5361C43.6183 52.5692 43.6238 52.6027 43.6324 52.6354C43.6869 52.8432 43.7303 53.0549 43.8003 53.2575C43.8822 53.4948 44.0164 53.7046 44.2226 53.857C44.3856 53.9774 44.5665 54.0462 44.774 54.0559C45.0498 54.0688 45.3044 53.983 45.5583 53.9021C45.7911 53.828 45.9896 53.6834 46.1826 53.5351C46.1986 53.5228 46.2147 53.5102 46.2318 53.4996C46.2379 53.4958 46.2473 53.4974 46.2588 53.4961C46.2986 53.5755 46.2934 53.6491 46.2376 53.7215C46.0182 54.0062 45.74 54.2009 45.398 54.3208C44.7348 54.5532 43.9897 54.1085 43.7279 53.5359C43.6503 53.3661 43.5677 53.1968 43.5674 52.992Z" fill="#EDF9D0"/>
<path d="M53.4471 52.4773C53.4329 52.4824 53.4211 52.4773 53.401 52.4773C53.3926 52.4249 53.3926 52.3674 53.3926 52.2925C53.4701 52.35 53.4408 52.4136 53.4471 52.4773Z" fill="#212D04"/>
<defs>
<linearGradient id="paint0_linear_912_2041" x1="0" y1="0" x2="100" y2="100" gradientUnits="userSpaceOnUse">
<stop stop-color="#A5E314"/>
<stop offset="1" stop-color="#5B7D0B"/>
</linearGradient>
</defs>
</svg>
