<svg width="32" height="32" viewBox="0 0 32 32" fill="none" xmlns="http://www.w3.org/2000/svg">
<g filter="url(#filter0_b_804_2303)">
<rect width="32" height="32" rx="16" fill="#212D04" fill-opacity="0.6"/>
<rect x="0.25" y="0.25" width="31.5" height="31.5" rx="15.75" stroke="#757A6F" stroke-width="0.5"/>
<path d="M19.3817 8H16.6852V18.8985C16.6852 20.1971 15.6482 21.2638 14.3575 21.2638C13.0669 21.2638 12.0298 20.1971 12.0298 18.8985C12.0298 17.6232 13.0439 16.5797 14.2884 16.5333V13.7971C11.5459 13.8435 9.33337 16.0928 9.33337 18.8985C9.33337 21.7276 11.5919 24 14.3806 24C17.1692 24 19.4278 21.7044 19.4278 18.8985V13.3101C20.4419 14.0522 21.6864 14.4928 23 14.516V11.7797C20.972 11.7101 19.3817 10.0406 19.3817 8Z" fill="#E1F6B1"/>
</g>
<defs>
<filter id="filter0_b_804_2303" x="-20" y="-20" width="72" height="72" filterUnits="userSpaceOnUse" color-interpolation-filters="sRGB">
<feFlood flood-opacity="0" result="BackgroundImageFix"/>
<feGaussianBlur in="BackgroundImageFix" stdDeviation="10"/>
<feComposite in2="SourceAlpha" operator="in" result="effect1_backgroundBlur_804_2303"/>
<feBlend mode="normal" in="SourceGraphic" in2="effect1_backgroundBlur_804_2303" result="shape"/>
</filter>
</defs>
</svg>
