<svg width="32" height="32" viewBox="0 0 32 32" fill="none" xmlns="http://www.w3.org/2000/svg">
<g filter="url(#filter0_b_804_2305)">
<rect width="32" height="32" rx="16" fill="#212D04" fill-opacity="0.6"/>
<rect x="0.25" y="0.25" width="31.5" height="31.5" rx="15.75" stroke="#757A6F" stroke-width="0.5"/>
<path d="M23.8406 12.8C23.8406 12.8 23.6844 11.6969 23.2031 11.2125C22.5938 10.575 21.9125 10.5719 21.6 10.5344C19.3625 10.3719 16.0031 10.3719 16.0031 10.3719H15.9969C15.9969 10.3719 12.6375 10.3719 10.4 10.5344C10.0875 10.5719 9.40625 10.575 8.79688 11.2125C8.31563 11.6969 8.1625 12.8 8.1625 12.8C8.1625 12.8 8 14.0969 8 15.3906V16.6031C8 17.8969 8.15937 19.1938 8.15937 19.1938C8.15937 19.1938 8.31562 20.2969 8.79375 20.7813C9.40313 21.4188 10.2031 21.3969 10.5594 21.4656C11.8406 21.5875 16 21.625 16 21.625C16 21.625 19.3625 21.6188 21.6 21.4594C21.9125 21.4219 22.5938 21.4188 23.2031 20.7813C23.6844 20.2969 23.8406 19.1938 23.8406 19.1938C23.8406 19.1938 24 17.9 24 16.6031V15.3906C24 14.0969 23.8406 12.8 23.8406 12.8ZM14.3469 18.075V13.5781L18.6687 15.8344L14.3469 18.075Z" fill="#E1F6B1"/>
</g>
<defs>
<filter id="filter0_b_804_2305" x="-20" y="-20" width="72" height="72" filterUnits="userSpaceOnUse" color-interpolation-filters="sRGB">
<feFlood flood-opacity="0" result="BackgroundImageFix"/>
<feGaussianBlur in="BackgroundImageFix" stdDeviation="10"/>
<feComposite in2="SourceAlpha" operator="in" result="effect1_backgroundBlur_804_2305"/>
<feBlend mode="normal" in="SourceGraphic" in2="effect1_backgroundBlur_804_2305" result="shape"/>
</filter>
</defs>
</svg>
